<?xml version="1.0" encoding="UTF-8" standalone="no"?>
<!-- Created with Inkscape (http://www.inkscape.org/) -->

<svg
   xmlns:dc="http://purl.org/dc/elements/1.1/"
   xmlns:cc="http://creativecommons.org/ns#"
   xmlns:rdf="http://www.w3.org/1999/02/22-rdf-syntax-ns#"
   xmlns:svg="http://www.w3.org/2000/svg"
   xmlns="http://www.w3.org/2000/svg"
   xmlns:sodipodi="http://sodipodi.sourceforge.net/DTD/sodipodi-0.dtd"
   xmlns:inkscape="http://www.inkscape.org/namespaces/inkscape"
   width="210mm"
   height="297mm"
   viewBox="0 0 744.09448819 1052.3622047"
   id="svg3475"
   version="1.1"
   inkscape:version="0.91 r13725"
   sodipodi:docname="guy1.svg">
  <defs
     id="defs3477" />
  <sodipodi:namedview
     id="base"
     pagecolor="#ffffff"
     bordercolor="#666666"
     borderopacity="1.0"
     inkscape:pageopacity="0.0"
     inkscape:pageshadow="2"
     inkscape:zoom="1.2349497"
     inkscape:cx="327.50592"
     inkscape:cy="662.21699"
     inkscape:document-units="px"
     inkscape:current-layer="layer1"
     showgrid="false"
     inkscape:window-width="1215"
     inkscape:window-height="776"
     inkscape:window-x="65"
     inkscape:window-y="24"
     inkscape:window-maximized="1" />
  <metadata
     id="metadata3480">
    <rdf:RDF>
      <cc:Work
         rdf:about="">
        <dc:format>image/svg+xml</dc:format>
        <dc:type
           rdf:resource="http://purl.org/dc/dcmitype/StillImage" />
        <dc:title />
      </cc:Work>
    </rdf:RDF>
  </metadata>
  <g
     inkscape:label="Layer 1"
     inkscape:groupmode="layer"
     id="layer1">
    <path
       style="fill:#4c2c24"
       d="M 296.25 144.39062 C 295.03371 144.26726 289.03894 147.33565 282.78516 151.32227 C 279.21016 153.60123 274.26016 156.0423 271.78516 156.74805 C 263.91168 158.9932 257.45054 161.6523 257.06641 162.80469 C 256.86176 163.41866 258.08876 164.40591 259.79297 165 C 262.55924 165.96432 262.77 166.30845 261.75391 168.20703 C 261.12791 169.37668 260.87794 171.38204 261.19922 172.66211 C 261.98574 175.79588 260.95739 178.14844 258.80078 178.14844 C 257.82696 178.14844 256.44525 178.85162 255.73047 179.71289 C 253.72815 182.12553 249.00019 184.30465 248.2832 183.14453 C 247.33135 181.60441 244.61591 181.95605 240.52539 184.14844 C 238.47302 185.24844 235.96499 186.14844 234.95312 186.14844 C 233.94127 186.14844 230.30938 188.39844 226.88281 191.14844 C 223.45625 193.89844 220.21982 196.14844 219.68945 196.14844 C 217.92555 196.14844 212.30183 203.34082 211.19922 207.00781 C 210.35033 209.83094 209.40205 210.82574 206.86719 211.55273 C 205.04558 212.07516 200.81805 215.26204 197.22852 218.81641 C 193.71153 222.29894 190.19981 225.14844 189.42578 225.14844 C 188.02562 225.14844 184.26326 229.16846 178.00391 237.35547 C 176.19913 239.71606 173.55701 243.12873 172.13086 244.93945 C 169.46986 248.31801 169.51316 249.84996 172.24219 248.80273 C 173.09091 248.47705 173.78516 247.39215 173.78516 246.39258 C 173.78516 244.28213 181.31721 238.14844 183.9082 238.14844 C 187.17745 238.14844 186.66117 239.70546 181.28711 246.05469 C 175.78408 252.55629 172.9766 257.67191 174.22461 258.91992 C 174.81866 259.51397 180.45293 253.91507 186.32227 246.89844 C 187.85809 245.06241 190.78516 244.50493 190.78516 246.04883 C 190.78516 246.82441 186.16949 253.14039 179.375 261.66016 C 178.32385 262.97823 177.12659 266.54 176.71484 269.57422 C 175.88452 275.69283 170.53573 285.12669 167.86719 285.17969 C 165.86166 285.21954 163.6564 288.35484 161.41211 294.35742 C 160.44364 296.94769 158.6013 300.6134 157.31836 302.50391 C 156.03543 304.39442 154.67294 306.92559 154.29102 308.12891 C 153.73252 309.88859 153.09678 310.19078 151.03711 309.67383 C 148.0062 308.91312 146.8046 310.34012 146.8457 314.64844 C 146.92095 322.54784 152.3255 330.48167 161.28516 335.8418 C 167.1668 339.3605 183.78516 354.66899 183.78516 356.56836 C 183.78516 357.09853 182.01053 359.18681 179.83984 361.21094 C 176.09755 364.70057 175.85671 365.28921 175.19922 372.54492 C 174.52881 379.94313 174.6243 380.43577 178.07031 387.42188 C 180.03065 391.39608 181.94265 395.8905 182.32031 397.4082 C 182.69797 398.9259 183.40741 400.41453 183.89648 400.7168 C 184.38555 401.01906 184.78516 402.19219 184.78516 403.32422 C 184.78516 404.45626 187.35887 410.61762 190.50391 417.01562 L 196.22266 428.64844 L 196.60352 439.64844 C 197.11765 454.4873 195.0168 464.59891 188.66992 477.82812 C 185.9839 483.42678 183.78516 488.67998 183.78516 489.50391 C 183.78516 491.91773 188.40027 494.86386 193.3457 495.60547 C 199.10917 496.46976 200.55884 497.94265 205.66211 508.13867 C 210.70831 518.22066 210.95409 521.42169 206.81836 523.13477 C 202.22155 525.03883 200.94331 527.05917 203.26367 528.75586 C 204.31053 529.52135 206.1811 530.14844 207.41992 530.14844 C 212.76557 530.14844 220.91783 545.67368 218.61133 551.46289 C 216.70326 556.25202 219.06541 557.52194 230.01367 557.58984 L 239.28516 557.64844 L 238.97266 560.32617 C 238.50581 564.33154 244.80594 570.73535 253.28516 574.875 L 260.28516 578.29297 L 271.44727 577.6543 C 281.67292 577.06866 282.65686 577.16756 283.19141 578.83203 C 283.51232 579.83127 285.46594 582.95709 287.53125 585.7793 C 289.59657 588.60151 292.86016 593.08317 294.78516 595.73828 C 296.71016 598.39339 300.24845 602.38474 302.64648 604.60742 C 305.04452 606.8301 309.20706 611.83175 311.89844 615.72266 C 318.89516 625.77627 333.51565 631.84844 348.18359 635.10156 C 356.10405 636.18588 405.61216 636.1659 411.91602 635.07617 C 417.06493 634.1861 435.03849 628.04832 442.28516 624.70508 C 443.93516 623.94386 448.43516 620.80501 452.28516 617.73047 C 456.13516 614.65593 462.26742 609.78 465.91211 606.89453 C 470.19624 603.50283 473.65291 599.70415 475.68945 596.14844 C 477.42202 593.12344 481.06379 586.82344 483.7832 582.14844 C 489.01297 573.1578 490.67909 567.3029 486.62891 572.14844 C 485.4796 573.52344 482.70192 578.40059 480.45508 582.98828 C 475.69997 592.69747 465.60647 605.03673 458.98438 609.23633 C 456.45965 610.83747 453.94479 612.14844 453.39453 612.14844 C 452.84427 612.14844 450.63146 610.92754 448.47852 609.43555 C 444.87954 606.94146 443.50621 606.66673 431.42578 606.0332 C 421.68552 605.5224 416.80423 604.78597 412.55859 603.18359 C 405.75322 600.6151 402.35248 596.92306 403.35547 593.19141 C 405.14514 586.53296 405.44556 576.62182 403.95312 573.43164 C 402.71492 570.78489 402.65881 569.51461 403.63867 566.24414 C 404.87668 562.11203 404.21432 554.14844 402.63281 554.14844 C 402.13949 554.14844 401.33215 555.21173 400.83789 556.51172 C 400.34364 557.8117 399.16563 559.17256 398.2207 559.53516 C 396.79521 560.08217 396.71195 559.94052 397.73242 558.71094 C 398.45398 557.84152 398.70713 556.06463 398.34375 554.41016 C 397.70513 551.50255 398.65564 546.24316 403.09375 528.14844 C 408.11283 507.68501 408.80292 503.54078 408.79492 493.87891 C 408.78637 483.93385 409.00793 483.12499 414.79688 472.02539 C 415.30426 471.05252 415.20812 469.96984 414.55664 469.31836 C 412.86548 467.6272 415.19349 465.55404 421.0918 463.49805 C 424.99634 462.13704 428.16748 459.82063 433.86523 454.16797 C 442.99168 445.11375 446.3346 438.7497 448.38477 426.52539 C 449.20357 421.64316 450.33204 414.94844 450.89258 411.64844 C 451.45313 408.34844 451.6466 404.23025 451.32227 402.49805 C 450.83848 399.91422 450.36128 399.44576 448.66016 399.89062 C 446.76526 400.38616 446.61574 400.0658 446.93555 396.16406 L 447.28516 391.89453 L 440.28516 387.47656 C 436.43516 385.04638 432.47913 382.79476 431.49414 382.47461 C 428.64674 381.54913 430.07164 379.79855 434.7793 378.43555 C 442.8434 376.10078 450.72323 379.0258 455.61914 386.17188 C 457.90422 389.50717 457.97631 390.13486 457.38086 401.64844 C 456.5313 418.0757 455.20112 429.92513 453.70508 434.39648 C 452.38294 438.3481 453.24879 440.85737 454.91016 437.88867 C 455.44624 436.93075 456.50588 436.14844 457.26562 436.14844 C 458.02536 436.14844 461.49137 432.80958 464.9668 428.73047 C 468.44223 424.65136 474.10542 417.99342 477.55273 413.93359 C 484.9401 405.23362 486.84337 401.90082 490.08984 391.96094 C 491.42239 387.88101 493.80232 382.54161 495.37891 380.0957 C 496.95551 377.6498 498.78932 374.74844 499.45508 373.64844 C 503.71414 366.61141 506.04577 358.66149 507.6582 345.67383 C 508.51003 338.81253 508.38424 337.27695 506.58984 332.58789 C 504.01802 325.86731 502.28025 325.08758 500.71875 329.95312 C 500.06642 331.98577 498.82659 334.45546 497.96289 335.44336 C 496.47568 337.14444 496.2817 337.05707 494.31055 333.79102 C 492.17468 330.25202 491.58926 322.89112 493.23242 320.23242 C 493.89265 319.16415 494.43773 319.36215 495.79102 321.15625 C 498.48278 324.72479 499.67551 322.92269 498.25781 317.42969 C 497.14555 313.12016 496.76506 312.67612 494.4043 312.93555 C 491.88704 313.21218 491.78516 313.02706 491.78516 308.18555 C 491.78516 303.07012 492.42813 302.18985 494.58594 304.34766 C 497.00724 306.76896 495.82845 303.19151 492.85156 299.08203 C 490.0854 295.26347 488.93127 292.08564 488.33398 286.64453 C 488.19225 285.35341 487.37251 283.59127 486.51172 282.73047 C 485.61212 281.83087 484.65088 278.41068 484.25195 274.68555 C 483.55087 268.13889 481.44847 264.45826 479.86914 267.01367 C 479.06497 268.31483 481.10164 277.57276 482.61914 279.51367 C 483.12037 280.15477 483.15449 283.69266 482.69727 287.64844 C 481.33772 299.41113 481.62495 304.61812 483.91992 309.81445 C 487.59774 318.14189 488.52738 330.14844 485.49414 330.14844 C 484.92123 330.14844 484.73512 329.86643 485.08008 329.52148 C 485.42504 329.17652 484.37438 326.95648 482.74609 324.58984 C 481.1178 322.2232 479.78516 319.79033 479.78516 319.18359 C 479.78516 318.57685 478.25995 316.55486 476.39453 314.68945 C 474.52912 312.82403 472.7627 310.70141 472.46875 309.97266 C 472.08023 309.00943 471.42925 309.26922 470.08594 310.92383 C 468.62692 312.72096 467.97979 312.94268 467.01172 311.97461 C 465.28627 310.24916 465.4459 308.92129 468.36133 300.70898 C 469.80237 296.6498 470.79315 291.958 470.61133 290.05273 C 470.32323 287.03364 469.92341 286.61303 467.07812 286.33789 C 464.22849 286.06232 463.4633 286.59346 460.23438 291.08789 C 456.41918 296.39835 453.37594 297.58537 452.29688 294.18555 C 451.95434 293.10633 452.1976 291.24745 452.83594 290.05469 C 453.60602 288.61579 453.77031 285.47143 453.32422 280.71094 C 452.86733 275.83532 453.04532 272.6717 453.88086 270.83789 C 455.23529 267.86525 454.43005 266.10315 452.56836 267.96484 C 451.91753 268.61567 450.23844 269.16349 448.83594 269.18359 C 446.93533 269.21081 445.58483 270.32729 443.53516 273.56445 C 442.02266 275.95322 440.78516 278.59914 440.78516 279.44531 C 440.78516 281.93907 439.64683 284.1805 438.68164 283.58398 C 437.23982 282.69289 437.61872 279.72517 440.46289 269.65625 C 442.79027 261.41681 442.96771 259.85681 441.82031 257.71289 C 440.96022 256.10579 440.71671 253.6618 441.12305 250.69727 C 441.49734 247.96651 441.35637 246.14844 440.76758 246.14844 C 439.17041 246.14844 439.64194 244.29166 441.78516 242.14844 C 443.21098 240.72262 443.79566 238.78477 443.81836 235.39844 C 443.83586 232.78594 444.46161 229.83963 445.21094 228.85156 C 446.59549 227.02591 446.25207 223.14844 444.70508 223.14844 C 443.34612 223.14844 441.73813 226.86261 442.37695 228.52734 C 442.69849 229.36527 441.85928 231.5352 440.51172 233.34961 C 439.16416 235.16402 437.54103 238.20303 436.9043 240.10352 C 434.25831 248.00113 430.19696 250.5436 427.98438 245.6875 C 427.07293 243.6871 427.25681 242.3296 428.96289 238.4375 C 430.11742 235.80369 431.67485 233.28749 432.42383 232.84766 C 434.80655 231.44844 433.95535 228.46211 430.80273 227.15625 C 426.7053 225.45904 425.49084 226.1707 421.95898 232.34375 C 417.54471 240.05909 414.91391 242.27657 411.31641 241.31445 C 409.7209 240.88774 408.26239 240.07621 408.07422 239.51172 C 407.5265 237.86854 411.8115 233.07548 413.56055 233.375 C 414.4374 233.52515 415.84467 232.44026 416.6875 230.96484 C 418.08328 228.52141 418.06004 227.94696 416.42188 224.51172 C 414.81207 221.13593 414.78596 220.62241 416.16602 219.61328 C 418.27375 218.07207 419.77141 213.80988 419.10352 211.25586 C 418.4338 208.69482 419.48075 208.56247 422.04688 210.88477 C 423.73063 212.40856 424.10946 212.43921 425.12695 211.13477 C 425.76477 210.31708 428.19766 208.34902 430.53516 206.76172 C 432.87266 205.17442 434.77141 203.59942 434.75391 203.26172 C 434.66888 201.62026 431.8424 199.14844 430.05078 199.14844 C 423.04314 199.14844 420.00467 196.87118 423.33008 194.11133 C 424.40105 193.2225 424.67903 191.93748 424.23633 189.92188 C 423.44429 186.31574 425.36919 181.41417 427.89258 180.61328 C 428.93343 180.28292 429.78516 179.39931 429.78516 178.64844 C 429.78516 176.75115 426.2634 175.82091 423.88867 177.0918 C 422.80406 177.67227 420.1879 178.14844 418.07422 178.14844 C 415.15793 178.14844 413.6246 178.81162 411.7168 180.89844 C 410.33405 182.41094 408.4178 184.09844 407.45898 184.64844 C 406.48219 185.20875 405.44205 187.40721 405.09375 189.64844 C 404.66677 192.39588 403.40411 194.66614 401.05859 196.89844 C 399.18043 198.68594 397.24056 200.14844 396.74805 200.14844 C 396.25555 200.14844 394.24678 201.75322 392.28516 203.71484 C 388.89689 207.10311 388.54539 207.22365 385.25195 206.13672 C 381.0304 204.74348 380.69733 202.14801 384.36914 199.25977 C 385.79024 198.14193 386.69642 196.81212 386.38281 196.30469 C 386.0692 195.79726 386.70632 194.24631 387.79883 192.85742 C 390.65647 189.22451 390.26393 186.5608 386.28516 182.58203 C 382.49075 178.78763 381.55446 173.9363 384.31641 172.39062 C 385.68606 171.62415 385.68612 171.15561 384.33008 167.91016 C 383.497 165.91632 382.35246 163.9971 381.78516 163.64648 C 381.21785 163.29587 381.01591 162.58347 381.33789 162.0625 C 381.65986 161.54149 382.29251 161.34317 382.74219 161.62109 C 383.19187 161.899 384.15764 161.40428 384.88867 160.52344 C 386.03197 159.14585 385.77444 158.52755 383.05273 156.0957 L 379.88867 153.26758 L 354.54688 153.60547 C 328.94139 153.9459 323.82145 154.561 316.78516 158.14648 C 311.32223 160.93022 307.31843 161.49418 305.82227 159.69141 C 304.9556 158.64714 302.79001 158.14844 299.13281 158.14844 C 294.97705 158.14844 293.57249 157.7555 293.07422 156.45703 C 292.70915 155.50569 292.94881 154.59389 293.62305 154.36914 C 296.45996 153.42351 297.96344 150.78791 297.36719 147.80664 C 297.03571 146.14927 296.61452 144.64186 296.42969 144.45703 C 296.39242 144.41976 296.33109 144.39885 296.25 144.39062 z M 280.57617 160.47266 C 280.92222 160.47409 281.35415 160.86 282.125 161.63086 C 283.03824 162.5441 283.78516 163.65695 283.78516 164.10352 C 283.78516 164.55008 282.85825 165.15668 281.72461 165.45312 C 279.32057 166.08179 278.17194 164.06556 279.54102 161.61914 C 279.96963 160.85326 280.23012 160.47122 280.57617 160.47266 z M 270.8457 173.14844 C 271.36324 173.14844 271.78516 173.59844 271.78516 174.14844 C 271.78516 174.69844 271.08402 175.14844 270.22656 175.14844 C 269.36908 175.14844 268.94524 174.69844 269.28516 174.14844 C 269.62508 173.59844 270.32816 173.14844 270.8457 173.14844 z M 454.23242 192.18945 C 453.25774 192.13107 452.61706 192.52817 452.37305 193.39844 C 452.18028 194.08594 451.63177 196.44844 451.1543 198.64844 C 450.42547 202.00664 449.88404 202.65217 447.78516 202.67188 C 445.67757 202.6917 445.33486 203.1078 445.5957 205.32812 C 445.82184 207.25301 444.95551 208.90973 442.38086 211.48438 C 439.2725 214.59272 436.5613 220.14844 438.15234 220.14844 C 439.47908 220.14844 444.73175 216.42706 444.18164 215.87695 C 443.85357 215.54885 443.87084 214.81803 444.2207 214.25195 C 444.6268 213.59486 446.07988 213.90794 448.23633 215.11914 C 450.09413 216.16261 453.33931 217.1585 455.44922 217.33203 C 459.16377 217.63752 459.31462 217.79908 460.20312 222.39844 C 461.7593 230.45406 463.82848 228.02277 463.27148 218.79297 C 463.08413 215.68833 463.34724 213.14844 463.85742 213.14844 C 464.36759 213.14844 464.78519 213.85355 464.78516 214.7168 C 464.78516 215.77346 465.52041 216.18214 467.03516 215.96484 C 469.52391 215.6078 469.58521 214.66191 467.71484 205.43164 C 466.7944 200.88928 466.00451 199.6951 461.5918 196.18164 C 458.40826 193.64687 455.85689 192.28676 454.23242 192.18945 z M 236.71484 195.39062 C 238.51305 195.35412 237.66761 196.17089 234.16406 197.63477 C 232.17189 198.46715 229.82491 199.14844 228.94922 199.14844 C 225.95257 199.14844 229.97597 196.43504 234.03516 195.71875 C 235.22161 195.50939 236.11544 195.40279 236.71484 195.39062 z M 221.37305 210.26367 C 223.08109 210.26603 223.21533 211.31788 221.58594 212.94727 C 219.79449 214.73872 217.59034 214.40439 217.97266 212.39844 C 218.15611 211.43594 219.31499 210.50387 220.54688 210.32812 C 220.85461 210.28422 221.12904 210.26334 221.37305 210.26367 z M 408.30469 212.31445 C 408.5392 212.30735 408.77691 212.31577 409.01953 212.33984 C 413.03642 212.73846 413.35907 213.99904 410.52344 218.2168 C 407.57872 222.59684 404.11361 223.30162 403.21094 219.70508 C 402.26358 215.93048 404.78697 212.42106 408.30469 212.31445 z M 399.27148 213.14844 C 400.77596 213.14844 397.40345 217.29385 394.80664 218.63672 C 391.40071 220.39799 391.08573 220.44331 390.35547 219.26172 C 390.05406 218.77404 390.36543 217.9303 391.04688 217.38672 C 392.54201 216.19407 398.45225 213.14844 399.27148 213.14844 z M 375.02148 214.39453 C 376.50747 214.40301 377.6487 215.02021 379.37305 216.55469 L 382.28516 219.14844 L 379.48047 221.64844 C 376.25933 224.51855 374.54911 224.77387 372.78516 222.64844 C 372.10047 221.82344 370.96835 221.14844 370.26953 221.14844 C 368.37565 221.14844 367.52072 217.98319 369.01172 216.49219 C 369.72679 215.77711 371.69632 214.9162 373.38672 214.57812 C 373.99313 214.45684 374.52616 214.39171 375.02148 214.39453 z M 204.49609 222.45703 C 204.71753 222.51277 204.78516 222.86099 204.78516 223.52539 C 204.78516 224.41773 204.11016 225.14844 203.28516 225.14844 C 202.46016 225.14844 201.78516 224.97719 201.78516 224.76953 C 201.78516 224.56188 202.46016 223.83313 203.28516 223.14844 C 203.89941 222.63865 204.27466 222.4013 204.49609 222.45703 z M 491.64453 231.54492 C 491.24879 231.42789 491.0188 231.95794 490.65234 233.26562 C 490.28509 234.57613 489.93957 236.88594 489.88477 238.39844 C 489.80037 240.72684 490.18851 241.14844 492.41602 241.14844 C 494.87668 241.14844 495.00962 240.91563 494.46484 237.55859 C 494.14449 235.58451 493.30611 233.27471 492.60156 232.42578 C 492.17974 231.91752 491.88198 231.61514 491.64453 231.54492 z M 456.26953 242.38477 C 455.87911 242.39151 455.52151 242.83955 455.22461 243.78516 C 454.90295 244.8096 454.16892 246.5146 453.59375 247.57422 C 452.78136 249.07087 452.92984 249.78092 454.25781 250.75195 C 455.48064 251.64611 455.75513 252.66219 455.22461 254.32422 C 454.8167 255.60211 454.43927 258.07761 454.38477 259.82422 C 454.2911 262.8273 454.4482 262.96805 457.28516 262.42969 C 458.93516 262.11658 460.47081 261.70306 460.69727 261.50977 C 460.92373 261.31648 460.54213 257.35013 459.84961 252.69531 C 458.9003 246.31444 457.44081 242.36454 456.26953 242.38477 z M 187.14062 265.14844 C 187.64066 265.14844 187.8068 266.94844 187.51172 269.14844 C 187.10624 272.17151 187.31912 273.14844 188.38086 273.14844 C 189.15352 273.14844 189.78516 273.38836 189.78516 273.68164 C 189.78516 275.03606 184.76528 283.91925 183.32422 285.11523 C 182.43504 285.85318 180.77572 288.6238 179.63672 291.27148 C 177.0658 297.24774 174.28727 300.04549 175.36523 295.57227 C 175.75286 293.96372 176.88635 291.01593 177.88477 289.02148 C 179.12317 286.54732 179.5143 284.25022 179.11523 281.79102 C 178.71525 279.32624 179.04512 277.4019 180.1582 275.70312 C 181.05344 274.33682 181.78516 272.10339 181.78516 270.74023 C 181.78516 268.44339 184.94143 265.14844 187.14062 265.14844 z M 498.78516 348.14844 C 499.33516 348.14844 499.78516 349.27344 499.78516 350.64844 C 499.78516 353.2665 499.55547 353.58281 498.45312 352.48047 C 497.41575 351.4431 497.66799 348.14844 498.78516 348.14844 z M 389.72852 463.25781 C 390.95319 463.30958 392.35376 464.12359 393.83398 465.69922 L 396.23242 468.25195 L 394.41211 472.94922 C 393.41138 475.53301 392.21873 480.12344 391.76172 483.14844 C 390.64834 490.51792 387.40775 498.48342 383.49609 503.46484 C 379.20036 508.93537 364.50083 523.41623 358.28516 528.30078 C 355.53516 530.46185 351.62407 533.78697 349.59375 535.68945 C 345.96439 539.09028 343.4294 539.99724 342.36523 538.27539 C 341.8036 537.36666 349.23568 519.36133 350.85938 517.69727 C 351.36919 517.17477 351.78516 515.66211 351.78516 514.33594 C 351.78516 513.00977 353.51474 509.83844 355.62695 507.28711 C 357.73916 504.73578 362.11018 498.82344 365.3418 494.14844 C 368.57342 489.47344 374.43536 481.59844 378.36719 476.64844 C 382.29901 471.69844 386.04185 466.63594 386.68555 465.39844 C 387.45565 463.91793 388.50384 463.20604 389.72852 463.25781 z M 396.78516 561.14844 C 397.33516 561.14844 397.78516 561.5723 397.78516 562.08984 C 397.78516 562.60738 397.33516 563.30852 396.78516 563.64844 C 396.23516 563.98836 395.78516 563.56449 395.78516 562.70703 C 395.78516 561.84957 396.23516 561.14844 396.78516 561.14844 z M 302.57227 569.14844 C 305.47261 569.14844 312.64847 576.44314 315.68945 582.48438 C 317.9208 586.91719 317.08035 591.12756 313.45898 593.66406 C 310.07393 596.03504 308.71655 595.49123 302.80469 589.39844 C 297.00034 583.41644 292.40511 575.30254 293.38086 572.75977 C 294.02991 571.06837 298.91767 569.14844 302.57227 569.14844 z "
       id="path3541" />
    <path
       inkscape:connector-curvature="0"
       id="path3500"
       d="m 348.18386,635.10091 c -14.66794,-3.25312 -29.28786,-9.32501 -36.28458,-19.37862 -2.69138,-3.89091 -6.85544,-8.89292 -9.25348,-11.1156 -2.39803,-2.22268 -5.93506,-6.2136 -7.86006,-8.86871 -1.925,-2.65511 -5.1898,-7.13656 -7.25512,-9.95877 -2.06531,-2.82221 -4.01767,-5.94884 -4.33858,-6.94808 -0.53455,-1.66447 -1.51923,-1.76319 -11.74488,-1.17755 l -11.16142,0.63922 -7,-3.41747 c -8.47922,-4.13965 -14.77902,-10.54374 -14.31217,-14.54911 l 0.31217,-2.6783 -9.2718,-0.0575 c -10.94826,-0.0679 -13.31153,-1.33762 -11.40346,-6.12675 2.3065,-5.78921 -5.84443,-21.31575 -11.19008,-21.31575 -1.23882,0 -3.10892,-0.6263 -4.15578,-1.39179 -2.32036,-1.69669 -1.04253,-3.71788 3.55428,-5.62194 4.13573,-1.71308 3.88874,-4.91278 -1.15746,-14.99477 -5.10327,-10.19602 -6.55187,-11.67043 -12.31534,-12.53472 -4.94543,-0.74161 -9.56036,-3.68617 -9.56036,-6.09999 0,-0.82393 2.19766,-6.07876 4.88368,-11.67742 6.34688,-13.22922 8.44808,-23.34051 7.93395,-38.17937 l -0.38113,-11 -5.71825,-11.63274 c -3.14504,-6.398 -5.71825,-12.55894 -5.71825,-13.69098 0,-1.13203 -0.40015,-2.30555 -0.88922,-2.60781 -0.48907,-0.30227 -1.19821,-1.79132 -1.57587,-3.30902 -0.37766,-1.5177 -2.29056,-6.01107 -4.2509,-9.98527 -3.44601,-6.9861 -3.54125,-7.47967 -2.87084,-14.87788 0.65749,-7.25571 0.89783,-7.84269 4.64012,-11.33232 2.17069,-2.02413 3.94671,-4.11402 3.94671,-4.64419 0,-1.89937 -16.61836,-17.20795 -22.5,-20.72665 -8.95966,-5.36013 -14.36554,-13.29374 -14.44079,-21.19314 -0.0411,-4.30832 1.16045,-5.73396 4.19136,-4.97325 2.05967,0.51695 2.69676,0.21455 3.25526,-1.54513 0.38192,-1.20332 1.74408,-3.73465 3.02701,-5.62516 1.28294,-1.89051 3.125,-5.5566 4.09347,-8.14687 2.24429,-6.00258 4.44975,-9.13832 6.45528,-9.17817 2.66854,-0.053 8.01708,-9.48729 8.8474,-15.6059 0.41175,-3.03422 1.60867,-6.59519 2.65982,-7.91326 6.79449,-8.51977 11.41119,-14.83576 11.41119,-15.61134 0,-1.5439 -2.92804,-0.98695 -4.46386,0.84908 -5.86934,7.01663 -11.50388,12.61559 -12.09793,12.02154 -1.24801,-1.24801 1.56015,-6.36248 7.06318,-12.86408 5.37406,-6.34923 5.89063,-7.90746 2.62138,-7.90746 -2.59099,0 -10.12277,6.13493 -10.12277,8.24538 0,0.99957 -0.69441,2.08386 -1.54313,2.40954 -2.72903,1.04723 -2.77372,-0.48413 -0.11272,-3.86269 1.42615,-1.81072 4.06965,-5.22362 5.87443,-7.58421 6.25935,-8.18701 10.0213,-12.20802 11.42146,-12.20802 0.77403,0 4.28485,-2.84935 7.80184,-6.33188 3.58953,-3.55437 7.81798,-6.74012 9.63959,-7.26255 2.53486,-0.72699 3.48292,-1.72168 4.33181,-4.54481 1.10261,-3.66699 6.72604,-10.86076 8.48994,-10.86076 0.53037,0 3.76787,-2.25 7.19443,-5 3.42657,-2.75 7.058,-5 8.06986,-5 1.01186,0 3.51894,-0.9 5.57131,-2 4.09052,-2.19239 6.80706,-2.54379 7.75891,-1.00367 0.71699,1.16012 5.44523,-1.01775 7.44755,-3.43039 0.71478,-0.86127 2.09636,-1.56594 3.07018,-1.56594 2.15661,0 3.18514,-2.35255 2.39862,-5.48632 -0.32128,-1.28007 -0.072,-3.28439 0.554,-4.45404 1.01609,-1.89858 0.80586,-2.24249 -1.96041,-3.20681 -1.70421,-0.59409 -2.93111,-1.5825 -2.72646,-2.19647 0.38413,-1.15239 6.84531,-3.81079 14.71879,-6.05594 2.475,-0.70575 7.425,-3.14779 11,-5.42675 6.6707,-4.25239 13.04679,-7.46021 13.64312,-6.86388 0.18483,0.18483 0.60725,1.69207 0.93873,3.34944 0.59625,2.98127 -0.90699,5.61582 -3.7439,6.56145 -0.67424,0.22475 -0.91431,1.13795 -0.54924,2.08929 0.49827,1.29847 1.9017,1.69003 6.05746,1.69003 3.6572,0 5.82406,0.50019 6.69073,1.54446 1.49616,1.80277 5.50017,1.23835 10.9631,-1.54539 7.03629,-3.58548 12.1553,-4.20116 37.76079,-4.54159 l 25.34258,-0.33693 3.16416,2.82718 c 2.72171,2.43185 2.97831,3.05113 1.83501,4.42872 -0.73103,0.88084 -1.69707,1.37414 -2.14675,1.09623 -0.44968,-0.27792 -1.08103,-0.0791 -1.403,0.44191 -0.32198,0.52097 -0.12126,1.23408 0.44605,1.58469 0.5673,0.35062 1.71307,2.26881 2.54615,4.26265 1.35604,3.24545 1.35445,3.71484 -0.0152,4.48131 -2.76195,1.54567 -1.82425,6.39569 1.97016,10.19009 3.97877,3.97877 4.37127,6.64357 1.51363,10.27648 -1.09251,1.38889 -1.72979,2.94044 -1.41618,3.44787 0.31361,0.50743 -0.59252,1.8372 -2.01362,2.95504 -3.67181,2.88824 -3.33863,5.48307 0.88292,6.87631 3.29344,1.08693 3.64507,0.96582 7.03334,-2.42245 1.96162,-1.96162 3.96954,-3.56658 4.46204,-3.56658 0.49251,0 2.43215,-1.4625 4.31031,-3.25 2.34552,-2.2323 3.60951,-4.50256 4.03649,-7.25 0.3483,-2.24123 1.38816,-4.43969 2.36495,-5 0.95882,-0.55 2.87465,-2.2375 4.2574,-3.75 1.9078,-2.08682 3.44086,-2.75 6.35715,-2.75 2.11368,0 4.73047,-0.47493 5.81508,-1.0554 2.37473,-1.27089 5.89654,-0.34189 5.89654,1.5554 0,0.75087 -0.8516,1.63551 -1.89245,1.96587 -2.52339,0.80089 -4.44909,5.70261 -3.65705,9.30874 0.4427,2.0156 0.16493,3.29966 -0.90604,4.18849 -3.32541,2.75985 -0.28734,5.0369 6.7203,5.0369 1.79162,0 4.61841,2.47254 4.70344,4.114 0.0175,0.3377 -1.8807,1.9127 -4.2182,3.5 -2.3375,1.5873 -4.77186,3.55503 -5.40968,4.37272 -1.01749,1.30444 -1.39498,1.27379 -3.07874,-0.25 -2.56612,-2.3223 -3.61349,-2.19044 -2.94377,0.3706 0.66789,2.55402 -0.83054,6.81589 -2.93827,8.3571 -1.38006,1.00913 -1.35313,1.52311 0.25667,4.8989 1.63816,3.43524 1.66188,4.01066 0.2661,6.45409 -0.84283,1.47542 -2.24983,2.55973 -3.12668,2.40958 -1.74905,-0.29952 -6.03515,4.49444 -5.48743,6.13762 0.18817,0.56449 1.64754,1.37547 3.24305,1.80218 3.5975,0.96212 6.22848,-1.25557 10.64275,-8.97091 3.53186,-6.17305 4.74653,-6.88565 8.84396,-5.18844 3.15262,1.30586 4.00298,4.29365 1.62026,5.69287 -0.74898,0.43983 -2.30638,2.95462 -3.46091,5.58843 -1.70608,3.8921 -1.88915,5.2496 -0.9777,7.25 2.21258,4.8561 6.27291,2.3143 8.9189,-5.58331 0.63673,-1.90049 2.26025,-4.93995 3.60781,-6.75436 1.34756,-1.81441 2.18702,-3.98451 1.86548,-4.82244 -0.63882,-1.66473 0.96779,-5.37863 2.32675,-5.37863 1.54699,0 1.89203,3.87787 0.50748,5.70352 -0.74933,0.98807 -1.37673,3.93398 -1.39423,6.54648 -0.0227,3.38633 -0.60598,5.32418 -2.0318,6.75 -2.14322,2.14322 -2.6163,4 -1.01913,4 0.58879,0 0.73163,1.81841 0.35734,4.54917 -0.40634,2.96453 -0.16379,5.40822 0.6963,7.01532 1.1474,2.14392 0.97005,3.70446 -1.35733,11.9439 -2.84417,10.06892 -3.22378,13.03576 -1.78196,13.92685 0.96519,0.59652 2.10478,-1.64353 2.10478,-4.13729 0,-0.84617 1.2375,-3.49293 2.75,-5.8817 2.04967,-3.23716 3.39939,-4.35252 5.3,-4.37974 1.4025,-0.0201 3.0825,-0.56901 3.73333,-1.21984 1.86169,-1.86169 2.66643,-0.0992 1.312,2.87344 -0.83554,1.83381 -1.0141,4.99774 -0.55721,9.87336 0.44609,4.76049 0.28178,7.90453 -0.4883,9.34343 -0.63834,1.19276 -0.88036,3.05165 -0.53783,4.13087 1.07906,3.39982 4.12064,2.21244 7.93583,-3.09802 3.22892,-4.49443 3.99418,-5.02557 6.84381,-4.75 2.84528,0.27514 3.24514,0.69552 3.53324,3.71461 0.18182,1.90527 -0.80896,6.59819 -2.25,10.65737 -2.91543,8.21231 -3.07427,9.53887 -1.34882,11.26432 0.96807,0.96807 1.61487,0.74713 3.07389,-1.05 1.34331,-1.65461 1.99376,-1.91428 2.38228,-0.95105 0.29395,0.72875 2.0607,2.85125 3.92611,4.71667 1.86542,1.86541 3.39167,3.88808 3.39167,4.49482 0,0.60674 1.33224,3.0395 2.96053,5.40614 1.62829,2.36664 2.67829,4.58522 2.33333,4.93018 -0.34496,0.34495 -0.15844,0.62719 0.41447,0.62719 3.03324,0 2.10395,-12.00547 -1.57387,-20.33291 -2.29497,-5.19633 -2.58224,-10.4044 -1.22269,-22.16709 0.45722,-3.95578 0.42333,-7.49337 -0.0779,-8.13447 -1.5175,-1.94091 -3.5546,-11.19936 -2.75043,-12.50052 1.57933,-2.55541 3.68259,1.12575 4.38367,7.67241 0.39893,3.72513 1.35954,7.14636 2.25914,8.04596 0.86079,0.8608 1.68104,2.62145 1.82277,3.91257 0.59729,5.44111 1.75157,8.61892 4.51773,12.43748 2.97689,4.10948 4.15456,7.68787 1.73326,5.26657 -2.15781,-2.15781 -2.8,-1.27758 -2.8,3.83785 0,4.84151 0.10208,5.02663 2.61934,4.75 2.36076,-0.25943 2.74117,0.18419 3.85343,4.49372 1.4177,5.493 0.22486,7.29476 -2.4669,3.72622 -1.35329,-1.7941 -1.89845,-1.99062 -2.55868,-0.92235 -1.64316,2.6587 -1.058,10.01928 1.07787,13.55828 1.97115,3.26605 2.16451,3.35355 3.65172,1.65247 0.8637,-0.9879 2.1041,-3.45927 2.75643,-5.49192 1.5615,-4.86554 3.29879,-4.08585 5.87061,2.63473 1.7944,4.68906 1.91983,6.22609 1.068,13.08739 -1.61243,12.98766 -3.94315,20.93658 -8.20221,27.97361 -0.66576,1.1 -2.50041,4.00119 -4.07701,6.44709 -1.57659,2.44591 -3.95679,7.78523 -5.28934,11.86516 -3.24647,9.93988 -5.14806,13.27314 -12.53543,21.97311 -3.44731,4.05983 -9.11137,10.71896 -12.5868,14.79807 -3.47543,4.07911 -6.94057,7.41657 -7.70031,7.41657 -0.75974,0 -1.81995,0.78375 -2.35603,1.74167 -1.66137,2.9687 -2.52747,0.4591 -1.20533,-3.49252 1.49604,-4.47135 2.82611,-16.32189 3.67567,-32.74915 0.59545,-11.51358 0.52407,-12.14091 -1.76101,-15.4762 -4.89591,-7.14608 -12.77636,-10.07163 -20.84046,-7.73686 -4.70766,1.363 -6.13185,3.11502 -3.28445,4.0405 0.98499,0.32015 4.94089,2.57042 8.79089,5.0006 l 7,4.41851 -0.34996,4.2695 c -0.31981,3.90174 -0.17135,4.22279 1.72355,3.72726 1.70112,-0.44486 2.17941,0.0234 2.6632,2.60723 0.32433,1.7322 0.13106,5.84946 -0.42949,9.14946 -0.56054,3.3 -1.68911,9.99455 -2.50791,14.87678 -2.05017,12.22431 -5.39314,18.58881 -14.51959,27.64303 -5.69775,5.65266 -8.86953,7.96938 -12.77407,9.33039 -5.89831,2.05599 -8.22618,4.12935 -6.53502,5.82051 0.65148,0.65148 0.74757,1.73475 0.24018,2.70762 -5.78894,11.0996 -6.01104,11.9082 -6.00249,21.85326 0.008,9.66187 -0.68082,13.80498 -5.6999,34.26841 -4.43811,18.09472 -5.3896,23.35427 -4.75098,26.26188 0.36338,1.65447 0.11105,3.43255 -0.61051,4.30197 -1.02047,1.22958 -0.93734,1.36967 0.48815,0.82266 0.94493,-0.3626 2.12244,-1.72291 2.61669,-3.02289 0.49426,-1.29999 1.30227,-2.36362 1.79559,-2.36362 1.58151,0 2.24357,7.9642 1.00556,12.09631 -0.97986,3.27047 -0.92436,4.54162 0.31384,7.18837 1.49243,3.19018 1.19336,13.10015 -0.59631,19.7586 -1.00299,3.73165 2.39686,7.42314 9.20223,9.99163 4.24564,1.60238 9.1263,2.33982 18.86656,2.85062 12.08043,0.63353 13.45477,0.90767 17.05375,3.40176 2.15294,1.49199 4.36464,2.71271 4.9149,2.71271 0.55026,0 3.06616,-1.31002 5.59089,-2.91116 6.62209,-4.1996 16.71504,-16.53839 21.47015,-26.24758 2.24684,-4.58769 5.0255,-9.46626 6.17481,-10.84126 4.05018,-4.84554 2.38402,1.00936 -2.84575,10 -2.71941,4.675 -6.36194,10.975 -8.09451,14 -2.03654,3.55571 -5.49272,7.35461 -9.77685,10.74631 -3.64469,2.88547 -9.77671,7.76185 -13.62671,10.83639 -3.85,3.07454 -8.35,6.21289 -10,6.97411 -7.24667,3.34324 -25.22133,9.48191 -30.37024,10.37198 -6.30386,1.08973 -55.81119,1.10852 -63.73165,0.0242 z m -34.7239,-41.43736 c 3.62137,-2.5365 4.4609,-6.74574 2.22955,-11.17855 -3.04098,-6.04123 -10.21617,-13.33708 -13.11651,-13.33708 -3.6546,0 -8.54306,1.92124 -9.19211,3.61264 -0.97575,2.54277 3.61938,10.65536 9.42373,16.63736 5.91186,6.09279 7.27029,6.63661 10.65534,4.26563 z m 36.13429,-57.97468 c 2.03032,-1.90248 5.94149,-5.22721 8.69149,-7.38828 6.21567,-4.88455 20.91503,-19.36531 25.21076,-24.83584 3.91166,-4.98142 7.15264,-12.94735 8.26602,-20.31683 0.45701,-3.025 1.6497,-7.61401 2.65043,-10.1978 l 1.81949,-4.69781 -2.39767,-2.55219 c -2.96044,-3.15126 -5.60882,-3.26321 -7.14903,-0.3022 -0.6437,1.2375 -4.38731,6.3 -8.31913,11.25 -3.93183,4.95 -9.79282,12.825 -13.02444,17.5 -3.23162,4.675 -7.60384,10.58745 -9.71605,13.13878 -2.11221,2.55133 -3.84038,5.72383 -3.84038,7.05 0,1.32617 -0.41713,2.83872 -0.92695,3.36122 -1.6237,1.66406 -9.05605,19.6685 -8.49442,20.57723 1.06417,1.72185 3.60052,0.81455 7.22988,-2.58628 z M 179.63745,291.27099 c 1.139,-2.64768 2.79843,-5.41775 3.68761,-6.1557 1.44106,-1.19598 6.46068,-10.07971 6.46068,-11.43413 0,-0.29328 -0.63218,-0.53324 -1.40484,-0.53324 -1.06174,0 -1.27381,-0.97693 -0.86833,-4 0.29508,-2.2 0.12738,-4 -0.37265,-4 -2.1992,0 -5.35418,3.29505 -5.35418,5.59189 0,1.36316 -0.73246,3.59636 -1.6277,4.96266 -1.11308,1.69877 -1.44277,3.62376 -1.04279,6.08854 0.39907,2.4592 0.008,4.75647 -1.2304,7.23063 -0.99842,1.99445 -2.13246,4.94236 -2.52009,6.55091 -1.07796,4.47322 1.70177,1.6747 4.27269,-4.30156 z m 25.14829,-67.74551 c 0,-1.3288 -0.27149,-1.39713 -1.5,-0.37756 -0.825,0.68469 -1.5,1.41479 -1.5,1.62244 0,0.20766 0.675,0.37756 1.5,0.37756 0.825,0 1.5,-0.7301 1.5,-1.62244 z m 174.69424,-1.87756 2.80576,-2.5 -2.91315,-2.59237 c -2.29913,-2.04597 -3.56096,-2.46281 -5.98661,-1.97768 -1.6904,0.33808 -3.65852,1.19975 -4.37359,1.91483 -1.491,1.491 -0.63599,4.65522 1.25789,4.65522 0.69882,0 1.83077,0.675 2.51546,1.5 1.76395,2.12543 3.4731,1.87011 6.69424,-1 z m 31.04417,-3.43168 c 2.83563,-4.21776 2.51303,-5.47847 -1.50386,-5.87709 -3.88197,-0.38523 -6.81996,3.34016 -5.80944,7.3664 0.90267,3.59654 4.36858,2.89073 7.3133,-1.48931 z m -15.71839,0.42133 c 2.59681,-1.34287 5.96998,-5.48965 4.4655,-5.48965 -0.81923,0 -6.72938,3.04564 -8.22451,4.23829 -0.68144,0.54358 -0.99239,1.38734 -0.69098,1.87502 0.73026,1.18159 1.04406,1.13761 4.44999,-0.62366 z m -173.22002,-5.68965 c 1.86216,-1.86216 1.42211,-2.97079 -1.03978,-2.61955 -1.23189,0.17575 -2.38988,1.10705 -2.57333,2.06955 -0.38232,2.00595 1.82166,2.34145 3.61311,0.55 z m 12.57788,-15.31342 c 4.6714,-1.95184 4.61792,-2.75293 -0.12788,-1.91547 -4.05919,0.71629 -8.08306,3.42889 -5.08641,3.42889 0.87569,0 3.22212,-0.68104 5.21429,-1.51342 z m 37.62212,-23.48658 c 0,-0.55 -0.42344,-1 -0.94098,-1 -0.51754,0 -1.2191,0.45 -1.55902,1 -0.33992,0.55 0.0835,1 0.94098,1 0.85746,0 1.55902,-0.45 1.55902,-1 z m 12,-10.0452 c 0,-0.44657 -0.7472,-1.55914 -1.66044,-2.47238 -1.54171,-1.54171 -1.72645,-1.54247 -2.58368,-0.0107 -1.36908,2.44642 -0.22109,4.46269 2.18295,3.83402 1.13364,-0.29645 2.06117,-0.90438 2.06117,-1.35094 z m 170.59905,95.72085 c 0.0545,-1.74661 0.43279,-4.2212 0.8407,-5.49909 0.53052,-1.66203 0.25502,-2.67926 -0.96781,-3.57342 -1.32797,-0.97103 -1.47608,-1.67991 -0.66369,-3.17656 0.57517,-1.05962 1.30893,-2.76476 1.63059,-3.7892 1.18761,-3.78243 3.35977,0.40133 4.62552,8.90916 0.69252,4.65482 1.07385,8.62145 0.84739,8.81474 -0.22646,0.19329 -1.76175,0.60762 -3.41175,0.92073 -2.83696,0.53836 -2.99462,0.39672 -2.90095,-2.60636 z m 35.50063,-21.42565 c 0.0548,-1.5125 0.40015,-3.82223 0.7674,-5.13273 0.58633,-2.09229 0.82386,-2.19459 1.94871,-0.83923 0.70455,0.84893 1.54309,3.15865 1.86344,5.13273 0.54478,3.35704 0.41227,3.58923 -2.04839,3.58923 -2.22751,0 -2.61556,-0.4216 -2.53116,-2.75 z m -29.68208,-16 c -0.8885,-4.59936 -1.03926,-4.76001 -4.75381,-5.0655 -2.10991,-0.17353 -5.35623,-1.16925 -7.21403,-2.21272 -2.15645,-1.2112 -3.60782,-1.52505 -4.01392,-0.86796 -0.34986,0.56608 -0.36767,1.29769 -0.0396,1.62579 0.55011,0.55011 -4.70211,4.27039 -6.02885,4.27039 -1.59104,0 1.12024,-5.55433 4.2286,-8.66268 2.57465,-2.57465 3.43953,-4.23168 3.21339,-6.15656 -0.26084,-2.22033 0.083,-2.63743 2.19059,-2.65725 2.09888,-0.0197 2.63929,-0.66531 3.36812,-4.02351 0.47747,-2.2 1.02585,-4.5625 1.21862,-5.25 0.65071,-2.32071 4.12519,-1.27135 9.21885,2.78428 4.41271,3.51346 5.20329,4.70764 6.12373,9.25 1.87037,9.23027 1.80943,10.175 -0.67932,10.53204 -1.51475,0.2173 -2.25,-0.19011 -2.25,-1.24677 3e-5,-0.86325 -0.41739,-1.56955 -0.92756,-1.56955 -0.51018,0 -0.7743,2.54015 -0.58695,5.64479 0.557,9.2298 -1.51169,11.66083 -3.06786,3.60521 z"
       style="fill:#4c2c24"
       sodipodi:nodetypes="ccssssscsscsssssssssscsscsssssscsssssssssssssssssssssssssssscsssssssssssscsscccscsssssssssssscssssscsssssssscsssssssssssssssssssssssssssssssssssscssscssssssssssssssssssssssssssssscssssssssscsssssssssssssssssssssscsssssssssssscsssssssssssssssssscsssssssscssssssssscssscssssssssssssssssssscsssssssscssssssssscssscssssscss" />
    <path
       inkscape:connector-curvature="0"
       id="path3498"
       d="m 406.78574,633.49126 c -0.825,-0.33237 -2.175,-1.16016 -3,-1.83952 -0.825,-0.67936 -2.77144,-1.53773 -4.32543,-1.90749 -7.06759,-1.68169 -32.46315,-3.94578 -45.0617,-4.0174 l -13.88713,-0.0789 -0.9721,2.78272 c -1.06633,3.05246 -1.76633,3.04808 -9.25364,-0.0579 -7.68036,-3.1861 -13.55374,-7.44314 -16.65593,-12.07226 -1.71483,-2.55889 -5.91305,-7.57752 -9.32937,-11.15252 -3.41633,-3.575 -7.61063,-8.83823 -9.32068,-11.69608 -3.0009,-5.01512 -3.03858,-5.21848 -1.08204,-5.83946 1.51926,-0.48219 3.48439,0.62409 7.84353,4.41555 6.50503,5.6579 10.17955,7.66588 12.44054,6.79825 2.35464,-0.90363 7.60395,-8.70302 7.60395,-11.29795 0,-2.42332 -1.883,-6.20945 -6.35102,-12.76993 -3.22716,-4.7385 -3.27196,-5.67824 -0.39898,-8.36952 2.52244,-2.36291 5.96816,-3.83314 12.3195,-5.25651 2.36866,-0.53082 5.52522,-2.09447 7.0146,-3.47478 1.48937,-1.3803 3.90224,-2.50964 5.36192,-2.50964 1.45969,0 3.10918,-0.4552 3.66553,-1.01155 0.55636,-0.55636 2.84538,-2.01886 5.08672,-3.25 7.69152,-4.22487 13.68678,-8.24297 17.76311,-11.90507 2.24475,-2.01664 5.92076,-4.4026 8.16891,-5.30213 2.24815,-0.89953 4.66886,-2.72169 5.37934,-4.04925 0.71049,-1.32756 1.74224,-2.13535 2.29279,-1.7951 0.55054,0.34026 1.52302,-0.0953 2.16105,-0.96783 1.38303,-1.89141 5.57394,-3.04675 7.17873,-1.97902 1.26968,0.84476 2.05134,8.91532 1.09057,11.25995 -0.88659,2.16361 -2.95244,12.8987 -3.27146,17 -0.53955,6.93657 -3.44691,23.55341 -4.54908,26 -1.83846,4.08104 -4.0131,13.23669 -3.29968,13.89231 0.36369,0.33423 0.87629,0.003 1.13911,-0.73658 0.86149,-2.42349 9.69062,-13.46243 12.29784,-15.37581 4.82555,-3.54138 7.53748,-0.0212 7.10308,9.22008 -0.11634,2.475 -0.31077,6.27063 -0.43206,8.43473 -0.19977,3.5645 0.18353,4.24427 4.07361,7.22437 5.32358,4.07827 11.23931,5.87708 24.43685,7.43059 8.4352,0.99292 11.04619,1.72411 14.62103,4.09456 2.87009,1.90313 5.08343,2.68897 6.5,2.3078 1.46566,-0.39437 0.60406,0.83376 -2.71232,3.86616 -4.07711,3.72801 -7.04524,5.20806 -18.41949,9.1849 -13.16493,4.60292 -20.13394,6.0436 -23.2202,4.80023 z m 63.92431,-33.70616 c 1.33338,-1.45045 2.62576,-2.63718 2.87198,-2.63718 0.98698,0 -2.56411,4.42059 -3.88187,4.83237 -0.77793,0.24309 -0.32348,-0.74475 1.00989,-2.19519 z M 223.53574,555.11804 c -1.11231,-0.67978 -1.75,-2.30506 -1.75,-4.46021 0,-1.86489 -1.16425,-6.61829 -2.58722,-10.56309 -3.48358,-9.65731 -2.78008,-10.24052 7.86145,-6.51723 10.90595,3.81582 12.931,4.89448 17.69266,9.42413 5.92855,5.63969 5.47062,6.58678 -4.68215,9.68357 -10.77641,3.28701 -14.29094,3.80412 -16.53474,2.43283 z m 70.75,-9.52468 c -0.8286,-1.30524 -1.74955,-1.40618 -5.37313,-0.58897 -5.18152,1.16858 -6.98491,0.64712 -8.12408,-2.34913 -0.98942,-2.60238 -6.34006,-3.84459 -10.91207,-2.53336 -3.35842,0.96318 -4.5729,0.31193 -2.9854,-1.60089 0.88626,-1.06787 -0.18143,-1.20732 -5.75867,-0.75214 -10.05892,0.82096 -10.52006,0.73803 -16.94824,-3.04787 -10.81193,-6.36772 -12.23271,-6.80414 -19.97029,-6.13423 -6.20759,0.53744 -7.28799,0.37347 -8.84013,-1.34163 -1.15592,-1.27727 -1.53478,-2.68951 -1.09405,-4.07814 0.46827,-1.47537 -0.57331,-4.52215 -3.40986,-9.97436 -2.24625,-4.31756 -4.08408,-8.7666 -4.08408,-9.88674 0,-1.75155 0.57986,-2.01013 4.14244,-1.84731 2.27834,0.10413 4.31508,-0.29589 4.52609,-0.88893 0.50413,-1.41688 -11.57955,-7.34061 -19.06046,-9.34393 -8.43734,-2.25945 -8.90031,-3.54843 -4.43324,-12.34298 2.02116,-3.97916 4.81797,-10.60983 6.21513,-14.73483 2.47034,-7.29347 2.51506,-7.89672 1.62392,-21.90684 -0.55117,-8.66532 -0.55346,-15.08495 -0.006,-16.10838 3.10938,-5.80993 12.74216,-6.65278 22.2305,-1.94512 l 6.12647,3.03966 2.00498,-2.00498 c 1.75417,-1.75416 1.84245,-2.30867 0.70572,-4.43266 -1.22098,-2.28144 -8.64971,-6.62994 -13.95403,-8.16817 -1.30802,-0.37932 -5.36275,-3.69203 -9.01051,-7.36157 -7.82574,-7.87245 -14.11067,-18.89842 -14.11246,-24.75817 -6.5e-4,-2.11958 -0.71684,-7.22877 -1.59154,-11.35377 -0.8747,-4.125 -1.82099,-9.1829 -2.10288,-11.23977 -0.41941,-3.06036 -1.69039,-4.78027 -6.99606,-9.4672 -3.56594,-3.15009 -7.37252,-6.35011 -8.45905,-7.11115 -1.08654,-0.76104 -2.36462,-2.40711 -2.84018,-3.65793 -0.65827,-1.73137 -1.44801,-2.1627 -3.30855,-1.80704 -4.00633,0.76591 -13.70029,-5.74908 -13.70029,-9.20769 0,-0.77541 -0.58966,-1.7697 -1.31036,-2.20953 -2.25585,-1.37671 -4.68964,-5.63919 -4.68964,-8.21333 0,-2.32232 0.0803,-2.35877 1.35539,-0.61501 1.97828,2.70545 4.08458,1.34124 5.56663,-3.6054 0.71553,-2.38823 2.37579,-5.6196 3.68947,-7.18082 1.31368,-1.56122 2.38851,-3.3238 2.38851,-3.91684 0,-0.59305 0.8694,-0.29147 1.932,0.67017 1.86658,1.68923 2.00204,1.61116 4,-2.30517 1.1374,-2.22949 2.068,-5.02364 2.068,-6.20924 0,-3.42325 3.28688,-11.76586 5.79958,-14.72025 l 2.29959,-2.7038 -0.66082,2.5 c -0.36345,1.375 -1.36163,4.01434 -2.21819,5.8652 -1.16135,2.50947 -1.28305,3.80446 -0.47857,5.09263 0.8183,1.3103 0.60907,2.77663 -0.86644,6.07229 -1.06988,2.38966 -1.69273,5.00288 -1.3841,5.80716 0.82189,2.1418 4.58158,-1.67103 7.49603,-7.60196 4.0033,-8.14678 10.27263,-16.11595 12.72774,-16.17871 3.40737,-0.0871 4.58847,-3.40018 3.80853,-10.68321 -0.3754,-3.50537 -1.10529,-6.3734 -1.622,-6.3734 -0.5167,0 -0.6571,-1.125 -0.31199,-2.5 0.90491,-3.60548 -0.96543,-3.07375 -3.09454,0.87975 -1.1214,2.08232 -3.48516,4.1887 -6.15747,5.48701 l -4.33735,2.10725 0,-2.14038 c 0,-1.17721 2.1375,-4.45562 4.75,-7.28535 2.6125,-2.82972 5.53801,-6.4732 6.50114,-8.09662 0.96312,-1.62341 2.70443,-4.43536 3.86956,-6.24876 1.16513,-1.81341 1.87816,-3.53737 1.58451,-3.83102 -0.62983,-0.62983 -4.59065,1.3707 -6.506,3.28606 -1.86132,1.86132 -3.78211,1.74933 -2.22274,-0.12959 1.47472,-1.77693 3.11489,-8.52835 2.07186,-8.52835 -0.40758,0 -2.16565,0.71068 -3.90682,1.57929 -1.74117,0.86861 -3.64211,1.42051 -4.22431,1.22644 -1.75163,-0.58387 4.47695,-7.53316 10.21343,-11.39523 11.91737,-8.02334 14.33924,-7.85424 6.79559,0.47449 -2.68257,2.96174 -4.63229,5.78158 -4.33271,6.26631 0.29958,0.48473 1.07609,0.5553 1.72559,0.15683 4.99845,-3.0666 9.70715,-6.69414 12.62707,-9.72776 1.89539,-1.9692 4.05721,-3.58037 4.80405,-3.58037 1.56007,0 12.07691,-5.59972 14.11129,-7.51358 1.13752,-1.07015 1.01414,-1.39111 -0.75,-1.95103 -2.68719,-0.85288 -2.65901,-1.7026 0.13849,-4.17646 3.43665,-3.03906 6.90152,-4.99801 13.79326,-7.79838 6.72128,-2.7311 8.10293,-2.62553 6.16889,0.47136 -1.55207,2.48525 -1.52516,2.96809 0.16541,2.96809 1.9095,0 3.23165,-1.92278 3.95791,-5.75594 l 0.6169,-3.25593 -5.4601,0.64172 c -3.58133,0.42092 -5.94393,0.24019 -6.8662,-0.52523 -1.09357,-0.90758 -2.15292,-0.73831 -4.76609,0.76153 -1.84799,1.06067 -4.44693,2.25365 -5.77543,2.65107 -1.32849,0.39742 -3.51453,2.02877 -4.85786,3.62522 -2.82721,3.35995 -5.86141,5.20135 -7.20368,4.37178 -1.40719,-0.86969 -0.10414,-3.3537 2.1315,-4.06326 1.08335,-0.34384 4.86358,-2.81551 8.4005,-5.49259 7.04944,-5.33571 7.92227,-5.6984 11.1064,-4.61515 2.44049,0.83026 19.27024,-6.16568 23.00351,-9.5623 1.41046,-1.28327 2.87312,-1.74493 4.19705,-1.32473 3.34017,1.06013 16.47629,-5.13811 15.84834,-7.478 -0.11567,-0.43101 1.52342,-1.97024 3.64242,-3.42051 3.17027,-2.16975 5.29594,-2.71814 12,-3.0958 10.11053,-0.56956 14.30305,-1.24251 18.14727,-2.91287 8.32833,-3.61875 10.31735,-4.02001 18.78716,-3.79011 6.71478,0.18226 9.36917,-0.14284 11.255,-1.37848 2.01364,-1.31939 2.74897,-1.38369 3.99527,-0.34935 1.23361,1.0238 2.27252,1.02174 5.40078,-0.0107 4.21027,-1.38951 8.91435,-0.86921 13.4261,1.48502 1.57537,0.82202 3.92929,1.49459 5.23094,1.49459 1.74941,0 2.54493,0.71722 3.05023,2.75 0.37597,1.5125 1.62136,4.02428 2.76753,5.58172 2.02572,2.7526 2.03171,2.86993 0.21423,4.1989 -2.39245,1.7494 -1.57116,5.47478 2.29494,10.40991 4.78835,6.11239 5.3789,7.79152 3.62232,10.29939 -0.84947,1.2128 -1.5445,2.93522 -1.5445,3.8276 0,0.89238 -0.87462,2.41403 -1.94361,3.38145 -1.06898,0.96741 -2.08148,2.94581 -2.25,4.39643 -0.37532,3.23083 -3.39457,4.07308 -5.3501,1.49247 -0.76597,-1.01083 -1.40699,-1.34511 -1.42449,-0.74286 -0.0175,0.60226 0.8682,1.9095 1.9682,2.90499 1.1,0.99549 2.00689,2.30273 2.01531,2.90499 0.008,0.60225 0.4012,1.70397 0.87283,2.44826 1.08628,1.71428 5.11186,-0.1666 5.11186,-2.38841 0,-0.90582 0.97914,-1.46482 2.56574,-1.46482 3.1794,0 6.43426,-1.66484 6.43426,-3.29107 0,-0.67139 1.33631,-1.81222 2.96958,-2.53517 1.63327,-0.72296 5.07985,-3.30781 7.65907,-5.74411 2.76133,-2.60833 5.6395,-4.42965 7.00001,-4.42965 1.27078,0 3.92822,-0.90862 5.90543,-2.01915 1.97721,-1.11053 4.0159,-1.75897 4.53042,-1.44098 1.42435,0.88029 1.11613,3.17684 -0.51012,3.80088 -1.05057,0.40315 -1.28708,1.53164 -0.86549,4.12962 0.39901,2.45876 0.10428,4.11418 -0.944,5.30225 -1.11549,1.26426 -1.42498,3.37568 -1.15434,7.87536 0.33495,5.56898 0.147,6.29396 -1.99577,7.69796 -2.815,1.84445 -3.92875,1.1466 -2.4826,-1.55556 1.62838,-3.04266 0.34681,-4.79038 -3.51271,-4.79038 -2.70673,0 -3.92995,0.65536 -5.59948,3 -2.45203,3.44355 -5.88424,4.38876 -3.79633,1.04548 2.00147,-3.20486 0.0102,-3.61936 -4.81601,-1.00253 -5.49258,2.97813 -7.0838,4.66091 -5.70812,6.03659 0.65971,0.65971 1.91364,0.64543 3.72272,-0.0424 4.75305,-1.80711 7.54693,-1.30099 8.63639,1.5645 0.72637,1.91049 1.45036,2.42321 2.72525,1.92996 3.34632,-1.29466 6.99807,-1.72524 7.48348,-0.88236 0.26947,0.46791 0.79444,2.53824 1.16659,4.60074 0.49499,2.74322 0.3289,3.76118 -0.61866,3.79163 -0.71242,0.0229 -3.04605,1.58775 -5.18584,3.47745 -3.1616,2.79209 -3.58316,3.55379 -2.25,4.06537 0.99759,0.38281 1.64053,1.76332 1.64053,3.52254 0,2.88502 1.30081,3.83334 2.53001,1.84445 0.45051,-0.72893 1.04013,-0.72316 1.9343,0.0189 0.97332,0.80778 2.65165,-0.33603 6.8985,-4.70144 3.08674,-3.17292 5.61787,-6.4867 5.62472,-7.36395 0.0119,-1.52699 2.97744,-4.90499 4.30603,-4.90499 0.34984,0 1.08929,0.84685 1.64323,1.8819 0.75401,1.40887 0.38379,3.47255 -1.47294,8.21035 -2.08102,5.31012 -2.30794,6.85013 -1.41019,9.57033 1.27427,3.86108 4.10652,5.03906 7.09045,2.94904 1.62453,-1.13787 2.65542,-1.25409 4.12894,-0.46549 1.59918,0.85586 1.86668,1.77544 1.44058,4.95225 -0.2878,2.14568 -0.1161,4.15288 0.38155,4.46045 1.45646,0.90014 1.04912,5.66907 -1.02721,12.02601 -4.20451,12.87262 -2.5878,19.95146 3.62668,15.87958 3.23618,-2.12043 4.01219,-4.4744 1.96783,-5.96927 -2.31892,-1.69563 -2.01701,-4.47489 0.86852,-7.99515 2.13609,-2.60598 2.45972,-2.73608 2.46403,-0.99055 0.003,1.1052 0.90497,2.57152 2.00497,3.25848 1.64275,1.02591 2,2.33202 2,7.31197 0,3.88723 -0.50656,6.56952 -1.41161,7.47456 -1.03289,1.0329 -1.18407,2.28808 -0.56349,4.67857 0.46646,1.79684 1.21418,4.76337 1.6616,6.5923 0.8792,3.59389 2.58682,4.38656 3.18292,1.47749 0.20318,-0.99155 1.55318,-3.22811 3,-4.97013 1.44682,-1.74202 3.43909,-4.32952 4.42726,-5.75 0.98818,-1.42048 2.51229,-2.58269 3.38692,-2.58269 2.52868,0 1.22026,11.41001 -2.05655,17.93399 -1.44488,2.87668 -2.62705,5.69645 -2.62705,6.26616 0,0.94001 3.67718,5.75928 7.58228,9.93726 0.84175,0.90057 1.87289,2.92557 2.29141,4.5 0.49709,1.87 1.51778,2.97339 2.94363,3.18214 1.89561,0.27752 2.18268,-0.14993 2.18268,-3.25 0,-1.96325 0.43963,-3.56955 0.97695,-3.56955 1.57046,0 4.11904,4.56259 5.43025,9.72151 0.93836,3.69192 1.71476,4.85147 3.41447,5.09946 1.7596,0.25672 2.32288,-0.29372 2.81414,-2.75 1.56429,-7.82149 4.84091,-0.62482 6.41249,14.08418 l 1.24262,11.63026 -2.64546,4.73325 c -1.455,2.60329 -2.6987,6.36407 -2.76377,8.35729 -0.14394,4.40893 -0.99877,7.97564 -2.53491,10.57681 -0.97877,1.65735 -1.39479,1.75229 -2.75,0.62756 -1.35078,-1.12099 -1.59678,-1.0752 -1.59678,0.2973 0,0.89234 0.675,1.62244 1.5,1.62244 2.25785,0 1.80341,3.48471 -0.87027,6.67327 -1.30364,1.5547 -3.75814,5.02 -5.45443,7.70067 -1.6963,2.68066 -4.04664,5.54807 -5.22299,6.37202 -1.48359,1.03915 -1.99852,2.23195 -1.68087,3.89364 0.29127,1.52369 -0.54352,3.93597 -2.29367,6.62798 -3.13005,4.81452 -8.46615,10.73242 -9.67729,10.73242 -0.44674,0 -1.41834,-1.36923 -2.15911,-3.04274 -1.11423,-2.51724 -1.13167,-5.09969 -0.10093,-14.95273 1.63359,-15.61589 0.9615,-23.00214 -2.50676,-27.54927 -5.90106,-7.73668 -15.44564,-9.61358 -26.78368,-5.26689 -2.82817,1.08424 -3.8191,3.81163 -1.38486,3.81163 1.94955,0 6.63486,3.89035 6.63486,5.50911 0,0.75017 -2.3625,2.63001 -5.25,4.17742 -2.8875,1.54741 -5.11115,3.26347 -4.94144,3.81347 0.33995,1.10173 0.80577,1.10666 6.83047,0.0723 l 4.13902,-0.71061 2.63419,8.31915 c 3.46868,10.95464 3.72757,12.15585 4.30954,19.99578 l 0.49562,6.67663 -4.48773,4.82337 c -2.48787,2.67394 -4.80573,6.29839 -5.20133,8.13334 -0.82743,3.838 -2.02553,4.43298 -12.45049,6.18292 -4.08218,0.68524 -8.80718,2.09048 -10.5,3.12276 -2.04631,1.24784 -4.96642,1.87813 -8.71284,1.88061 -4.82732,0.003 -5.85824,0.34446 -7.19258,2.38092 -0.85667,1.30745 -2.79348,2.68737 -4.30401,3.06649 -1.51054,0.37912 -4.12388,1.65215 -5.80743,2.82896 -4.46667,3.12223 -13.5475,12.04739 -13.55476,13.32238 -0.003,0.60226 -0.89474,1.89911 -1.9807,2.88189 -1.08596,0.98278 -2.27185,2.72382 -2.63531,3.86898 -0.36346,1.14516 -2.96245,4.3661 -5.77553,7.15764 -2.81308,2.79154 -7.31258,7.43673 -9.99889,10.32264 -2.68631,2.88591 -5.73038,5.69998 -6.7646,6.25347 -2.61995,1.40216 -6.25118,7.50084 -7.93403,13.32529 -0.87275,3.02064 -2.08945,5.08229 -3.16717,5.36663 -0.9625,0.25394 -1.75,0.8289 -1.75,1.27769 0,0.44879 -0.92296,1.10892 -2.05103,1.46695 -1.12806,0.35804 -3.39357,1.96336 -5.03447,3.56739 -1.6409,1.60403 -3.84674,2.91642 -4.90186,2.91642 -1.05511,0 -3.39143,1.83299 -5.1918,4.07332 -2.48835,3.09642 -3.81871,3.96908 -5.54713,3.63867 -1.36856,-0.26162 -2.27371,0.0552 -2.27371,0.79584 0,0.67677 -1.4625,1.47608 -3.25,1.77625 -1.7875,0.30017 -3.925,0.8137 -4.75,1.14117 -0.825,0.32748 -1.95,-0.11344 -2.5,-0.9798 z M 429.30429,433.47148 c 5.68169,-5.68169 6.36293,-7.29862 6.00332,-14.24881 -0.32182,-6.21979 -1.9845,-8.07475 -7.23775,-8.07475 -3.71116,0 -5.28412,2.45892 -5.28412,8.26038 0,1.87634 -0.93103,4.15351 -2.3243,5.6849 -2.57736,2.83287 -5.92279,10.8459 -5.09043,12.19269 0.29302,0.47411 2.49568,0.86203 4.8948,0.86203 3.86087,0 4.89933,-0.53729 9.03848,-4.67644 z m -51.983,-209.33708 c 1.46617,-0.55743 3.48819,-2.01993 4.4934,-3.25 1.79007,-2.19051 1.77371,-2.29318 -0.79604,-4.99514 -2.23366,-2.34857 -3.15209,-2.66386 -6.1783,-2.12092 -3.51625,0.63085 -9.08428,3.3123 -9.02281,4.34519 0.0714,1.19998 3.03745,4.3923 5.17983,5.575 2.95651,1.63214 3.16512,1.64685 6.32392,0.44587 z m 120.83342,142.26352 c -1.10709,-5.75288 -0.71699,-7.36352 2.58262,-10.66313 l 3.04841,-3.04841 0,4.44734 c 0,4.59447 -2.64644,13.0142 -4.09054,13.0142 -0.45036,0 -1.14358,-1.6875 -1.54049,-3.75 z m 3.90568,-21.72465 c -0.74585,-2.41933 -0.86534,-4.33466 -0.30535,-4.89465 1.11851,-1.11851 2.33984,3.15292 1.86358,6.51759 -0.27594,1.94946 -0.54247,1.67187 -1.55823,-1.62294 z m -15.63898,-32.76918 c -3.16773,-6.35222 -4.24803,-17.54296 -1.91845,-19.87309 0.95643,-0.95667 1.3008,-0.91388 1.60737,0.1997 0.21458,0.77947 1.15867,3.89222 2.09798,6.91722 1.08903,3.50719 1.59362,7.85514 1.39262,12 l -0.31519,6.5 z M 177.78574,253.33905 c 0,-1.60289 2.70016,-4.45774 3.85281,-4.07353 0.84133,0.28045 0.72865,1.03494 -0.3939,2.6376 -1.55229,2.21621 -3.45891,3.00772 -3.45891,1.43593 z m 260.43968,-12.85079 c 0.90581,-3.66579 2.24895,-5.05171 3.5931,-3.70756 1.36416,1.36416 0.43256,3.59552 -2.18317,5.22907 -2.00209,1.25033 -2.07532,1.1713 -1.40993,-1.52151 z m 53.56032,-2.89936 c 0,-0.85746 0.45,-1.2809 1,-0.94098 0.55,0.33992 1,1.04148 1,1.55902 0,0.51754 -0.45,0.94098 -1,0.94098 -0.55,0 -1,-0.70156 -1,-1.55902 z m -38.99599,-23.18272 c -6.04614,-0.72926 -7.34215,-2.96041 -4.139,-7.12555 1.25129,-1.62708 2.42362,-2.17588 3.74929,-1.75513 2.81242,0.89263 8.3857,6.25346 8.3857,8.06605 0,1.58301 -0.88115,1.67278 -7.99599,0.81463 z m 9.90953,-5.86244 c -0.73224,-0.88229 -2.36234,-1.99615 -3.62244,-2.47524 -2.8194,-1.07194 -2.97418,-2.92919 -0.30235,-3.62789 2.57948,-0.67455 1.57351,-2.29269 -1.42532,-2.29269 -1.2752,0 -2.80481,-0.58592 -3.39913,-1.30204 -1.18539,-1.4283 -0.46496,-5.69796 0.96143,-5.69796 1.11872,0 6.87427,5.44054 6.87427,6.49802 0,0.42982 0.62036,1.2811 1.37857,1.89174 1.52899,1.23138 2.96958,8.61024 1.681,8.61024 -0.44807,0 -1.41379,-0.72188 -2.14603,-1.60418 z m -247.91354,-0.3755 c 0,-0.99009 7.11791,-5.02032 8.86654,-5.02032 0.52042,0 0.71827,0.87169 0.43966,1.9371 -0.71435,2.73169 -9.3062,5.57824 -9.3062,3.08322 z m 208.282,-0.29133 c -0.51041,-0.67595 -1.01481,-2.69149 -1.12089,-4.47899 -0.17479,-2.94516 0.0721,-3.25 2.63188,-3.25 1.55361,0 3.69229,0.63436 4.75261,1.40968 1.90145,1.39038 1.90079,1.43958 -0.0477,3.59263 -2.90255,3.20729 -5.11888,4.1795 -6.2159,2.72668 z m -8.18228,-23.90475 c -1.04666,-2.73103 -0.0554,-4.15493 2.54406,-3.65433 1.21144,0.23331 1.85622,1.21638 1.85622,2.83009 0,3.34758 -3.20326,3.9476 -4.40028,0.82424 z"
       style="fill:#800000"
       sodipodi:nodetypes="sssscssssssscsssssssssssccssssscssssssssssssssssssssssssssssssssssssssscscsssssssssscssssssssssscsssssssssssscssssssssssssssssssssssscsssssssssssssssssssssssssssssssscssssssssscsssssssssssssssssssscscsssssssssssscsssssssssssssssssssscssscssssssssssssssssscsscsssscssscsssssssscsssssssssssssssssssscsssscssssssssscsscsscssssssssssssssssssssssssssssssssssssssss" />
    <path
       inkscape:connector-curvature="0"
       id="path3496"
       d="m 208.90221,488.11613 c -7.92614,-1.15175 -9.74045,-5.3465 -3.58254,-8.283 5.21512,-2.48692 8.7708,-2.13711 12.36031,1.216 3.94149,3.6819 3.92948,5.61599 -0.0435,7.00096 -1.73208,0.60381 -3.19458,1.04169 -3.25,0.97307 -0.0554,-0.0686 -2.52337,-0.47678 -5.48431,-0.90703 z m 15.38353,-14.03141 c -1.65,-1.03424 -4.6496,-2.78293 -6.66579,-3.88598 -6.66623,-3.64708 -7.71147,-6.20357 -8.03194,-19.64471 -0.26954,-11.30497 -0.15995,-12.07195 2.17054,-15.19067 1.34993,-1.80651 3.59579,-3.52515 4.9908,-3.81921 1.39501,-0.29405 3.58261,-0.95922 4.86133,-1.47814 1.27871,-0.51892 2.69494,-0.71482 3.14717,-0.43533 0.45223,0.2795 5.20375,1.37013 10.55893,2.42362 5.95673,1.17183 10.8736,2.756 12.66522,4.0806 2.49351,1.84353 3.38669,2.00545 6.01271,1.09002 3.59896,-1.25461 9.32231,-0.0592 14.7176,3.074 1.88462,1.09445 4.31607,1.75731 5.40322,1.47301 2.15686,-0.56403 7.67021,1.8558 7.67021,3.36649 0,3.04511 -8.34521,3.91658 -13.24446,1.38309 -3.9548,-2.04511 -12.56634,-1.37317 -21.50857,1.67828 -6.05958,2.06777 -6.27306,2.2591 -6.9008,6.18474 -0.50503,3.15831 -1.22817,4.27004 -3.2817,5.04516 -2.35704,0.88968 -2.61493,1.4721 -2.45311,5.54018 0.22852,5.74488 -2.03149,10.71442 -4.9459,10.87555 -1.191,0.0659 -3.51546,-0.72647 -5.16546,-1.7607 z m 130.5,-38.43556 c -1.375,-0.8081 -3.2875,-1.75395 -4.25,-2.10189 -0.9625,-0.34794 -1.75,-1.05669 -1.75,-1.575 0,-0.51831 -0.45318,-0.6623 -1.00706,-0.31998 -0.55389,0.34231 -1.27703,-0.0811 -1.60699,-0.94099 -0.80853,-2.10699 -3.14905,-1.9861 -3.61293,0.18662 -0.28535,1.33654 -0.78652,0.97199 -2.12122,-1.54296 -0.96118,-1.81113 -2.86257,-3.71688 -4.22532,-4.23499 -1.36275,-0.51812 -2.77487,-1.71636 -3.13804,-2.66276 -1.12061,-2.92028 -3.64308,-5.30929 -5.60587,-5.30929 -1.03013,0 -4.33283,-1.35 -7.33936,-3 -3.00652,-1.65 -6.00784,-3 -6.66961,-3 -0.66177,0 -2.89549,-0.907 -4.96382,-2.01556 -2.96558,-1.58946 -3.86905,-1.73297 -4.27356,-0.67883 -0.32937,0.85833 -1.59675,1.17768 -3.5412,0.89229 -2.31841,-0.34027 -3.70787,0.20667 -5.92763,2.33334 l -2.8994,2.7778 -1.00924,-2.65452 c -0.72438,-1.90527 -1.72187,-2.65452 -3.534,-2.65452 -1.38861,0 -2.52475,0.36399 -2.52475,0.80887 0,0.44488 -0.60913,1.64191 -1.35363,2.66006 -1.30951,1.79087 -1.50332,1.77873 -5.947,-0.37241 -3.57683,-1.73152 -5.03316,-1.98825 -6.58063,-1.16007 -1.09299,0.58495 -2.71653,1.06355 -3.60786,1.06355 -0.89134,0 -3.69824,0.94647 -6.23758,2.10327 -4.35279,1.98293 -4.80934,2.01154 -7.97906,0.5 -1.84915,-0.8818 -5.75845,-1.60327 -8.68734,-1.60327 -3.97763,0 -7.24456,-0.88678 -12.90966,-3.50422 -4.17143,-1.92732 -7.85495,-3.94194 -8.18559,-4.47693 -0.88812,-1.43702 1.32865,-8.8277 2.92015,-9.73574 0.7549,-0.43071 1.52875,-2.13311 1.71965,-3.78311 0.2735,-2.36377 1.37689,-3.61357 5.20275,-5.89312 4.7345,-2.82094 4.84033,-2.98892 4.24166,-6.73279 -0.58512,-3.6591 -0.44896,-3.90863 2.89507,-5.30586 1.92999,-0.8064 3.50907,-1.95497 3.50907,-2.55239 0,-0.7584 -0.65514,-0.73559 -2.17083,0.0756 -1.80714,0.96715 -2.4015,0.84739 -3.54758,-0.71482 -0.7572,-1.03213 -2.18644,-1.74749 -3.17607,-1.58969 -0.98964,0.15781 -2.37333,-0.40469 -3.07488,-1.25 -0.70154,-0.8453 -1.78293,-1.5668 -2.40308,-1.60331 -0.62016,-0.0365 -3.15256,-1.61791 -5.62756,-3.51421 -2.475,-1.8963 -6.075,-4.1366 -8,-4.97843 -6.94783,-3.03842 -7.92024,-3.78279 -11.17778,-8.55647 -2.45316,-3.59492 -4.60108,-5.39692 -8.3149,-6.97582 -2.75403,-1.17084 -5.68232,-2.71359 -6.50732,-3.42832 -0.825,-0.71473 -3.81992,-2.05308 -6.65538,-2.97409 -3.35748,-1.09059 -5.33009,-2.34271 -5.65638,-3.59042 -0.55321,-2.11549 -4.52448,-2.60904 -7.62811,-0.94803 -3.56259,1.90664 -6.58586,-4.95325 -5.40097,-12.25492 0.36876,-2.27236 1.38607,-3.93433 2.90625,-4.74791 1.2864,-0.68845 2.8023,-2.58106 3.36868,-4.20578 0.56639,-1.62472 2.44538,-4.56631 4.17556,-6.53687 1.73017,-1.97056 4.43731,-6.31422 6.01587,-9.65258 3.2976,-6.97385 9.27732,-14.56977 11.46971,-14.56977 2.78401,0 6.40477,-4.69192 6.40477,-8.29956 0,-2.11398 0.74868,-4.06801 1.98857,-5.1901 2.86366,-2.59157 8.01143,-10.88549 8.01143,-12.90775 0,-0.94727 2.1701,-4.05787 4.82244,-6.91245 2.65235,-2.85458 5.83299,-6.65264 7.0681,-8.44014 l 2.24565,-3.25 -3.8181,0.0153 c -4.46386,0.0179 -6.60296,1.11433 -6.14488,3.14965 0.17973,0.7986 -1.36071,2.9348 -3.42321,4.74711 -2.0625,1.81231 -3.75,3.8425 -3.75,4.51152 0,1.50324 -6.80992,9.57642 -8.07792,9.57642 -0.50715,0 -0.92208,-0.65264 -0.92208,-1.45031 0,-0.79767 -0.72191,-1.85431 -1.60424,-2.34809 -1.46905,-0.82212 -1.46547,-1.14231 0.0425,-3.79969 2.43,-4.28214 6.16028,-9.27479 9.16345,-12.26447 l 2.64935,-2.63744 -3.12554,-0.31336 c -1.71903,-0.17235 -3.12552,-0.7292 -3.12552,-1.23745 0,-1.12005 6.95292,-5.59848 12.50431,-8.05412 2.22301,-0.98334 5.07633,-2.97767 6.34071,-4.43183 1.77562,-2.04215 2.87254,-2.49996 4.81928,-2.01136 2.46269,0.6181 5.32041,-1.34076 13.87087,-9.50794 1.11934,-1.06917 3.01601,-1.94394 4.21482,-1.94394 1.1988,0 2.66131,-0.9 3.25001,-2 1.26312,-2.36017 3.54733,-2.62202 4.36163,-0.5 1.33984,3.49158 6.63837,0.2419 6.63837,-4.07143 0,-2.42231 0.14809,-2.49113 6.1967,-2.87966 2.92843,-0.1881 3.17303,-1.42599 0.69496,-3.51717 -1.48903,-1.25655 -3.24083,-1.82491 -4.64166,-1.50595 -2.72201,0.61979 -3.00424,-1.44505 -0.68195,-4.98931 1.42924,-2.18129 10.42626,-5.98835 12.97066,-5.48849 0.52871,0.10387 2.02627,0.13556 3.32792,0.0704 1.8246,-0.0913 2.25072,-0.56169 1.86051,-2.05384 -0.59201,-2.26382 0.96274,-3.06455 5.95036,-3.06455 3.91481,0 9.3225,-2.73538 9.3225,-4.71561 0,-0.70641 -0.675,-1.28439 -1.5,-1.28439 -2.57925,0 -1.63669,-1.93206 1.25,-2.56223 1.5125,-0.33019 3.98484,-1.06725 5.4941,-1.63793 2.11118,-0.79827 3.27341,-0.69077 5.03899,0.46608 2.07135,1.3572 2.63204,1.32415 5.7559,-0.33921 1.90356,-1.01358 4.67195,-1.86174 6.15199,-1.88479 1.48004,-0.0231 3.00339,-0.54739 3.38521,-1.1652 1.31406,-2.12619 10.203,-0.21966 14.37252,3.08266 5.02602,3.98068 8.30624,4.10185 7.86771,0.29062 -0.27052,-2.35105 -0.93785,-2.88045 -4.60003,-3.64917 -2.35598,-0.49455 -4.12133,-1.39455 -3.92299,-2 0.5958,-1.81872 6.73361,-1.86223 11.39821,-0.0808 3.47999,1.32902 4.6749,1.42068 5.84635,0.44847 0.92896,-0.77097 3.33938,-1.04257 6.53099,-0.7359 4.05937,0.39006 5.78677,1.18129 8.74483,4.00557 2.02742,1.93572 4.3542,3.72168 5.17062,3.9688 0.92399,0.27967 1.86782,2.67497 2.5,6.34464 0.77909,4.52243 1.53798,6.15509 3.25871,7.01065 4.1845,2.08058 6.12021,4.54033 6.03139,7.66424 -0.0588,2.06949 -0.67616,3.19653 -1.9305,3.52455 -1.0142,0.26522 -1.844,1.28095 -1.844,2.25717 0,1.04569 -0.99845,2.02556 -2.43007,2.38487 -1.33654,0.33545 -3.1332,1.31304 -3.99258,2.17242 -1.39866,1.39866 -1.40491,1.86727 -0.0596,4.46885 0.82661,1.5985 2.39827,3.38552 3.49258,3.97118 2.35013,1.25775 2.6583,3.99446 0.44981,3.99446 -0.84691,0 -3.29913,0.89752 -5.44937,1.9945 -3.07066,1.56653 -4.47484,1.77957 -6.54408,0.99284 -2.83896,-1.07937 -3.75111,-0.78415 -7.21671,2.33574 -3.68559,3.31793 -2.82193,4.20902 3.72128,3.83946 l 5.97492,-0.33747 1.63548,4.08747 c 2.09966,5.24756 3.69909,5.22786 11.93213,-0.14694 4.87009,-3.17936 6.48619,-4.80672 6.48619,-6.53139 0,-1.26334 -0.70092,-2.56595 -1.5576,-2.89469 -1.23474,-0.47381 -0.87202,-1.18434 1.75,-3.42797 3.86689,-3.30885 6.85304,-3.6697 8.5031,-1.02752 1.01898,1.63164 0.64933,2.30775 -2.75945,5.04712 -2.54923,2.04864 -3.93603,3.98366 -3.93603,5.49205 0,2.32459 0.008,2.32599 4.38918,0.75061 3.13341,-1.12677 5.01399,-1.29954 6.57308,-0.60385 l 2.18392,0.97449 -2.1871,2.78044 c -2.81972,3.5847 -1.84761,4.46925 2.5874,2.35433 4.76486,-2.2722 5.1876,-2.16641 5.9928,1.49963 0.60207,2.7412 0.28011,3.53284 -2.33857,5.75 -2.37583,2.01155 -3.17813,3.67215 -3.68627,7.62987 -0.60942,4.74657 -0.49107,5.1309 1.91803,6.22856 1.41214,0.64341 2.57442,1.51699 2.58284,1.94128 0.008,0.42429 0.44301,1.44644 0.96575,2.27144 0.78477,1.23856 1.46228,0.88997 3.88714,-2 1.61519,-1.925 3.21151,-3.23159 3.54738,-2.90354 0.90532,0.88425 -2.14906,7.63702 -4.53234,10.0203 -1.66769,1.66769 -1.93745,2.78074 -1.38617,5.71933 0.37648,2.00678 0.90871,4.01146 1.18274,4.45485 0.95367,1.54307 3.32019,-1.55461 3.32019,-4.346 0,-1.88761 0.62694,-3.00915 1.90969,-3.41628 4.40832,-1.39914 7.08328,-9.36394 4.47953,-13.33796 -2.43696,-3.71945 -1.43708,-5.6907 2.8865,-5.6907 2.25169,0 3.58191,0.42719 3.33505,1.07103 -0.49718,1.29672 1.80058,10.46055 3.34781,13.35157 0.65727,1.22812 2.10507,2.0774 3.54142,2.0774 4.56473,0 6.70463,8.68545 4.05947,16.47659 -3.92644,11.56504 -2.51393,19.58268 4.14179,23.50965 3.76033,2.21866 4.39433,5.494 1.22392,6.32307 -1.66028,0.43418 -1.87864,0.90914 -1.09291,2.37728 1.13923,2.12868 0.4338,6.92671 -1.44426,9.82309 -0.76549,1.18056 -0.96052,2.56398 -0.47273,3.35324 1.00116,1.61991 4.08489,0.28947 8.18984,-3.5334 1.43282,-1.33436 3.22214,-2.29187 3.97626,-2.12781 0.77682,0.169 1.51994,-0.67698 1.71443,-1.95171 0.22087,-1.4476 1.03938,-2.25 2.29518,-2.25 1.11159,0 2.44226,-1.07626 3.09096,-2.5 0.6265,-1.375 1.51685,-2.5 1.97857,-2.5 1.36094,0 0.96437,2.37669 -0.82217,4.92733 -2.3387,3.33896 -2.93924,11.90486 -0.88976,12.69131 1.98972,0.76353 1.98121,2.8087 -0.02,4.80993 -2.31042,2.31042 -2.80901,2.02638 -5.24528,-2.98821 l -2.21524,-4.55963 -3.71187,3.05963 c -2.04155,1.6828 -4.2578,3.05964 -4.92503,3.05964 -2.30638,0 -2.53606,2.16046 -0.43752,4.11554 1.15849,1.07931 2.10635,2.811 2.10635,3.84823 0,2.07639 7.73944,10.00828 9.78222,10.02545 0.70523,0.006 1.67615,-1.00172 2.15762,-2.23922 0.70047,-1.80043 0.39432,-2.61633 -1.53223,-4.08341 -1.32418,-1.00837 -2.40761,-2.72545 -2.40761,-3.81574 0,-1.09028 -0.46583,-2.85275 -1.03518,-3.91659 -0.80734,-1.50853 -0.70849,-1.93426 0.4491,-1.93426 1.48103,0 6.5818,5.87743 6.59086,7.59439 0.009,1.6472 6.97951,8.53335 7.99989,7.90272 0.66745,-0.4125 0.66679,-1.24247 -0.002,-2.49206 -1.40415,-2.62374 -1.27761,-3.00505 0.99733,-3.00505 1.1,0 2.05743,0.5625 2.12762,1.25 0.0702,0.6875 0.23337,2.25439 0.3626,3.48198 0.28765,2.73228 2.27667,5.26802 4.13222,5.26802 0.75766,0 1.37756,0.3949 1.37756,0.87756 0,1.59394 -2.71784,3.16794 -4.37325,2.5327 -2.58619,-0.99241 -2.02924,3.40145 0.98192,7.74655 2.26092,3.26251 2.48973,4.26945 1.71644,7.55375 -0.67491,2.86647 -1.45542,3.87033 -3.20455,4.12156 -2.0871,0.29976 -2.24557,0.68939 -1.62696,4 1.51775,8.12248 5.80226,7.53363 6.92794,-0.95216 0.37886,-2.85599 1.339,-6.45 2.13365,-7.98668 0.79464,-1.53668 1.44481,-3.73043 1.44481,-4.875 0,-3.10199 2.27716,-3.40126 6.23351,-0.81922 2.85288,1.86188 3.64008,3.10984 4.12544,6.54007 0.71289,5.03833 -0.0986,7.45245 -4.25168,12.64837 -1.709,2.13813 -3.10727,4.68896 -3.10727,5.66852 0,0.97955 -1.575,5.06748 -3.5,9.08428 -1.925,4.0168 -3.5,8.03373 -3.5,8.9265 0,0.89277 -0.94607,2.47941 -2.10238,3.52585 -1.15631,1.04645 -2.74286,3.14119 -3.52568,4.65499 -0.78281,1.5138 -2.10087,2.75236 -2.929,2.75236 -0.82814,0 -1.76473,0.675 -2.08131,1.5 -0.95207,2.48105 -1.85199,1.7006 -2.01787,-1.75 -1.01774,-21.17002 -1.22968,-22.8829 -3.38133,-27.3276 -2.10787,-4.35429 -8.77978,-10.4224 -11.45946,-10.4224 -0.65832,0 -2.23466,-0.9 -3.50297,-2 -2.88372,-2.50104 -4.62442,-2.54422 -5.25565,-0.13038 -0.33552,1.283 -2.09418,2.25472 -5.60504,3.09696 -6.5719,1.57657 -10.13931,4.35563 -10.13931,7.89864 0,2.3865 -1.25696,3.46796 -10.25,8.81884 -5.6375,3.35433 -10.71037,6.26014 -11.27304,6.45736 -4.03255,1.41344 -10.78489,8.19556 -14.34582,14.40911 -3.73838,6.52319 -4.29839,7.05783 -7.48738,7.14823 -6.03493,0.17107 -8.80033,2.24585 -10.39797,7.80124 -0.79086,2.75 -1.8998,5.5625 -2.4643,6.25 -1.39487,1.69878 -7.71587,1.55293 -10.78149,-0.24876 z m 113.25,-48.89329 c 2.13285,-1.61906 2.24241,-2.60795 0.28896,-2.60795 -0.80358,0 -2.33109,-0.93387 -3.39446,-2.07528 -2.51703,-2.7017 -3.32831,-1.26716 -1.6034,2.83519 1.50055,3.56877 2.12124,3.81236 4.7089,1.84804 z m -267.45771,-82.1465 c 2.81789,-1.66271 3.42181,-1.73307 4.19112,-0.48829 0.69422,1.12327 1.53824,1.23081 3.70771,0.47237 2.32919,-0.81426 2.86325,-1.64223 3.12726,-4.84826 0.28374,-3.44553 0.10031,-3.80927 -1.68541,-3.34229 -1.18813,0.3107 -2.22085,-0.0416 -2.537,-0.86549 -0.74208,-1.93383 -2.98153,-1.73464 -6.8218,0.60677 -1.80079,1.09795 -4.77129,1.99795 -6.60109,2 -2.34059,0.003 -4.19353,0.87035 -6.25,2.92682 -3.42836,3.42835 -3.8204,5.54484 -0.8849,4.77719 1.35495,-0.35433 2.91047,0.33929 4.64034,2.06916 2.57343,2.57343 2.61994,2.58026 4.21182,0.6184 0.88531,-1.09107 3.09119,-2.85794 4.90195,-3.92638 z m 212.20771,-6.59046 c 0,-1.17096 -1.09757,-5.17173 -2.43904,-8.8906 -1.93698,-5.36977 -2.31987,-7.91624 -1.8601,-12.37099 0.63961,-6.19717 0.057,-7.01849 -2.02832,-2.8594 -1.86361,3.71688 -1.47996,17.58049 0.62265,22.5 1.83616,4.29611 5.70481,5.39536 5.70481,1.62099 z m -181.92431,-72.466 c 1.33337,-1.42726 3.66181,-3.23882 5.17431,-4.02568 4.03022,-2.09669 3.50898,-3.76416 -0.95042,-3.0405 -4.38049,0.71086 -9.89366,5.67067 -8.97228,8.07174 0.85321,2.22343 1.94849,1.99148 4.74839,-1.00556 z m 46.34252,-36.01198 c 2.2344,-0.85742 1.96604,-2.39301 -0.41821,-2.39301 -1.11111,0 -2,0.66667 -2,1.5 0,1.68305 0.18315,1.75069 2.41821,0.89301 z m 31.99846,-13.64301 c 0.46666,-1 0.7,-1 1.16666,0 0.71734,1.53714 4.41667,1.66812 4.41667,0.15638 0,-0.60149 -0.9,-1.32897 -2,-1.61663 -1.1,-0.28766 -2,-0.92053 -2,-1.40638 0,-1.29993 -3.40827,-1.0751 -4.8,0.31663 -0.66,0.66 -1.2,1.785 -1.2,2.5 0,1.66285 3.64475,1.70411 4.41667,0.05 z m -7.66681,-3.33347 c -0.95295,-0.95296 -2.86349,0.5906 -2.1533,1.7397 0.42212,0.683 0.98146,0.66575 1.69964,-0.0524 0.58876,-0.58876 0.79291,-1.34803 0.45366,-1.68727 z m 99.57272,37.28031 c -1.00242,-1.26674 -2.61008,-2.60262 -3.57258,-2.96862 -2.56263,-0.97446 -2.13762,-2.63035 0.97929,-3.8154 1.50111,-0.57072 3.86361,-2.32976 5.25,-3.90899 1.94468,-2.21517 3.72044,-3.02217 7.77071,-3.53142 5.0305,-0.63249 5.24937,-0.56209 5.23494,1.68375 -0.0217,3.38006 -2.46153,9.89874 -4.09112,10.93062 -0.7666,0.48543 -2.35122,0.88949 -3.52138,0.89791 -1.17015,0.008 -2.68775,0.69031 -3.37244,1.51531 -1.69291,2.03983 -2.54318,1.89383 -4.67742,-0.80316 z m 13.17742,-9.69684 c 0.33992,-0.55 -0.0835,-1 -0.94098,-1 -0.85746,0 -1.55902,0.45 -1.55902,1 0,0.55 0.42344,1 0.94098,1 0.51754,0 1.2191,-0.45 1.55902,-1 z m -159,-6 c 0.33992,-0.55 0.81648,-1 1.05902,-1 0.24254,0 0.44098,0.45 0.44098,1 0,0.55 -0.47656,1 -1.05902,1 -0.58246,0 -0.7809,-0.45 -0.44098,-1 z"
       style="fill:#000000"
       sodipodi:nodetypes="cssscccsssssscssssssssssscssssccssssssssssscsssssssssssssssssssssscssssssssssssssssssscssssssssscssssssssssssssscsssssssscsssssssssssscssssssssssscsssssssscscsssssscssssssssssssssssssssssssssssscsssscssssscscscssssssssssssssssssssssssssssssssssssssssssssssscsssssssssssssssssssssssssssscscccssssssscssssssssssss" />
  </g>
</svg>
