<?xml version="1.0" encoding="UTF-8" standalone="no"?>
<!-- Created with Inkscape (http://www.inkscape.org/) -->

<svg
   xmlns:dc="http://purl.org/dc/elements/1.1/"
   xmlns:cc="http://creativecommons.org/ns#"
   xmlns:rdf="http://www.w3.org/1999/02/22-rdf-syntax-ns#"
   xmlns:svg="http://www.w3.org/2000/svg"
   xmlns="http://www.w3.org/2000/svg"
   xmlns:sodipodi="http://sodipodi.sourceforge.net/DTD/sodipodi-0.dtd"
   xmlns:inkscape="http://www.inkscape.org/namespaces/inkscape"
   width="210mm"
   height="297mm"
   viewBox="0 0 744.09448819 1052.3622047"
   id="svg3475"
   version="1.1"
   inkscape:version="0.91 r13725"
   sodipodi:docname="guy4.svg">
  <sodipodi:namedview
     id="base"
     pagecolor="#ffffff"
     bordercolor="#666666"
     borderopacity="1.0"
     inkscape:pageopacity="0.0"
     inkscape:pageshadow="2"
     inkscape:zoom="3.5286372"
     inkscape:cx="195.37294"
     inkscape:cy="914.65866"
     inkscape:document-units="px"
     inkscape:current-layer="layer1"
     showgrid="false"
     inkscape:window-width="1215"
     inkscape:window-height="776"
     inkscape:window-x="65"
     inkscape:window-y="24"
     inkscape:window-maximized="1"
     showguides="true" />
  <defs
     id="defs3477" />
  <metadata
     id="metadata3480">
    <rdf:RDF>
      <cc:Work
         rdf:about="">
        <dc:format>image/svg+xml</dc:format>
        <dc:type
           rdf:resource="http://purl.org/dc/dcmitype/StillImage" />
        <dc:title></dc:title>
      </cc:Work>
    </rdf:RDF>
  </metadata>
  <g
     id="layer1"
     inkscape:groupmode="layer"
     inkscape:label="Layer 1">
    <path
       style="color:#000000;font-style:normal;font-variant:normal;font-weight:normal;font-stretch:normal;font-size:medium;line-height:normal;font-family:sans-serif;text-indent:0;text-align:start;text-decoration:none;text-decoration-line:none;text-decoration-style:solid;text-decoration-color:#000000;letter-spacing:normal;word-spacing:normal;text-transform:none;direction:ltr;block-progression:tb;writing-mode:lr-tb;baseline-shift:baseline;text-anchor:start;white-space:normal;clip-rule:nonzero;display:inline;overflow:visible;visibility:visible;opacity:1;isolation:auto;mix-blend-mode:normal;color-interpolation:sRGB;color-interpolation-filters:linearRGB;solid-color:#000000;solid-opacity:1;fill:none;fill-opacity:1;fill-rule:nonzero;stroke:#000000;stroke-width:1;stroke-linecap:butt;stroke-linejoin:miter;stroke-miterlimit:4;stroke-dasharray:none;stroke-dashoffset:0;stroke-opacity:1;color-rendering:auto;image-rendering:auto;shape-rendering:auto;text-rendering:auto;enable-background:accumulate"
       d="m 201.44855,141.64948 c 0.004,0.0106 0.008,0.0179 0.0127,0.0322 0.0198,0.054 0.0441,0.13114 0.0699,0.22306 0.0515,0.18386 0.1096,0.42704 0.16046,0.68136 0.17224,0.86116 -0.2456,1.59206 -1.06184,1.86414 -0.15963,0.0532 -0.26673,0.19302 -0.30755,0.34827 -0.0408,0.15525 -0.0262,0.33086 0.0407,0.50509 0.0932,0.24278 0.30032,0.41972 0.61936,0.50873 0.31904,0.089 0.75981,0.11731 1.41132,0.11731 0.56197,0 1.00545,0.0389 1.33171,0.11427 0.32627,0.0753 0.52835,0.18714 0.6303,0.30998 0.28145,0.33914 0.77527,0.43538 1.38458,0.34949 0.60932,-0.0859 1.35796,-0.35317 2.21789,-0.79137 1.08445,-0.5526 2.00092,-0.87007 3.65596,-1.06913 1.65503,-0.19906 4.04302,-0.27404 8.02609,-0.327 l 7.82612,-0.10393 0.93967,0.83938 c 0.42041,0.37564 0.6382,0.61468 0.69655,0.7555 0.0291,0.0704 0.0289,0.11013 0.01,0.16897 -0.0191,0.0588 -0.0679,0.1377 -0.15134,0.23826 -0.10136,0.12213 -0.2207,0.2172 -0.31789,0.26683 -0.0972,0.0496 -0.15635,0.0367 -0.14891,0.0413 -0.22357,-0.13817 -0.51164,-0.0367 -0.65035,0.18782 -0.14879,0.24074 -0.0538,0.5574 0.18903,0.70749 0.0101,0.006 0.0634,0.0548 0.12034,0.12885 0.0569,0.074 0.12375,0.17351 0.19329,0.28992 0.13907,0.23284 0.29027,0.53253 0.41695,0.83574 0.20996,0.5025 0.30437,0.79039 0.3039,0.92568 -2.2e-4,0.0677 -0.0116,0.0934 -0.0437,0.13129 -0.0321,0.0379 -0.0963,0.0853 -0.19692,0.14162 -0.49683,0.27804 -0.65632,0.86351 -0.53548,1.48852 0.12084,0.62502 0.5048,1.31926 1.11411,1.92858 0.60862,0.60861 0.92312,1.10098 0.98951,1.55173 0.0664,0.45074 -0.0995,0.89187 -0.53062,1.43989 -0.17831,0.22668 -0.31909,0.46487 -0.40601,0.67649 -0.0434,0.10581 -0.0741,0.20443 -0.0869,0.29783 -0.0128,0.0934 -0.0135,0.18686 0.0419,0.27655 -0.009,-0.0149 0.002,-0.008 -0.0109,0.0352 -0.0127,0.0429 -0.0454,0.10983 -0.096,0.18416 -0.1013,0.14866 -0.27302,0.33064 -0.4832,0.49597 -0.59092,0.46482 -0.90022,0.93158 -0.84182,1.38641 0.0292,0.22741 0.15543,0.43431 0.35375,0.60355 0.19832,0.16925 0.4687,0.30729 0.8102,0.42 0.51566,0.17018 0.84278,0.26176 1.18279,0.14465 0.34002,-0.1171 0.63611,-0.40756 1.16456,-0.93602 0.30146,-0.30146 0.60771,-0.57616 0.85337,-0.77252 0.12283,-0.0982 0.23074,-0.17659 0.31241,-0.22793 0.0817,-0.0513 0.15924,-0.0638 0.11305,-0.0638 0.11533,0 0.17569,-0.0454 0.27108,-0.1015 0.0954,-0.0561 0.20656,-0.1333 0.33126,-0.22732 0.24939,-0.18805 0.5498,-0.44376 0.84606,-0.72572 0.74786,-0.71176 1.1645,-1.45674 1.30254,-2.34492 0.0518,-0.33314 0.15674,-0.66691 0.28202,-0.93177 0.12528,-0.26486 0.28158,-0.45765 0.37805,-0.51299 0.33994,-0.195 0.92239,-0.71641 1.3621,-1.19738 0.57677,-0.63089 0.97958,-0.80474 1.86353,-0.80474 0.68108,0 1.48479,-0.13394 1.88299,-0.34706 0.32739,-0.1752 0.7527,-0.20094 1.08129,-0.11426 0.16429,0.0434 0.30277,0.11397 0.39264,0.19571 0.0899,0.0817 0.1319,0.16614 0.1319,0.26561 0,0.058 -0.0417,0.15556 -0.12946,0.24678 -0.0878,0.0912 -0.21526,0.17338 -0.35071,0.21637 -0.469,0.14886 -0.82655,0.6338 -1.05394,1.21258 -0.22738,0.57878 -0.3211,1.26462 -0.18902,1.86596 0.0659,0.30021 0.0746,0.53544 0.0352,0.71722 -0.0393,0.18178 -0.121,0.31436 -0.26439,0.43336 -0.27577,0.22887 -0.44158,0.46132 -0.47166,0.7081 -0.0301,0.24678 0.0989,0.47815 0.31727,0.64184 0.43681,0.32739 1.23769,0.49294 2.34492,0.49294 0.2072,0 0.55393,0.16955 0.82844,0.40965 0.26662,0.23321 0.44662,0.52871 0.46558,0.70202 -0.0113,0.0141 -0.022,0.0279 -0.0432,0.0499 -0.0591,0.0613 -0.15181,0.14545 -0.26805,0.2419 -0.23248,0.1929 -0.55949,0.43681 -0.91961,0.68135 -0.36766,0.24967 -0.7414,0.52832 -1.05029,0.77799 -0.30889,0.24969 -0.54692,0.46051 -0.66798,0.61571 -0.0761,0.0976 -0.13793,0.16462 -0.18173,0.19815 -0.0438,0.0335 -0.0585,0.0361 -0.0845,0.034 -0.052,-0.004 -0.20688,-0.0959 -0.46497,-0.32943 -0.20409,-0.1847 -0.37947,-0.32285 -0.53244,-0.41635 -0.15297,-0.0935 -0.28251,-0.15315 -0.42729,-0.13493 -0.0724,0.009 -0.14738,0.0489 -0.1945,0.10758 -0.0471,0.0587 -0.0685,0.12716 -0.0778,0.19815 -0.0186,0.14197 0.006,0.30625 0.0608,0.51542 0.0914,0.34935 0.0355,0.8588 -0.12947,1.32806 -0.16498,0.46925 -0.43874,0.89818 -0.72572,1.10803 -0.11264,0.0824 -0.20684,0.15989 -0.27594,0.26075 -0.0691,0.10085 -0.10359,0.22658 -0.0966,0.35921 0.0139,0.26525 0.15192,0.56936 0.40358,1.09709 0.25357,0.53174 0.37103,0.83002 0.38049,1.05941 0.009,0.22939 -0.078,0.42944 -0.29236,0.80474 -0.12079,0.21144 -0.28491,0.39702 -0.44248,0.51845 -0.15758,0.12144 -0.30757,0.16611 -0.36894,0.1556 -0.21456,-0.0367 -0.42027,0.0668 -0.63394,0.21152 -0.21367,0.14473 -0.43312,0.34593 -0.6303,0.56648 -0.19718,0.22055 -0.37126,0.45968 -0.48929,0.68621 -0.11803,0.22653 -0.19728,0.44079 -0.12824,0.64792 0.0604,0.18112 0.21623,0.27435 0.4127,0.38353 0.19647,0.10918 0.44325,0.20868 0.70384,0.27838 0.59774,0.15986 1.157,0.0442 1.70126,-0.41453 0.54424,-0.45876 1.09606,-1.24358 1.78633,-2.45007 0.54702,-0.95609 0.9163,-1.47072 1.25331,-1.66843 0.16849,-0.0988 0.32814,-0.13026 0.53425,-0.1094 0.20612,0.0209 0.45739,0.10022 0.7701,0.22974 0.45635,0.18903 0.7285,0.49521 0.80777,0.77375 0.0793,0.27853 -10e-4,0.53111 -0.32335,0.72025 -0.0938,0.0551 -0.16959,0.13866 -0.25893,0.25102 -0.0893,0.11235 -0.18574,0.25317 -0.28567,0.41452 -0.19985,0.32272 -0.41299,0.72841 -0.59565,1.14511 -0.26731,0.60982 -0.42033,1.02812 -0.46922,1.39067 -0.0489,0.36253 0.017,0.66562 0.16593,0.99254 0.18171,0.39881 0.4094,0.66774 0.68743,0.78954 0.27803,0.12181 0.5906,0.0743 0.87342,-0.10271 0.56564,-0.3541 1.08598,-1.19292 1.50371,-2.43974 0.18871,-0.56327 0.6947,-1.51276 1.10013,-2.05865 0.21816,-0.29374 0.39386,-0.61322 0.50509,-0.90077 0.11124,-0.28754 0.17778,-0.53359 0.0954,-0.7482 -0.0699,-0.18217 -0.0162,-0.58382 0.12643,-0.91354 0.0713,-0.16486 0.16135,-0.31361 0.2492,-0.4127 0.0879,-0.0991 0.16876,-0.13615 0.20362,-0.13615 0.0553,0 0.0997,0.0269 0.15377,0.11974 0.0541,0.0929 0.0967,0.24289 0.11184,0.4127 0.0302,0.33961 -0.0526,0.75571 -0.23218,0.99255 -0.14895,0.19641 -0.24906,0.51078 -0.33005,0.89104 -0.081,0.38028 -0.13212,0.82076 -0.13492,1.23932 -0.007,1.03635 -0.17828,1.58292 -0.58715,1.99179 -0.34532,0.34532 -0.5646,0.66461 -0.63576,0.94392 -0.0356,0.13966 -0.0338,0.28424 0.048,0.39994 0.0818,0.11569 0.22669,0.16654 0.3811,0.16654 -0.0171,0 -0.0394,-0.0118 -0.0437,-0.0158 -0.004,-0.004 0.003,0.003 0.0115,0.0225 0.0167,0.0393 0.036,0.12453 0.045,0.23887 0.0179,0.22869 0.001,0.5755 -0.0559,0.99316 -0.12915,0.9422 -0.0595,1.73081 0.2334,2.27806 0.16955,0.3168 0.23419,0.5514 0.17687,1.05576 -0.0573,0.50435 -0.24974,1.26431 -0.61146,2.54488 -0.44314,1.56882 -0.69577,2.58509 -0.78224,3.26089 -0.0432,0.3379 -0.0464,0.59188 -0.002,0.79562 0.0446,0.20373 0.14961,0.36098 0.29722,0.4522 0.12379,0.0765 0.28857,0.058 0.39872,-0.017 0.11016,-0.075 0.19143,-0.18896 0.26197,-0.32761 0.14107,-0.2773 0.23157,-0.66348 0.23157,-1.07521 0,-0.0279 0.0181,-0.12292 0.059,-0.2413 0.0408,-0.11838 0.10221,-0.26559 0.17809,-0.42789 0.15177,-0.32461 0.36333,-0.7117 0.59504,-1.07765 0.31499,-0.49748 0.57299,-0.82376 0.8096,-1.01929 0.23662,-0.19553 0.44469,-0.26788 0.71053,-0.27169 0.23763,-0.004 0.48917,-0.0499 0.71417,-0.12338 0.22499,-0.0735 0.42179,-0.16834 0.55493,-0.30147 0.13219,-0.1322 0.23917,-0.18467 0.28202,-0.19147 0.0429,-0.007 0.0259,-0.0153 0.0462,0.0292 0.0406,0.089 0.0297,0.44053 -0.1714,0.88193 -0.28455,0.62452 -0.32971,1.62423 -0.1866,3.15148 0.1379,1.47158 0.0652,2.44685 -0.13432,2.81962 -0.22267,0.41605 -0.30727,1.00136 -0.1787,1.40646 0.0911,0.28709 0.23131,0.5009 0.43216,0.61571 0.20084,0.11481 0.44594,0.11115 0.68864,0.0164 0.48539,-0.18949 1.02159,-0.7152 1.62345,-1.55295 0.50072,-0.69696 0.80964,-1.07698 1.07156,-1.25877 0.26193,-0.18179 0.48465,-0.19681 0.91719,-0.15499 0.43586,0.0421 0.64455,0.0982 0.75064,0.20969 0.10609,0.11154 0.16484,0.34229 0.20908,0.80596 0.0246,0.25782 -0.0335,0.77055 -0.15802,1.36027 -0.12451,0.58973 -0.31261,1.26529 -0.53427,1.88967 -0.45422,1.27947 -0.69677,2.02212 -0.75915,2.54306 -0.0624,0.52095 0.092,0.84019 0.37623,1.12445 0.0835,0.0835 0.16658,0.14987 0.26501,0.18903 0.0984,0.0392 0.21301,0.0425 0.31606,0.007 0.2061,-0.0704 0.37444,-0.24953 0.60659,-0.53548 0.20378,-0.251 0.36209,-0.38399 0.41878,-0.40662 0.0283,-0.0113 0.0118,-0.007 0.011,-0.008 -8.9e-4,-4.5e-4 0.0225,0.0203 0.0462,0.079 0.0666,0.16509 0.22717,0.37211 0.45221,0.64245 0.22503,0.27035 0.51037,0.58331 0.80413,0.87707 0.28537,0.28537 0.54548,0.58415 0.73119,0.83026 0.0928,0.12306 0.16734,0.23299 0.21576,0.31849 0.0484,0.0855 0.0626,0.15783 0.0626,0.1398 0,0.10414 0.0359,0.18475 0.0857,0.30086 0.0498,0.11611 0.1191,0.25423 0.20422,0.40966 0.17023,0.31087 0.40262,0.68759 0.65886,1.06002 0.24934,0.36241 0.45461,0.71442 0.58106,0.98161 0.0632,0.13359 0.10659,0.24728 0.12582,0.32214 0.01,0.0371 0.0122,0.0643 0.0122,0.0735 -0.0249,0.0305 -0.0515,0.0592 -0.0638,0.1009 -0.0172,0.0585 -0.01,0.13643 0.0267,0.19206 0.0735,0.11128 0.18678,0.12704 0.30147,0.12704 0.16931,0 0.32056,-0.0934 0.42121,-0.22793 0.10066,-0.13458 0.16652,-0.30935 0.21334,-0.51785 0.0936,-0.41701 0.10839,-0.97511 0.059,-1.61373 -0.0989,-1.27724 -0.4597,-2.86999 -1.04117,-4.18658 -0.70061,-1.58632 -0.79053,-3.16494 -0.36834,-6.81776 0.0718,-0.62121 0.10533,-1.20925 0.1009,-1.67208 -0.002,-0.23142 -0.0138,-0.43126 -0.0359,-0.59201 -0.0221,-0.16075 -0.0397,-0.27718 -0.12096,-0.38109 -0.0915,-0.11702 -0.22388,-0.40551 -0.3434,-0.75976 -0.11953,-0.35425 -0.23435,-0.77902 -0.3264,-1.19738 -0.0921,-0.41837 -0.16134,-0.83092 -0.19206,-1.15787 -0.0154,-0.16348 -0.0209,-0.30608 -0.0158,-0.41331 0.005,-0.10724 0.0298,-0.18115 0.0316,-0.18417 0.053,-0.0857 0.10326,-0.13606 0.1404,-0.15924 0.0371,-0.0232 0.0569,-0.0247 0.0857,-0.0189 0.0576,0.0118 0.17536,0.10248 0.29114,0.30512 0.23157,0.4053 0.45213,1.19006 0.55979,2.1954 0.0629,0.58776 0.16965,1.15053 0.29783,1.60704 0.12817,0.45652 0.25964,0.79999 0.44977,0.99012 0.22781,0.22781 0.48404,0.77274 0.52272,1.12505 0.18753,1.70834 0.5616,2.73979 1.43442,3.94467 0.44855,0.6192 0.7545,1.1972 0.86248,1.51283 -0.0307,-0.027 -0.049,-0.0375 -0.0869,-0.0754 -0.17434,-0.17434 -0.31935,-0.29581 -0.47348,-0.35556 -0.0771,-0.0299 -0.16193,-0.043 -0.24555,-0.0219 -0.0836,0.0211 -0.15497,0.0765 -0.20423,0.14405 -0.0985,0.13502 -0.14021,0.31635 -0.17079,0.56648 -0.0306,0.25013 -0.0432,0.57004 -0.0432,0.97128 0,0.75442 -0.0143,1.14398 0.13311,1.41132 0.0737,0.13367 0.21286,0.21684 0.35679,0.23826 0.14391,0.0214 0.29996,0.005 0.49779,-0.0164 0.17843,-0.0196 0.31094,-0.0234 0.40298,-0.006 0.092,0.0173 0.14527,0.0462 0.20725,0.11852 0.12399,0.14458 0.2489,0.50238 0.42122,1.17003 0.10846,0.42025 0.16595,0.76767 0.1793,1.0278 0.0134,0.26013 -0.0278,0.43189 -0.0626,0.48442 -0.0174,0.0263 -0.0202,0.0251 -0.0304,0.0267 -0.0102,0.001 -0.0412,3.1e-4 -0.0948,-0.0279 -0.10727,-0.0566 -0.28152,-0.21563 -0.48382,-0.48382 -0.21497,-0.285 -0.35724,-0.46089 -0.55067,-0.53062 -0.0967,-0.0348 -0.21563,-0.022 -0.30086,0.0316 -0.0852,0.0536 -0.14427,0.1306 -0.2018,0.22367 -0.29377,0.47534 -0.36214,1.26923 -0.296,2.10119 0.0661,0.83195 0.27716,1.69435 0.63091,2.28049 0.15377,0.2548 0.27306,0.44851 0.37805,0.59383 0.10499,0.14532 0.19224,0.24814 0.31545,0.30391 0.12322,0.0557 0.27383,0.0226 0.37867,-0.0505 0.10484,-0.0731 0.1976,-0.1771 0.31484,-0.3112 0.30483,-0.34866 0.67929,-1.1116 0.88862,-1.76386 0.11855,-0.36939 0.2421,-0.6246 0.34888,-0.75246 0.0534,-0.0639 0.0997,-0.0943 0.1325,-0.10515 0.0328,-0.0109 0.0569,-0.0106 0.10211,0.01 0.0903,0.0405 0.2423,0.19431 0.40601,0.4753 0.16372,0.281 0.34563,0.68209 0.54399,1.20042 0.55522,1.45088 0.58786,1.86761 0.32335,3.99815 -0.50048,4.03124 -1.21996,6.47662 -2.53151,8.64363 -0.20437,0.33767 -0.776,1.24246 -1.26607,2.00272 -0.50785,0.78789 -1.24433,2.44473 -1.66356,3.72829 -1.00791,3.08598 -1.57697,4.08306 -3.87173,6.78556 -1.0727,1.2633 -2.83526,3.33544 -3.91671,4.60474 -0.5378,0.63122 -1.07507,1.20576 -1.50432,1.6192 -0.21463,0.20672 -0.40252,0.37351 -0.54642,0.48503 -0.0719,0.0558 -0.13341,0.0977 -0.17748,0.12278 -0.0441,0.0251 -0.0772,0.0267 -0.0498,0.0267 -0.17172,0 -0.3344,0.0783 -0.48503,0.18963 -0.15062,0.11135 -0.2876,0.26013 -0.38353,0.43155 -0.11551,0.20642 -0.21487,0.29084 -0.24433,0.30816 -0.004,-0.007 -0.003,-0.002 -0.009,-0.0182 -0.0535,-0.15506 -0.0383,-0.6551 0.16107,-1.25087 0.483,-1.44361 0.88717,-5.11641 1.15179,-10.23304 0.0927,-1.79196 0.13541,-2.73741 0.0614,-3.38791 -0.074,-0.6505 -0.27868,-1.00229 -0.63638,-1.52438 -1.5564,-2.27173 -4.08842,-3.21267 -6.65731,-2.46892 -0.74558,0.21587 -1.23815,0.44563 -1.47028,0.7312 -0.058,0.0714 -0.1009,0.15047 -0.11488,0.23887 -0.014,0.0884 0.006,0.18274 0.0535,0.25953 0.0941,0.15358 0.2656,0.24754 0.50448,0.32517 0.10958,0.0356 0.51142,0.23847 1.00471,0.51907 0.49327,0.2806 1.09934,0.64365 1.69639,1.02051 l 2.09814,1.32502 -0.10089,1.23446 c -0.05,0.6094 -0.0868,0.93237 0.0237,1.17124 0.0552,0.11944 0.18591,0.20132 0.30937,0.21091 0.12346,0.01 0.24562,-0.0192 0.39751,-0.059 0.12415,-0.0325 0.21832,-0.0448 0.2808,-0.0401 0.0625,0.005 0.092,0.018 0.12764,0.0529 0.0714,0.0699 0.15466,0.28189 0.22854,0.67648 0.0907,0.48423 0.0375,1.78117 -0.13433,2.79288 -0.17448,1.0272 -0.52559,3.1102 -0.78042,4.62966 -0.6349,3.78565 -1.64694,5.71246 -4.47467,8.51781 -1.76772,1.75373 -2.72872,2.45293 -3.91671,2.86702 -0.92711,0.32317 -1.57939,0.64435 -1.95532,0.97918 -0.18796,0.16741 -0.31269,0.34383 -0.34341,0.54034 -0.0307,0.19651 0.0506,0.39342 0.20605,0.54885 0.14717,0.14717 0.17907,0.40706 0.0468,0.66068 -1.80218,3.45547 -1.88808,3.77589 -1.88542,6.87309 0.003,2.99932 -0.20777,4.26025 -1.76932,10.6269 -1.38157,5.6328 -1.69352,7.2682 -1.4794,8.24307 0.10483,0.47732 0.0113,1.00184 -0.15804,1.20589 -0.081,0.0976 -0.14144,0.17385 -0.18416,0.2407 -0.0213,0.0334 -0.0385,0.0639 -0.0517,0.10271 -0.0131,0.0388 -0.029,0.10147 0.0122,0.1708 0.0411,0.0693 0.11637,0.0888 0.15985,0.0912 0.0435,0.003 0.0773,-0.004 0.11488,-0.0127 0.0751,-0.0174 0.1631,-0.0482 0.27655,-0.0918 0.18761,-0.072 0.36273,-0.22139 0.52149,-0.4048 0.15877,-0.18342 0.29723,-0.40225 0.38232,-0.62604 0.0719,-0.18913 0.16849,-0.36254 0.25831,-0.48078 0.0449,-0.0591 0.0885,-0.10399 0.12096,-0.12946 0.0324,-0.0255 0.0516,-0.0249 0.034,-0.0249 -0.004,0 0.01,-0.003 0.0456,0.0456 0.0359,0.0485 0.0792,0.13746 0.1173,0.25406 0.0762,0.2332 0.136,0.57522 0.16776,0.9573 0.0635,0.76416 0.016,1.69792 -0.16654,2.30723 -0.30857,1.02993 -0.28691,1.50799 0.10576,2.34735 0.20432,0.43676 0.30983,1.45598 0.27534,2.59899 -0.0345,1.143 -0.19644,2.42377 -0.47044,3.44322 -0.17084,0.63563 0.0419,1.27774 0.55675,1.83679 0.51489,0.55906 1.32872,1.05342 2.40266,1.45874 1.34333,0.507 2.88136,0.7379 5.91761,0.89712 1.87883,0.0985 2.92332,0.17015 3.62131,0.30938 0.69798,0.13923 1.05065,0.33715 1.60522,0.72147 0.33916,0.23504 0.68204,0.44848 0.9652,0.60476 0.14157,0.0781 0.26824,0.14188 0.37441,0.18782 0.10616,0.0459 0.17864,0.0796 0.27897,0.0796 0.10456,0 0.17753,-0.0352 0.29358,-0.0839 0.11605,-0.0486 0.25733,-0.11654 0.41756,-0.19997 0.32047,-0.16686 0.7153,-0.39533 1.11168,-0.64671 2.1168,-1.34242 5.24302,-5.1781 6.73815,-8.23091 0.34804,-0.71065 0.73784,-1.44485 1.08433,-2.05317 0.34648,-0.60833 0.65656,-1.09736 0.81689,-1.28916 0.15429,-0.1846 0.28005,-0.31592 0.37258,-0.39569 0.0289,-0.0249 0.0176,-0.0153 0.0395,-0.0285 -0.007,0.0599 -0.0113,0.11748 -0.0413,0.22307 -0.16666,0.58564 -0.70043,1.74261 -1.5104,3.13506 -0.84646,1.45516 -1.97975,3.41584 -2.51936,4.35798 -0.61979,1.08212 -1.68359,2.2535 -3.00439,3.29917 -1.13452,0.89819 -3.0423,2.41573 -4.24067,3.37272 -0.59613,0.47606 -1.24422,0.95811 -1.80519,1.34934 -0.56097,0.39122 -1.04344,0.69418 -1.27518,0.80109 -1.11603,0.51488 -3.07801,1.25335 -4.95545,1.89453 -1.87744,0.64118 -3.6851,1.18793 -4.45704,1.32137 -0.45683,0.079 -1.8,0.14672 -3.55689,0.18964 -1.7569,0.0429 -3.94284,0.0648 -6.14432,0.0656 -2.20149,8.9e-4 -4.41924,-0.0198 -6.23914,-0.0614 -1.81761,-0.0415 -3.24421,-0.10595 -3.84013,-0.1872 -4.54327,-1.00868 -9.0549,-2.89748 -11.18972,-5.96502 -0.84478,-1.22128 -2.13591,-2.7748 -2.90168,-3.48456 -0.7341,-0.68042 -1.83637,-1.92403 -2.42575,-2.73695 -0.59929,-0.82659 -1.61568,-2.22127 -2.25862,-3.09981 -0.31898,-0.4359 -0.62986,-0.89621 -0.8722,-1.2843 -0.24233,-0.3881 -0.41895,-0.72091 -0.45524,-0.83391 -0.0457,-0.14231 -0.11527,-0.28292 -0.25164,-0.38049 -0.13636,-0.0976 -0.31689,-0.1465 -0.57741,-0.17262 -0.52104,-0.0522 -1.39124,-0.0122 -2.98312,0.079 l -3.43289,0.19692 -2.14131,-1.04603 c -1.30458,-0.63691 -2.44242,-1.44962 -3.22867,-2.24888 -0.78624,-0.79927 -1.20125,-1.58683 -1.13903,-2.12064 l 0.11731,-1.00593 -3.05909,-0.0195 c -1.69759,-0.0105 -2.7263,-0.12799 -3.20193,-0.38353 -0.23781,-0.12777 -0.33803,-0.26683 -0.36955,-0.46801 -0.0315,-0.20118 0.0225,-0.48168 0.16593,-0.84181 0.19996,-0.50189 0.16673,-1.16594 0,-1.88907 -0.16672,-0.72312 -0.47291,-1.50606 -0.85457,-2.23308 -0.38166,-0.72702 -0.83823,-1.39744 -1.31286,-1.89332 -0.47464,-0.49587 -0.96814,-0.83087 -1.45935,-0.83087 -0.33307,0 -0.91387,-0.19361 -1.20103,-0.40359 -0.16314,-0.11929 -0.24724,-0.23307 -0.27594,-0.33064 -0.0287,-0.0976 -0.015,-0.18974 0.0614,-0.31059 0.1528,-0.2417 0.58596,-0.548 1.28794,-0.83878 0.33809,-0.14003 0.60395,-0.31749 0.77617,-0.5683 0.17222,-0.25079 0.24009,-0.56592 0.21091,-0.94392 -0.0584,-0.75599 -0.4796,-1.79352 -1.26728,-3.36725 -0.79535,-1.58907 -1.30642,-2.50778 -1.86779,-3.07915 -0.56136,-0.57136 -1.1734,-0.77012 -2.08113,-0.90624 -0.74665,-0.11197 -1.47369,-0.39287 -2.00394,-0.73119 -0.53025,-0.33833 -0.83877,-0.73679 -0.83877,-1.01321 0,0.003 0.007,-0.0489 0.0255,-0.1161 0.0188,-0.0671 0.0479,-0.15644 0.0857,-0.26257 0.0756,-0.21226 0.18632,-0.49287 0.32336,-0.82054 0.27407,-0.65534 0.65346,-1.49846 1.07034,-2.3674 1.98272,-4.1327 2.6447,-7.31883 2.48411,-11.95374 l -0.11973,-3.4566 -1.79425,-3.64989 c -0.48805,-0.99285 -0.93178,-1.96799 -1.25269,-2.73634 -0.16046,-0.38418 -0.29059,-0.71696 -0.37927,-0.97249 -0.0887,-0.25554 -0.13189,-0.45409 -0.13189,-0.48321 0,-0.19448 -0.0331,-0.38806 -0.0893,-0.5531 -0.0563,-0.16505 -0.12419,-0.30642 -0.26075,-0.39082 -0.007,-0.005 -0.11631,-0.13189 -0.19997,-0.30756 -0.0837,-0.17565 -0.16511,-0.40167 -0.22124,-0.62725 -0.0649,-0.26097 -0.24399,-0.72416 -0.48503,-1.29037 -0.24105,-0.56621 -0.54328,-1.22711 -0.84972,-1.84835 -1.0716,-2.17246 -1.08612,-2.24664 -0.87767,-4.547 0.10218,-1.12766 0.17392,-1.72658 0.3507,-2.15832 0.17679,-0.43174 0.46389,-0.72735 1.04422,-1.2685 0.34181,-0.31873 0.65227,-0.64179 0.8801,-0.90988 0.11392,-0.13405 0.20688,-0.2539 0.27473,-0.35618 0.0678,-0.10228 0.12278,-0.16484 0.12278,-0.29296 0,-0.0937 -0.0344,-0.15691 -0.0784,-0.23461 -0.044,-0.0777 -0.10409,-0.16393 -0.1793,-0.26197 -0.15044,-0.19607 -0.36238,-0.43792 -0.62118,-0.71356 -0.5176,-0.5513 -1.22286,-1.23801 -1.98571,-1.94073 -1.5257,-1.40545 -3.26763,-2.8675 -4.21271,-3.4329 -2.75384,-1.64748 -4.3954,-4.07513 -4.41815,-6.46341 -0.006,-0.65575 0.0922,-1.06795 0.25711,-1.26364 0.0824,-0.0978 0.17791,-0.15174 0.31484,-0.17565 0.13693,-0.0239 0.3162,-0.0114 0.53852,0.0444 0.3311,0.0831 0.57636,0.11433 0.7865,0.0146 0.21015,-0.0997 0.32141,-0.31168 0.4127,-0.59929 0.10562,-0.33276 0.53091,-1.13311 0.92265,-1.71037 0.41287,-0.6084 0.9838,-1.74639 1.29098,-2.56799 0.34647,-0.92666 0.68975,-1.62826 1.01382,-2.08903 0.32408,-0.46078 0.62001,-0.66155 0.85215,-0.66616 0.29821,-0.006 0.56872,-0.22945 0.85701,-0.54946 0.28829,-0.31999 0.58654,-0.75543 0.86673,-1.24964 0.56038,-0.98845 1.04722,-2.20661 1.18097,-3.19221 0.0625,-0.46025 0.18559,-0.96584 0.33247,-1.40282 0.14688,-0.43697 0.32362,-0.80924 0.46254,-0.98343 1.05819,-1.32688 1.9467,-2.48229 2.57224,-3.33808 0.31277,-0.42789 0.55998,-0.78073 0.73059,-1.04482 0.0853,-0.13204 0.15113,-0.24183 0.19814,-0.33064 0.047,-0.0888 0.0839,-0.13455 0.0839,-0.24191 0,-0.16929 -0.10301,-0.3207 -0.24069,-0.38353 -0.13769,-0.0628 -0.29459,-0.0628 -0.4589,-0.0316 -0.32862,0.0625 -0.69936,0.26217 -0.96459,0.57924 -0.91061,1.0886 -1.80352,2.06799 -2.48836,2.7485 -0.34242,0.34027 -0.63367,0.60625 -0.84363,0.77071 -0.0896,0.0702 -0.15503,0.11039 -0.20727,0.13979 -0.0258,-0.0547 -0.0547,-0.11875 -0.0158,-0.2881 0.0487,-0.21188 0.16952,-0.50147 0.35739,-0.84364 0.37575,-0.68433 1.01731,-1.5824 1.86901,-2.58865 0.83866,-0.99084 1.30359,-1.59329 1.44597,-2.02278 0.0356,-0.10737 0.0516,-0.20874 0.0347,-0.30755 -0.017,-0.0988 -0.0748,-0.19048 -0.15317,-0.2492 -0.15672,-0.11744 -0.36359,-0.13736 -0.63029,-0.13736 -0.26298,0 -0.56597,0.13378 -0.90928,0.32882 -0.34332,0.19504 -0.71693,0.45834 -1.06609,0.74274 -0.34916,0.2844 -0.67304,0.5888 -0.91414,0.87038 -0.24111,0.28158 -0.41635,0.52247 -0.41635,0.77921 0,0.239 -0.19711,0.53463 -0.37988,0.60477 -0.20034,0.0769 -0.34564,0.0969 -0.40298,0.0887 -0.0286,-0.004 -0.0306,-0.009 -0.0291,-0.008 0.001,0.002 -0.003,8.9e-4 -0.004,-0.0249 -0.001,-0.0519 0.0339,-0.18525 0.12946,-0.36103 0.0955,-0.17578 0.24581,-0.39703 0.44917,-0.65522 0.44479,-0.56473 1.26728,-1.62657 1.8295,-2.36194 0.97227,-1.2717 1.74987,-2.21898 2.33398,-2.84332 0.29205,-0.31217 0.53622,-0.54355 0.72694,-0.69229 0.19071,-0.14874 0.33509,-0.2024 0.36954,-0.2024 0.0778,0 0.13107,-0.0249 0.19572,-0.0559 0.0646,-0.0309 0.13598,-0.0728 0.21637,-0.1252 0.16079,-0.10489 0.35713,-0.252 0.57985,-0.43276 0.44545,-0.36153 0.9951,-0.85645 1.54566,-1.40161 0.55333,-0.54791 1.15732,-1.06873 1.69031,-1.47028 0.53298,-0.40156 1.00942,-0.68427 1.24296,-0.75125 0.40756,-0.11689 0.70996,-0.26283 0.94028,-0.50448 0.23033,-0.24165 0.37836,-0.56468 0.5136,-1.01443 0.15864,-0.5276 0.67618,-1.37414 1.21744,-2.06655 0.27062,-0.3462 0.54802,-0.65678 0.78528,-0.87584 0.11863,-0.10954 0.2274,-0.19658 0.31606,-0.25224 0.0887,-0.0557 0.15871,-0.0742 0.17444,-0.0742 0.0756,0 0.11149,-0.0218 0.16472,-0.0462 0.0532,-0.0244 0.11355,-0.0573 0.18355,-0.0985 0.14001,-0.0824 0.31718,-0.19795 0.52211,-0.34037 0.40986,-0.28484 0.93036,-0.67569 1.46603,-1.1056 0.5284,-0.42406 1.0736,-0.81018 1.52195,-1.08797 0.22417,-0.1389 0.42409,-0.2506 0.58289,-0.32579 0.1588,-0.0752 0.28771,-0.10758 0.30876,-0.10758 0.20358,0 0.47603,-0.0765 0.79806,-0.19207 0.32202,-0.1156 0.68254,-0.27389 1.00956,-0.44917 0.62689,-0.33599 1.14416,-0.52582 1.51952,-0.57437 0.37536,-0.0486 0.57812,0.0278 0.68864,0.20665 0.0537,0.0869 0.14567,0.13775 0.23583,0.15864 0.0902,0.0209 0.18446,0.0188 0.28628,0.005 0.20365,-0.0278 0.43806,-0.10717 0.68439,-0.22063 0.49266,-0.22692 1.02801,-0.58854 1.36331,-0.99255 0.18615,-0.22429 0.60775,-0.43093 0.83574,-0.43093 0.39214,0 0.70692,-0.23284 0.85944,-0.58167 0.15251,-0.34884 0.1668,-0.80749 0.0383,-1.31955 -0.086,-0.34273 -0.009,-0.96063 0.15864,-1.27457 0.081,-0.15141 0.14152,-0.27587 0.17262,-0.39812 0.0311,-0.12224 0.0257,-0.25612 -0.0407,-0.36468 -0.13273,-0.21712 -0.39374,-0.30372 -0.82844,-0.45525 -0.2508,-0.0874 -0.46603,-0.20529 -0.60052,-0.31363 -0.0672,-0.0542 -0.11331,-0.10657 -0.13432,-0.14162 -0.021,-0.0351 -0.0142,-0.0406 -0.017,-0.0322 -0.003,0.009 0.0208,-0.0349 0.0814,-0.0845 0.0606,-0.0496 0.15288,-0.11077 0.26986,-0.17748 0.23397,-0.13342 0.56865,-0.29038 0.97675,-0.45829 0.81619,-0.33581 1.9269,-0.71629 3.14722,-1.06427 0.80863,-0.23058 2.33956,-0.9896 3.46451,-1.70672 1.03395,-0.65912 2.04567,-1.23804 2.81779,-1.62649 0.38606,-0.19423 0.71288,-0.34108 0.94696,-0.42547 0.11704,-0.0422 0.21192,-0.0684 0.27108,-0.0778 0.012,-0.002 0.0139,-0.001 0.0225,-0.002 z"
       id="path167481"
       inkscape:connector-curvature="0" />
    <g
       id="g3484"
       gcodetools="Gcodetools orientation group"
       transform="translate(269.79254,-912.5336)">
      <g
         id="g3486"
         gcodetools="Gcodetools orientation point (2 points)">
        <path
           id="path3488"
           style="fill:#000000;stroke:none"
           gcodetools="Gcodetools orientation point arrow"
           d="m 0,1052.3622 2.9375,-6.3437 0.8125,1.9062 6.843749,-6.8437 0,0 0.6875,0.6875 -6.8437504,6.8437 1.90625,0.8125 z"
           inkscape:connector-curvature="0" />
        <text
           id="text3490"
           xml:space="preserve"
           y="1042.3622"
           x="10"
           style="font-style:normal;font-variant:normal;font-weight:normal;font-stretch:normal;font-size:10px;font-family:'DejaVu Sans';fill:#000000;fill-opacity:1;stroke:none"
           gcodetools="Gcodetools orientation point text"><tspan
             id="tspan3492"
             sodipodi:role="line"
             y="1042.3622"
             x="10">(0.0; 0.0; 0.0)</tspan></text>
      </g>
      <g
         id="g3494"
         gcodetools="Gcodetools orientation point (2 points)">
        <path
           id="path3497"
           style="fill:#000000;stroke:none"
           gcodetools="Gcodetools orientation point arrow"
           d="m 354.33071,1052.3622 2.9375,-6.3437 0.8125,1.9062 6.84375,-6.8437 0,0 0.6875,0.6875 -6.84375,6.8437 1.90625,0.8125 z"
           inkscape:connector-curvature="0" />
        <text
           id="text3499"
           xml:space="preserve"
           y="1042.3622"
           x="364.33072"
           style="font-style:normal;font-variant:normal;font-weight:normal;font-stretch:normal;font-size:10px;font-family:'DejaVu Sans';fill:#000000;fill-opacity:1;stroke:none"
           gcodetools="Gcodetools orientation point text"><tspan
             id="tspan3501"
             sodipodi:role="line"
             y="1042.3622"
             x="364.33072">(100.0; 0.0; -0.125)</tspan></text>
      </g>
    </g>
    <g
       id="g3503"
       transform="matrix(1.000000,0.000000,0.000000,1.000000,308.623080,316.586505)"
       gcodetools="Gcodetools tool definition">
      <path
         id="path3505"
         d="m -20,-20 l 400,0 0,370.000000 -400,0 z "
         style="fill:#00ff00;fill-opacity:0.5;stroke:#444444; stroke-width:1px;"
         gcodetools="Gcodetools tool background" />
      <g
         id="g3507"
         gcodetools="Gcodetools tool parameter">
        <text
           id="text3509"
           xml:space="preserve"
           y="0"
           x="0"
           style="font-family:DejaVu Sans;font-style:normal;font-variant:normal;font-weight:normal;font-stretch:normal;font-family:DejaVu Sans;fill:#000000;fill-opacity:1;stroke:none;font-size:20.000000px;"
           gcodetools="Gcodetools tool definition field name"><tspan
             id="tspan3511"
             sodipodi:role="line"
             y="0"
             x="0">name</tspan></text>
        <text
           id="text3513"
           xml:space="preserve"
           y="0"
           x="150"
           style="font-family:DejaVu Sans;font-style:normal;font-variant:normal;font-weight:normal;font-stretch:normal;font-family:DejaVu Sans;fill:#000000;fill-opacity:1;stroke:none;font-size:20.000000px;"
           gcodetools="Gcodetools tool definition field value"><tspan
             id="tspan3515"
             sodipodi:role="line"
             y="0"
             x="150">Default tool</tspan></text>
      </g>
      <g
         id="g3517"
         gcodetools="Gcodetools tool parameter">
        <text
           id="text3519"
           xml:space="preserve"
           y="20"
           x="0"
           style="font-family:DejaVu Sans;font-style:normal;font-variant:normal;font-weight:normal;font-stretch:normal;font-family:DejaVu Sans;fill:#000000;fill-opacity:1;stroke:none;font-size:10.000000px;"
           gcodetools="Gcodetools tool definition field name"><tspan
             id="tspan3521"
             sodipodi:role="line"
             y="20"
             x="0">id</tspan></text>
        <text
           id="text3523"
           xml:space="preserve"
           y="20"
           x="150"
           style="font-family:DejaVu Sans;font-style:normal;font-variant:normal;font-weight:normal;font-stretch:normal;font-family:DejaVu Sans;fill:#000000;fill-opacity:1;stroke:none;font-size:10.000000px;"
           gcodetools="Gcodetools tool definition field value"><tspan
             id="tspan3525"
             sodipodi:role="line"
             y="20"
             x="150">default tool</tspan></text>
      </g>
      <g
         id="g3527"
         gcodetools="Gcodetools tool parameter">
        <text
           id="text3529"
           xml:space="preserve"
           y="35"
           x="0"
           style="font-family:DejaVu Sans;font-style:normal;font-variant:normal;font-weight:normal;font-stretch:normal;font-family:DejaVu Sans;fill:#000000;fill-opacity:1;stroke:none;font-size:10.000000px;"
           gcodetools="Gcodetools tool definition field name"><tspan
             id="tspan3531"
             sodipodi:role="line"
             y="35"
             x="0">diameter</tspan></text>
        <text
           id="text3533"
           xml:space="preserve"
           y="35"
           x="150"
           style="font-style:normal;font-variant:normal;font-weight:normal;font-stretch:normal;font-size:10px;font-family:'DejaVu Sans';fill:#000000;fill-opacity:1;stroke:none"
           gcodetools="Gcodetools tool definition field value"><tspan
             id="tspan3535"
             sodipodi:role="line"
             y="35"
             x="150">0.5</tspan></text>
      </g>
      <g
         id="g3537"
         gcodetools="Gcodetools tool parameter">
        <text
           id="text3539"
           xml:space="preserve"
           y="50"
           x="0"
           style="font-family:DejaVu Sans;font-style:normal;font-variant:normal;font-weight:normal;font-stretch:normal;font-family:DejaVu Sans;fill:#000000;fill-opacity:1;stroke:none;font-size:10.000000px;"
           gcodetools="Gcodetools tool definition field name"><tspan
             id="tspan3541"
             sodipodi:role="line"
             y="50"
             x="0">feed</tspan></text>
        <text
           id="text3543"
           xml:space="preserve"
           y="50"
           x="150"
           style="font-style:normal;font-variant:normal;font-weight:normal;font-stretch:normal;font-size:10px;font-family:'DejaVu Sans';fill:#000000;fill-opacity:1;stroke:none"
           gcodetools="Gcodetools tool definition field value"><tspan
             id="tspan3545"
             sodipodi:role="line"
             y="50"
             x="150">80.0</tspan></text>
      </g>
      <g
         id="g3547"
         gcodetools="Gcodetools tool parameter">
        <text
           id="text3549"
           xml:space="preserve"
           y="65"
           x="0"
           style="font-family:DejaVu Sans;font-style:normal;font-variant:normal;font-weight:normal;font-stretch:normal;font-family:DejaVu Sans;fill:#000000;fill-opacity:1;stroke:none;font-size:10.000000px;"
           gcodetools="Gcodetools tool definition field name"><tspan
             id="tspan3551"
             sodipodi:role="line"
             y="65"
             x="0">shape</tspan></text>
        <text
           id="text3553"
           xml:space="preserve"
           y="65"
           x="150"
           style="font-family:DejaVu Sans;font-style:normal;font-variant:normal;font-weight:normal;font-stretch:normal;font-family:DejaVu Sans;fill:#000000;fill-opacity:1;stroke:none;font-size:10.000000px;"
           gcodetools="Gcodetools tool definition field value"><tspan
             id="tspan3555"
             sodipodi:role="line"
             y="65"
             x="150">10</tspan></text>
      </g>
      <g
         id="g3557"
         gcodetools="Gcodetools tool parameter">
        <text
           id="text3559"
           xml:space="preserve"
           y="80"
           x="0"
           style="font-family:DejaVu Sans;font-style:normal;font-variant:normal;font-weight:normal;font-stretch:normal;font-family:DejaVu Sans;fill:#000000;fill-opacity:1;stroke:none;font-size:10.000000px;"
           gcodetools="Gcodetools tool definition field name"><tspan
             id="tspan3561"
             sodipodi:role="line"
             y="80"
             x="0">penetration angle</tspan></text>
        <text
           id="text3563"
           xml:space="preserve"
           y="80"
           x="150"
           style="font-family:DejaVu Sans;font-style:normal;font-variant:normal;font-weight:normal;font-stretch:normal;font-family:DejaVu Sans;fill:#000000;fill-opacity:1;stroke:none;font-size:10.000000px;"
           gcodetools="Gcodetools tool definition field value"><tspan
             id="tspan3565"
             sodipodi:role="line"
             y="80"
             x="150">90.0</tspan></text>
      </g>
      <g
         id="g3567"
         gcodetools="Gcodetools tool parameter">
        <text
           id="text3569"
           xml:space="preserve"
           y="95"
           x="0"
           style="font-family:DejaVu Sans;font-style:normal;font-variant:normal;font-weight:normal;font-stretch:normal;font-family:DejaVu Sans;fill:#000000;fill-opacity:1;stroke:none;font-size:10.000000px;"
           gcodetools="Gcodetools tool definition field name"><tspan
             id="tspan3571"
             sodipodi:role="line"
             y="95"
             x="0">penetration feed</tspan></text>
        <text
           id="text3573"
           xml:space="preserve"
           y="95"
           x="150"
           style="font-style:normal;font-variant:normal;font-weight:normal;font-stretch:normal;font-size:10px;font-family:'DejaVu Sans';fill:#000000;fill-opacity:1;stroke:none"
           gcodetools="Gcodetools tool definition field value"><tspan
             id="tspan3575"
             sodipodi:role="line"
             y="95"
             x="150">1000.0</tspan></text>
      </g>
      <g
         id="g3577"
         gcodetools="Gcodetools tool parameter">
        <text
           id="text3579"
           xml:space="preserve"
           y="110"
           x="0"
           style="font-family:DejaVu Sans;font-style:normal;font-variant:normal;font-weight:normal;font-stretch:normal;font-family:DejaVu Sans;fill:#000000;fill-opacity:1;stroke:none;font-size:10.000000px;"
           gcodetools="Gcodetools tool definition field name"><tspan
             id="tspan3581"
             sodipodi:role="line"
             y="110"
             x="0">passing feed</tspan></text>
        <text
           id="text3583"
           xml:space="preserve"
           y="110"
           x="150"
           style="font-family:DejaVu Sans;font-style:normal;font-variant:normal;font-weight:normal;font-stretch:normal;font-family:DejaVu Sans;fill:#000000;fill-opacity:1;stroke:none;font-size:10.000000px;"
           gcodetools="Gcodetools tool definition field value"><tspan
             id="tspan3585"
             sodipodi:role="line"
             y="110"
             x="150">800</tspan></text>
      </g>
      <g
         id="g3587"
         gcodetools="Gcodetools tool parameter">
        <text
           id="text3589"
           xml:space="preserve"
           y="125"
           x="0"
           style="font-family:DejaVu Sans;font-style:normal;font-variant:normal;font-weight:normal;font-stretch:normal;font-family:DejaVu Sans;fill:#000000;fill-opacity:1;stroke:none;font-size:10.000000px;"
           gcodetools="Gcodetools tool definition field name"><tspan
             id="tspan3591"
             sodipodi:role="line"
             y="125"
             x="0">depth step</tspan></text>
        <text
           id="text3593"
           xml:space="preserve"
           y="125"
           x="150"
           style="font-family:DejaVu Sans;font-style:normal;font-variant:normal;font-weight:normal;font-stretch:normal;font-family:DejaVu Sans;fill:#000000;fill-opacity:1;stroke:none;font-size:10.000000px;"
           gcodetools="Gcodetools tool definition field value"><tspan
             id="tspan3595"
             sodipodi:role="line"
             y="125"
             x="150">1.0</tspan></text>
      </g>
      <g
         id="g3597"
         gcodetools="Gcodetools tool parameter">
        <text
           id="text3599"
           xml:space="preserve"
           y="140"
           x="0"
           style="font-family:DejaVu Sans;font-style:normal;font-variant:normal;font-weight:normal;font-stretch:normal;font-family:DejaVu Sans;fill:#000000;fill-opacity:1;stroke:none;font-size:10.000000px;"
           gcodetools="Gcodetools tool definition field name"><tspan
             id="tspan3601"
             sodipodi:role="line"
             y="140"
             x="0">in trajectotry</tspan></text>
        <text
           id="text3603"
           xml:space="preserve"
           y="140"
           x="150"
           style="font-family:DejaVu Sans;font-style:normal;font-variant:normal;font-weight:normal;font-stretch:normal;font-family:DejaVu Sans;fill:#000000;fill-opacity:1;stroke:none;font-size:10.000000px;"
           gcodetools="Gcodetools tool definition field value"><tspan
             id="tspan3605"
             sodipodi:role="line"
             y="140"
             x="150">(None)</tspan></text>
      </g>
      <g
         id="g3607"
         gcodetools="Gcodetools tool parameter">
        <text
           id="text3609"
           xml:space="preserve"
           y="155"
           x="0"
           style="font-family:DejaVu Sans;font-style:normal;font-variant:normal;font-weight:normal;font-stretch:normal;font-family:DejaVu Sans;fill:#000000;fill-opacity:1;stroke:none;font-size:10.000000px;"
           gcodetools="Gcodetools tool definition field name"><tspan
             id="tspan3611"
             sodipodi:role="line"
             y="155"
             x="0">out trajectotry</tspan></text>
        <text
           id="text3613"
           xml:space="preserve"
           y="155"
           x="150"
           style="font-family:DejaVu Sans;font-style:normal;font-variant:normal;font-weight:normal;font-stretch:normal;font-family:DejaVu Sans;fill:#000000;fill-opacity:1;stroke:none;font-size:10.000000px;"
           gcodetools="Gcodetools tool definition field value"><tspan
             id="tspan3615"
             sodipodi:role="line"
             y="155"
             x="150">(None)</tspan></text>
      </g>
      <g
         id="g3617"
         gcodetools="Gcodetools tool parameter">
        <text
           id="text3619"
           xml:space="preserve"
           y="170"
           x="0"
           style="font-family:DejaVu Sans;font-style:normal;font-variant:normal;font-weight:normal;font-stretch:normal;font-family:DejaVu Sans;fill:#000000;fill-opacity:1;stroke:none;font-size:10.000000px;"
           gcodetools="Gcodetools tool definition field name"><tspan
             id="tspan3621"
             sodipodi:role="line"
             y="170"
             x="0">gcode before path</tspan></text>
        <text
           id="text3623"
           xml:space="preserve"
           y="170"
           x="150"
           style="font-style:normal;font-variant:normal;font-weight:normal;font-stretch:normal;font-size:10px;font-family:'DejaVu Sans';fill:#000000;fill-opacity:1;stroke:none"
           gcodetools="Gcodetools tool definition field value"><tspan
             id="tspan3625"
             sodipodi:role="line"
             y="170"
             x="150">M3</tspan></text>
      </g>
      <g
         id="g3627"
         gcodetools="Gcodetools tool parameter">
        <text
           id="text3629"
           xml:space="preserve"
           y="185"
           x="0"
           style="font-family:DejaVu Sans;font-style:normal;font-variant:normal;font-weight:normal;font-stretch:normal;font-family:DejaVu Sans;fill:#000000;fill-opacity:1;stroke:none;font-size:10.000000px;"
           gcodetools="Gcodetools tool definition field name"><tspan
             id="tspan3631"
             sodipodi:role="line"
             y="185"
             x="0">gcode after path</tspan></text>
        <text
           id="text3633"
           xml:space="preserve"
           y="185"
           x="150"
           style="font-style:normal;font-variant:normal;font-weight:normal;font-stretch:normal;font-size:10px;font-family:'DejaVu Sans';fill:#000000;fill-opacity:1;stroke:none"
           gcodetools="Gcodetools tool definition field value"><tspan
             id="tspan3635"
             sodipodi:role="line"
             y="185"
             x="150">M5</tspan></text>
      </g>
      <g
         id="g3637"
         gcodetools="Gcodetools tool parameter">
        <text
           id="text3639"
           xml:space="preserve"
           y="200"
           x="0"
           style="font-family:DejaVu Sans;font-style:normal;font-variant:normal;font-weight:normal;font-stretch:normal;font-family:DejaVu Sans;fill:#000000;fill-opacity:1;stroke:none;font-size:10.000000px;"
           gcodetools="Gcodetools tool definition field name"><tspan
             id="tspan3641"
             sodipodi:role="line"
             y="200"
             x="0">sog</tspan></text>
        <text
           id="text3643"
           xml:space="preserve"
           y="200"
           x="150"
           style="font-family:DejaVu Sans;font-style:normal;font-variant:normal;font-weight:normal;font-stretch:normal;font-family:DejaVu Sans;fill:#000000;fill-opacity:1;stroke:none;font-size:10.000000px;"
           gcodetools="Gcodetools tool definition field value"><tspan
             id="tspan3645"
             sodipodi:role="line"
             y="200"
             x="150">(None)</tspan></text>
      </g>
      <g
         id="g3647"
         gcodetools="Gcodetools tool parameter">
        <text
           id="text3649"
           xml:space="preserve"
           y="215"
           x="0"
           style="font-family:DejaVu Sans;font-style:normal;font-variant:normal;font-weight:normal;font-stretch:normal;font-family:DejaVu Sans;fill:#000000;fill-opacity:1;stroke:none;font-size:10.000000px;"
           gcodetools="Gcodetools tool definition field name"><tspan
             id="tspan3651"
             sodipodi:role="line"
             y="215"
             x="0">spinlde rpm</tspan></text>
        <text
           id="text3653"
           xml:space="preserve"
           y="215"
           x="150"
           style="font-family:DejaVu Sans;font-style:normal;font-variant:normal;font-weight:normal;font-stretch:normal;font-family:DejaVu Sans;fill:#000000;fill-opacity:1;stroke:none;font-size:10.000000px;"
           gcodetools="Gcodetools tool definition field value"><tspan
             id="tspan3655"
             sodipodi:role="line"
             y="215"
             x="150">(None)</tspan></text>
      </g>
      <g
         id="g3657"
         gcodetools="Gcodetools tool parameter">
        <text
           id="text3659"
           xml:space="preserve"
           y="230"
           x="0"
           style="font-family:DejaVu Sans;font-style:normal;font-variant:normal;font-weight:normal;font-stretch:normal;font-family:DejaVu Sans;fill:#000000;fill-opacity:1;stroke:none;font-size:10.000000px;"
           gcodetools="Gcodetools tool definition field name"><tspan
             id="tspan3661"
             sodipodi:role="line"
             y="230"
             x="0">CW or CCW</tspan></text>
        <text
           id="text3663"
           xml:space="preserve"
           y="230"
           x="150"
           style="font-family:DejaVu Sans;font-style:normal;font-variant:normal;font-weight:normal;font-stretch:normal;font-family:DejaVu Sans;fill:#000000;fill-opacity:1;stroke:none;font-size:10.000000px;"
           gcodetools="Gcodetools tool definition field value"><tspan
             id="tspan3665"
             sodipodi:role="line"
             y="230"
             x="150">(None)</tspan></text>
      </g>
      <g
         id="g3667"
         gcodetools="Gcodetools tool parameter">
        <text
           id="text3669"
           xml:space="preserve"
           y="245"
           x="0"
           style="font-family:DejaVu Sans;font-style:normal;font-variant:normal;font-weight:normal;font-stretch:normal;font-family:DejaVu Sans;fill:#000000;fill-opacity:1;stroke:none;font-size:10.000000px;"
           gcodetools="Gcodetools tool definition field name"><tspan
             id="tspan3671"
             sodipodi:role="line"
             y="245"
             x="0">tool change gcode</tspan></text>
        <text
           id="text3673"
           xml:space="preserve"
           y="245"
           x="150"
           style="font-family:DejaVu Sans;font-style:normal;font-variant:normal;font-weight:normal;font-stretch:normal;font-family:DejaVu Sans;fill:#000000;fill-opacity:1;stroke:none;font-size:10.000000px;"
           gcodetools="Gcodetools tool definition field value"><tspan
             id="tspan3675"
             sodipodi:role="line"
             y="245"
             x="150">(None)</tspan></text>
      </g>
      <g
         id="g3677"
         gcodetools="Gcodetools tool parameter">
        <text
           id="text3679"
           xml:space="preserve"
           y="260"
           x="0"
           style="font-family:DejaVu Sans;font-style:normal;font-variant:normal;font-weight:normal;font-stretch:normal;font-family:DejaVu Sans;fill:#000000;fill-opacity:1;stroke:none;font-size:10.000000px;"
           gcodetools="Gcodetools tool definition field name"><tspan
             id="tspan3681"
             sodipodi:role="line"
             y="260"
             x="0">4th axis meaning</tspan></text>
        <text
           id="text3683"
           xml:space="preserve"
           y="260"
           x="150"
           style="font-family:DejaVu Sans;font-style:normal;font-variant:normal;font-weight:normal;font-stretch:normal;font-family:DejaVu Sans;fill:#000000;fill-opacity:1;stroke:none;font-size:10.000000px;"
           gcodetools="Gcodetools tool definition field value"><tspan
             id="tspan3685"
             sodipodi:role="line"
             y="260"
             x="150">(None)</tspan></text>
      </g>
      <g
         id="g3687"
         gcodetools="Gcodetools tool parameter">
        <text
           id="text3689"
           xml:space="preserve"
           y="275"
           x="0"
           style="font-family:DejaVu Sans;font-style:normal;font-variant:normal;font-weight:normal;font-stretch:normal;font-family:DejaVu Sans;fill:#000000;fill-opacity:1;stroke:none;font-size:10.000000px;"
           gcodetools="Gcodetools tool definition field name"><tspan
             id="tspan3691"
             sodipodi:role="line"
             y="275"
             x="0">4th axis offset</tspan></text>
        <text
           id="text3693"
           xml:space="preserve"
           y="275"
           x="150"
           style="font-family:DejaVu Sans;font-style:normal;font-variant:normal;font-weight:normal;font-stretch:normal;font-family:DejaVu Sans;fill:#000000;fill-opacity:1;stroke:none;font-size:10.000000px;"
           gcodetools="Gcodetools tool definition field value"><tspan
             id="tspan3695"
             sodipodi:role="line"
             y="275"
             x="150">0.0</tspan></text>
      </g>
      <g
         id="g3697"
         gcodetools="Gcodetools tool parameter">
        <text
           id="text3699"
           xml:space="preserve"
           y="290"
           x="0"
           style="font-family:DejaVu Sans;font-style:normal;font-variant:normal;font-weight:normal;font-stretch:normal;font-family:DejaVu Sans;fill:#000000;fill-opacity:1;stroke:none;font-size:10.000000px;"
           gcodetools="Gcodetools tool definition field name"><tspan
             id="tspan3701"
             sodipodi:role="line"
             y="290"
             x="0">4th axis scale</tspan></text>
        <text
           id="text3703"
           xml:space="preserve"
           y="290"
           x="150"
           style="font-family:DejaVu Sans;font-style:normal;font-variant:normal;font-weight:normal;font-stretch:normal;font-family:DejaVu Sans;fill:#000000;fill-opacity:1;stroke:none;font-size:10.000000px;"
           gcodetools="Gcodetools tool definition field value"><tspan
             id="tspan3705"
             sodipodi:role="line"
             y="290"
             x="150">1.0</tspan></text>
      </g>
      <g
         id="g3707"
         gcodetools="Gcodetools tool parameter">
        <text
           id="text3709"
           xml:space="preserve"
           y="305"
           x="0"
           style="font-family:DejaVu Sans;font-style:normal;font-variant:normal;font-weight:normal;font-stretch:normal;font-family:DejaVu Sans;fill:#000000;fill-opacity:1;stroke:none;font-size:10.000000px;"
           gcodetools="Gcodetools tool definition field name"><tspan
             id="tspan3711"
             sodipodi:role="line"
             y="305"
             x="0">fine feed</tspan></text>
        <text
           id="text3713"
           xml:space="preserve"
           y="305"
           x="150"
           style="font-style:normal;font-variant:normal;font-weight:normal;font-stretch:normal;font-size:10px;font-family:'DejaVu Sans';fill:#000000;fill-opacity:1;stroke:none"
           gcodetools="Gcodetools tool definition field value"><tspan
             id="tspan3715"
             sodipodi:role="line"
             y="305"
             x="150">50</tspan></text>
      </g>
    </g>
    <g
       id="g3717" />
    <g
       id="g63231" />
    <g
       id="g122714" />
  </g>
  <defs
     id="defs43119">
    <marker
       style="overflow:visible"
       refY="-1.687441"
       refX="-4"
       orient="auto"
       id="CheckToolsAndOPMarker">
      <path
         id="path43122"
         style="fill:#000044; fill-rule:evenodd;stroke:none;"
         d=" m -4.588864,-1.687441 0.0,0.0 L -9.177728,0.0 c 0.73311,-0.996261 0.728882,-2.359329 0.0,-3.374882" />
    </marker>
  </defs>
  <defs
     id="defs43124">
    <marker
       style="overflow:visible"
       refY="-1.687441"
       refX="-4"
       orient="auto"
       id="DrawCurveMarker">
      <path
         id="path43127"
         style="fill:#000044; fill-rule:evenodd;stroke:none;"
         d="m -4.588864,-1.687441 0.0,0.0 L -9.177728,0.0 c 0.73311,-0.996261 0.728882,-2.359329 0.0,-3.374882" />
    </marker>
  </defs>
  <defs
     id="defs43129">
    <marker
       style="overflow:visible"
       refY="-1.687441"
       refX="4"
       orient="auto"
       id="DrawCurveMarker_r">
      <path
         id="path43132"
         style="fill:#000044; fill-rule:evenodd;stroke:none;"
         d="m 4.588864,-1.687441 0.0,0.0 L 9.177728,0.0 c -0.73311,-0.996261 -0.728882,-2.359329 0.0,-3.374882" />
    </marker>
  </defs>
  <defs
     id="defs43134">
    <marker
       style="overflow:visible"
       refY="-1.687441"
       refX="-4"
       orient="auto"
       id="InOutPathMarker">
      <path
         id="path43137"
         style="fill:#0072a7; fill-rule:evenodd;stroke:none;"
         d="m -4.588864,-1.687441 0.0,0.0 L -9.177728,0.0 c 0.73311,-0.996261 0.728882,-2.359329 0.0,-3.374882" />
    </marker>
  </defs>
</svg>
