<?xml version="1.0" encoding="UTF-8" standalone="no"?>
<!-- Created with Inkscape (http://www.inkscape.org/) -->

<svg
   xmlns:dc="http://purl.org/dc/elements/1.1/"
   xmlns:cc="http://creativecommons.org/ns#"
   xmlns:rdf="http://www.w3.org/1999/02/22-rdf-syntax-ns#"
   xmlns:svg="http://www.w3.org/2000/svg"
   xmlns="http://www.w3.org/2000/svg"
   xmlns:sodipodi="http://sodipodi.sourceforge.net/DTD/sodipodi-0.dtd"
   xmlns:inkscape="http://www.inkscape.org/namespaces/inkscape"
   width="210mm"
   height="297mm"
   viewBox="0 0 744.09448819 1052.3622047"
   id="svg2"
   version="1.1"
   inkscape:version="0.91 r13725"
   sodipodi:docname="shit_bros.svg">
  <sodipodi:namedview
     id="base"
     pagecolor="#ffffff"
     bordercolor="#666666"
     borderopacity="1.0"
     inkscape:pageopacity="0.0"
     inkscape:pageshadow="2"
     inkscape:zoom="0.57679761"
     inkscape:cx="372.04724"
     inkscape:cy="526.1811"
     inkscape:document-units="px"
     inkscape:current-layer="layer1"
     showgrid="false"
     inkscape:window-width="1215"
     inkscape:window-height="776"
     inkscape:window-x="65"
     inkscape:window-y="24"
     inkscape:window-maximized="1" />
  <defs
     id="defs4" />
  <metadata
     id="metadata7">
    <rdf:RDF>
      <cc:Work
         rdf:about="">
        <dc:format>image/svg+xml</dc:format>
        <dc:type
           rdf:resource="http://purl.org/dc/dcmitype/StillImage" />
        <dc:title />
      </cc:Work>
    </rdf:RDF>
  </metadata>
  <g
     id="layer1"
     inkscape:groupmode="layer"
     inkscape:label="Layer 1">
    <g
       transform="translate(120.20815,77.27667)"
       id="g3347">
      <g
         transform="translate(-97.531948,-168.33292)"
         id="g4189" />
    </g>
    <path
       inkscape:connector-curvature="0"
       id="path3349"
       d="m 181.42178,850.02454 c -26.4168,-5.74726 -44.3689,-23.94458 -49.13509,-49.80626 -4.21676,-22.88034 6.00108,-47.30313 25.13634,-60.08116 7.96948,-5.32182 17.03545,-8.5725 33.17155,-11.89393 l 4.33524,-0.89235 -4.60923,-5.8152 c -6.78122,-8.55545 -10.10558,-20.31843 -9.1404,-32.34252 1.83337,-22.83996 16.28654,-38.45094 39.01594,-42.14137 l 5.83126,-0.9468 -4.72781,-8.37725 c -8.77628,-15.55071 -9.29083,-24.15758 -1.67718,-28.05464 2.26103,-1.1573 9.59806,-3.60128 16.30454,-5.43107 16.72856,-4.56421 26.07413,-9.63514 33.67838,-18.27403 6.8624,-7.79611 12.58767,-22.65196 12.79087,-33.18962 0.23096,-11.97642 1.03702,-12.14211 14.76783,-3.03592 6.84596,4.5402 19.88268,15.63712 28.97046,24.65983 12.85086,12.75881 17.70158,18.81113 21.82499,27.23123 6.43854,13.14768 7.98421,27.82815 3.94722,37.49004 -1.38619,3.31758 -2.33545,6.19919 -2.10948,6.40358 0.22596,0.20437 4.84683,1.49864 10.26859,2.87612 22.1804,5.63528 35.55438,22.55591 35.31224,44.67671 -0.1246,11.38527 -4.42855,22.99174 -11.11505,29.97417 l -4.03236,4.2108 4.50642,0.95392 c 21.78731,4.61193 27.38213,7.23436 39.12206,18.3375 23.90165,22.60517 24.82084,61.41605 2.03992,86.13042 -7.8706,8.53861 -19.06499,14.55252 -32.31421,17.36004 -14.8311,3.14271 -197.70372,3.12355 -212.16304,-0.0222 z"
       style="fill-opacity:1;fill:none;stroke:#000000;stroke-opacity:1;stroke-width:1.41732283;stroke-miterlimit:4;stroke-dasharray:none"
       transform="translate(120.20815,77.27667)" />
    <g
       id="text4155"
       style="font-style:normal;font-weight:normal;font-size:61.88814545px;line-height:125%;font-family:Sans;letter-spacing:0px;word-spacing:0px;fill:none;fill-opacity:1;stroke:#000000;stroke-width:1.41732283;stroke-linecap:butt;stroke-linejoin:miter;stroke-opacity:1;stroke-miterlimit:4;stroke-dasharray:none"
       transform="matrix(0.67687897,-0.73609433,0.73609433,0.67687897,120.20815,77.27667)">
      <path
         inkscape:connector-curvature="0"
         d="m -396.26407,682.18203 -30.38874,1.97632 -2.10008,-32.29166 14.90605,-0.96941 c 5.67026,-0.36877 9.74391,0.53411 12.22093,2.70863 2.47578,2.15528 3.88679,5.89508 4.23306,11.21935 z m 16.78479,-33.51981 1.21692,18.71183 -9.29021,4.51296 -1.47005,-22.60416 9.54334,-0.62063 z m 40.12491,12.38853 1.12879,17.35677 -9.51451,0.61877 -1.17378,-18.04872 q -0.27564,-4.23829 -1.58784,-5.71646 -1.31407,-1.50699 -4.74505,-1.28386 l -4.95908,0.32251 1.65381,25.42968 -9.51451,0.61877 -2.10006,-32.29166 14.41591,-0.93752 q 8.47656,-0.55127 12.16326,2.71236 3.71366,3.23295 4.23306,11.21936 z m 35.08434,2.55359 9.4652,11.97933 -10.72545,0.69753 -11.03617,-13.87498 q -1.46575,1.94838 -1.19574,6.10016 l 0.55502,8.53422 -9.45683,0.61502 -0.4144,-6.37183 q -0.17251,-2.65253 0.15006,-4.81609 0.35137,-2.16543 0.90129,-3.50413 0.57876,-1.34055 1.60311,-2.50741 1.0532,-1.16873 1.82675,-1.7402 0.80049,-0.60219 2.02782,-1.319 l -9.40565,-11.95424 10.69662,-0.69564 11.03617,13.87495 q 1.46574,-1.94836 1.19573,-6.10014 l -0.55502,-8.53423 9.48567,-0.61689 0.4144,6.37184 q 0.12563,1.93173 -0.027,3.59202 -0.12376,1.65842 -0.42175,2.86489 -0.29789,1.20649 -0.86473,2.28567 -0.5668,1.07921 -1.10032,1.77984 -0.50655,0.66992 -1.33024,1.36047 -0.82371,0.69057 -1.40668,1.07591 -0.55414,0.38348 -1.41792,0.90292 z m 28.52434,-10.1648 1.35379,20.81659 -9.5145,0.61876 -1.09878,-16.89545 9.25949,-4.5399 z m 20.06553,3.12497 1.06691,16.40532 -9.51451,0.61876 -1.13066,-17.38558 q -0.30564,-4.69959 -1.62532,-6.29309 -1.29087,-1.59537 -4.75069,-1.37036 l -14.47358,0.94129 -0.44627,-6.86199 14.41591,-0.93753 q 4.35362,-0.28313 7.32188,0.39245 2.96826,0.67556 4.91218,2.51801 1.97086,1.81173 2.94058,4.70195 0.99856,2.88833 1.28357,7.27077 z"
         style="font-style:normal;font-variant:normal;font-weight:bold;font-stretch:normal;font-family:Sans;-inkscape-font-specification:'Sans Bold';text-align:end;text-anchor:end;fill:none;stroke:#000000;stroke-width:1.35512722;stroke-miterlimit:4;stroke-dasharray:none;stroke-opacity:1"
         id="path4170" />
      <path
         inkscape:connector-curvature="0"
         d="m -417.07594,754.40354 -3.53807,15.57124 -7.60996,-8.2739 4.04991,-18.09487 q -2.5486,0.086 -5.75141,3.03175 l -6.58353,6.05523 -6.70987,-7.29527 4.91542,-4.52097 q 2.04623,-1.88204 4.01942,-3.03997 1.99366,-1.1357 3.44458,-1.56694 1.47139,-0.40901 3.09395,-0.34119 1.64299,0.0901 2.61614,0.34461 1.01583,0.25632 2.40526,0.78491 l 3.55673,-15.50631 7.58952,8.25167 -4.04991,18.09486 q 2.5486,-0.086 5.7514,-3.03174 l 6.58355,-6.05525 6.7303,7.31752 -4.9154,4.52097 q -1.49019,1.37062 -2.94209,2.33648 -1.43144,0.98812 -2.60927,1.53771 -1.17786,0.54959 -2.42861,0.79672 -1.25076,0.24713 -2.17146,0.27281 -0.87799,0.0274 -1.98101,-0.18975 -1.10303,-0.2172 -1.79953,-0.43879 -0.67603,-0.19935 -1.66606,-0.56153 z m 34.07485,31.06615 -12.65552,11.63996 -6.77123,-7.362 12.65553,-11.63997 q 3.26953,-3.00716 3.99046,-5.92838 0.72093,-2.92121 -1.99983,-5.87935 l -7.87591,-8.56305 5.29352,-4.86875 7.85546,8.54082 q 2.7003,2.93591 4.14547,5.71241 1.48785,2.77828 1.75173,5.16322 0.28434,2.4072 -0.47654,4.7493 -0.73865,2.32165 -2.2129,4.33451 -1.43157,2.01466 -3.70024,4.10128 z m 29.49636,30.59673 -13.3895,12.31505 -6.75076,-7.33975 13.92329,-12.80602 q 3.26954,-3.00716 3.6114,-5.04598 0.3641,-2.05928 -2.07027,-4.70605 l -3.51858,-3.82557 -19.61718,18.04298 -6.75078,-7.33976 24.9107,-22.91171 10.22845,11.12084 q 6.01432,6.53905 5.7779,11.68335 -0.19372,5.14606 -6.35467,10.81262 z"
         style="font-style:normal;font-variant:normal;font-weight:bold;font-stretch:normal;font-family:Sans;-inkscape-font-specification:'Sans Bold';text-align:end;text-anchor:end;fill:none;stroke:#000000;stroke-width:1.41732287;stroke-miterlimit:4;stroke-dasharray:none;stroke-opacity:1"
         id="path4176" />
    </g>
    <path
       inkscape:connector-curvature="0"
       d="m 418.80125,785.91145 c -2.53461,0.0433 -5.0408,1.36674 -6.61896,3.95498 -2.10133,3.4463 -0.93483,8.24931 2.56265,10.55103 0.19979,0.13147 0.41586,0.2472 0.63889,0.35513 l -6.85337,0 -7.18558,8.90488 c -3.95214,4.89778 -7.18558,8.98091 -7.18558,9.07318 0,0.0923 1.51927,0.64265 3.37688,1.22317 l 3.37778,1.0557 3.8131,-4.62912 3.81398,-4.63 0.14629,17.54538 0.14628,17.54449 4.50664,0 4.50662,0 0,-10.99869 c 0,-10.76539 0.0238,-10.9978 1.12799,-10.9978 1.10411,0 1.12797,0.23241 1.12797,10.9978 l 0,10.99869 4.50664,0 4.50663,0 0.14629,-17.54449 0.14628,-17.54538 3.81311,4.63 3.8131,4.62912 3.37776,-1.0557 c 1.85761,-0.58052 3.37777,-1.13089 3.37777,-1.22317 0,-0.0923 -3.23342,-4.1754 -7.18558,-9.07318 l -7.18647,-8.90488 -6.90712,0 c 0.2455,-0.11235 0.48454,-0.2331 0.70764,-0.371 3.57413,-2.20893 4.69327,-7.28864 2.3714,-10.76428 -1.69171,-2.53234 -4.25441,-3.76919 -6.78903,-3.72586 z m 50.75911,0 c -2.53462,0.0433 -5.04081,1.36674 -6.61895,3.95498 -2.10134,3.4463 -0.93483,8.24931 2.56263,10.55103 0.19979,0.13147 0.41588,0.2472 0.63889,0.35513 l -6.85336,0 -7.18559,8.90488 c -3.95214,4.89778 -7.18558,8.98091 -7.18558,9.07318 0,0.0923 1.51928,0.64265 3.37688,1.22317 l 3.37779,1.0557 3.81309,-4.62912 3.81398,-4.63 0.14629,17.54538 0.14628,17.54449 4.50664,0 4.50664,0 0,-10.99869 c 0,-10.76539 0.0238,-10.9978 1.12797,-10.9978 1.10412,0 1.12798,0.23241 1.12798,10.9978 l 0,10.99869 4.50663,0 4.50664,0 0.14628,-17.54449 0.14628,-17.54538 3.81311,4.63 3.8131,4.62912 3.37777,-1.0557 c 1.85761,-0.58052 3.37778,-1.13089 3.37778,-1.22317 0,-0.0923 -3.23344,-4.1754 -7.1856,-9.07318 l -7.18646,-8.90488 -6.90711,0 c 0.24548,-0.11235 0.48452,-0.2331 0.70762,-0.371 3.57414,-2.20893 4.69328,-7.28864 2.3714,-10.76428 -1.69171,-2.53234 -4.2544,-3.76919 -6.78902,-3.72586 z"
       style="fill:none;fill-opacity:1;stroke:#000000;stroke-width:1.41732283;stroke-miterlimit:4;stroke-dasharray:none;stroke-opacity:1"
       id="path4210" />
    <g
       id="g4262"
       gcodetools="Gcodetools orientation group"
       transform="translate(567.39147,-437.41388)">
      <g
         id="g4264"
         gcodetools="Gcodetools orientation point (2 points)">
        <path
           id="path4266"
           style="fill:#000000;stroke:none"
           gcodetools="Gcodetools orientation point arrow"
           d="m 0,1052.3622 2.9375,-6.3437 0.8125,1.9062 6.843749,-6.8437 0,0 0.6875,0.6875 -6.8437504,6.8437 1.90625,0.8125 z"
           inkscape:connector-curvature="0" />
        <text
           id="text4268"
           xml:space="preserve"
           y="1042.3622"
           x="10"
           style="font-style:normal;font-variant:normal;font-weight:normal;font-stretch:normal;font-size:10px;font-family:'DejaVu Sans';fill:#000000;fill-opacity:1;stroke:none"
           gcodetools="Gcodetools orientation point text"><tspan
             id="tspan4270"
             sodipodi:role="line"
             y="1042.3622"
             x="10">(0.0; 0.0; 0.0)</tspan></text>
      </g>
      <g
         id="g4272"
         gcodetools="Gcodetools orientation point (2 points)">
        <path
           id="path4274"
           style="fill:#000000;stroke:none"
           gcodetools="Gcodetools orientation point arrow"
           d="m 354.33071,1052.3622 2.9375,-6.3437 0.8125,1.9062 6.84375,-6.8437 0,0 0.6875,0.6875 -6.84375,6.8437 1.90625,0.8125 z"
           inkscape:connector-curvature="0" />
        <text
           id="text4276"
           xml:space="preserve"
           y="1042.3622"
           x="364.33072"
           style="font-style:normal;font-variant:normal;font-weight:normal;font-stretch:normal;font-size:10px;font-family:'DejaVu Sans';fill:#000000;fill-opacity:1;stroke:none"
           gcodetools="Gcodetools orientation point text"><tspan
             id="tspan4278"
             sodipodi:role="line"
             y="1042.3622"
             x="364.33072">(100.0; 0.0; -0.125)</tspan></text>
      </g>
    </g>
    <g
       id="g4280"
       transform="translate(93.752671,247.05373)"
       gcodetools="Gcodetools tool definition">
      <path
         id="path4282"
         d="m -20,-20 400,0 0,370 -400,0 z"
         style="fill:#00ff00;fill-opacity:0.5;stroke:#444444;stroke-width:1px"
         gcodetools="Gcodetools tool background"
         inkscape:connector-curvature="0" />
      <g
         id="g4284"
         gcodetools="Gcodetools tool parameter">
        <text
           id="text4286"
           xml:space="preserve"
           y="0"
           x="0"
           style="font-style:normal;font-variant:normal;font-weight:normal;font-stretch:normal;font-size:20px;font-family:'DejaVu Sans';fill:#000000;fill-opacity:1;stroke:none"
           gcodetools="Gcodetools tool definition field name"><tspan
             id="tspan4288"
             sodipodi:role="line"
             y="0"
             x="0">name</tspan></text>
        <text
           id="text4290"
           xml:space="preserve"
           y="0"
           x="150"
           style="font-style:normal;font-variant:normal;font-weight:normal;font-stretch:normal;font-size:20px;font-family:'DejaVu Sans';fill:#000000;fill-opacity:1;stroke:none"
           gcodetools="Gcodetools tool definition field value"><tspan
             id="tspan4292"
             sodipodi:role="line"
             y="0"
             x="150">Default tool</tspan></text>
      </g>
      <g
         id="g4294"
         gcodetools="Gcodetools tool parameter">
        <text
           id="text4296"
           xml:space="preserve"
           y="20"
           x="0"
           style="font-style:normal;font-variant:normal;font-weight:normal;font-stretch:normal;font-size:10px;font-family:'DejaVu Sans';fill:#000000;fill-opacity:1;stroke:none"
           gcodetools="Gcodetools tool definition field name"><tspan
             id="tspan4298"
             sodipodi:role="line"
             y="20"
             x="0">id</tspan></text>
        <text
           id="text4300"
           xml:space="preserve"
           y="20"
           x="150"
           style="font-style:normal;font-variant:normal;font-weight:normal;font-stretch:normal;font-size:10px;font-family:'DejaVu Sans';fill:#000000;fill-opacity:1;stroke:none"
           gcodetools="Gcodetools tool definition field value"><tspan
             id="tspan4302"
             sodipodi:role="line"
             y="20"
             x="150">default tool</tspan></text>
      </g>
      <g
         id="g4304"
         gcodetools="Gcodetools tool parameter">
        <text
           id="text4306"
           xml:space="preserve"
           y="35"
           x="0"
           style="font-style:normal;font-variant:normal;font-weight:normal;font-stretch:normal;font-size:10px;font-family:'DejaVu Sans';fill:#000000;fill-opacity:1;stroke:none"
           gcodetools="Gcodetools tool definition field name"><tspan
             id="tspan4308"
             sodipodi:role="line"
             y="35"
             x="0">diameter</tspan></text>
        <text
           id="text4310"
           xml:space="preserve"
           y="35"
           x="150"
           style="font-style:normal;font-variant:normal;font-weight:normal;font-stretch:normal;font-size:10px;font-family:'DejaVu Sans';fill:#000000;fill-opacity:1;stroke:none"
           gcodetools="Gcodetools tool definition field value"><tspan
             id="tspan4312"
             sodipodi:role="line"
             y="35"
             x="150">0.5</tspan></text>
      </g>
      <g
         id="g4314"
         gcodetools="Gcodetools tool parameter">
        <text
           id="text4316"
           xml:space="preserve"
           y="50"
           x="0"
           style="font-style:normal;font-variant:normal;font-weight:normal;font-stretch:normal;font-size:10px;font-family:'DejaVu Sans';fill:#000000;fill-opacity:1;stroke:none"
           gcodetools="Gcodetools tool definition field name"><tspan
             id="tspan4318"
             sodipodi:role="line"
             y="50"
             x="0">feed</tspan></text>
        <text
           id="text4320"
           xml:space="preserve"
           y="50"
           x="150"
           style="font-style:normal;font-variant:normal;font-weight:normal;font-stretch:normal;font-size:10px;font-family:'DejaVu Sans';fill:#000000;fill-opacity:1;stroke:none"
           gcodetools="Gcodetools tool definition field value"><tspan
             id="tspan4322"
             sodipodi:role="line"
             y="50"
             x="150">40.0</tspan></text>
      </g>
      <g
         id="g4324"
         gcodetools="Gcodetools tool parameter">
        <text
           id="text4326"
           xml:space="preserve"
           y="65"
           x="0"
           style="font-style:normal;font-variant:normal;font-weight:normal;font-stretch:normal;font-size:10px;font-family:'DejaVu Sans';fill:#000000;fill-opacity:1;stroke:none"
           gcodetools="Gcodetools tool definition field name"><tspan
             id="tspan4328"
             sodipodi:role="line"
             y="65"
             x="0">shape</tspan></text>
        <text
           id="text4330"
           xml:space="preserve"
           y="65"
           x="150"
           style="font-style:normal;font-variant:normal;font-weight:normal;font-stretch:normal;font-size:10px;font-family:'DejaVu Sans';fill:#000000;fill-opacity:1;stroke:none"
           gcodetools="Gcodetools tool definition field value"><tspan
             id="tspan4332"
             sodipodi:role="line"
             y="65"
             x="150">10</tspan></text>
      </g>
      <g
         id="g4334"
         gcodetools="Gcodetools tool parameter">
        <text
           id="text4336"
           xml:space="preserve"
           y="80"
           x="0"
           style="font-style:normal;font-variant:normal;font-weight:normal;font-stretch:normal;font-size:10px;font-family:'DejaVu Sans';fill:#000000;fill-opacity:1;stroke:none"
           gcodetools="Gcodetools tool definition field name"><tspan
             id="tspan4338"
             sodipodi:role="line"
             y="80"
             x="0">penetration angle</tspan></text>
        <text
           id="text4340"
           xml:space="preserve"
           y="80"
           x="150"
           style="font-style:normal;font-variant:normal;font-weight:normal;font-stretch:normal;font-size:10px;font-family:'DejaVu Sans';fill:#000000;fill-opacity:1;stroke:none"
           gcodetools="Gcodetools tool definition field value"><tspan
             id="tspan4342"
             sodipodi:role="line"
             y="80"
             x="150">90.0</tspan></text>
      </g>
      <g
         id="g4344"
         gcodetools="Gcodetools tool parameter">
        <text
           id="text4346"
           xml:space="preserve"
           y="95"
           x="0"
           style="font-style:normal;font-variant:normal;font-weight:normal;font-stretch:normal;font-size:10px;font-family:'DejaVu Sans';fill:#000000;fill-opacity:1;stroke:none"
           gcodetools="Gcodetools tool definition field name"><tspan
             id="tspan4348"
             sodipodi:role="line"
             y="95"
             x="0">penetration feed</tspan></text>
        <text
           id="text4350"
           xml:space="preserve"
           y="95"
           x="150"
           style="font-style:normal;font-variant:normal;font-weight:normal;font-stretch:normal;font-size:10px;font-family:'DejaVu Sans';fill:#000000;fill-opacity:1;stroke:none"
           gcodetools="Gcodetools tool definition field value"><tspan
             id="tspan4352"
             sodipodi:role="line"
             y="95"
             x="150">1000.0</tspan></text>
      </g>
      <g
         id="g4354"
         gcodetools="Gcodetools tool parameter">
        <text
           id="text4356"
           xml:space="preserve"
           y="110"
           x="0"
           style="font-style:normal;font-variant:normal;font-weight:normal;font-stretch:normal;font-size:10px;font-family:'DejaVu Sans';fill:#000000;fill-opacity:1;stroke:none"
           gcodetools="Gcodetools tool definition field name"><tspan
             id="tspan4358"
             sodipodi:role="line"
             y="110"
             x="0">passing feed</tspan></text>
        <text
           id="text4360"
           xml:space="preserve"
           y="110"
           x="150"
           style="font-style:normal;font-variant:normal;font-weight:normal;font-stretch:normal;font-size:10px;font-family:'DejaVu Sans';fill:#000000;fill-opacity:1;stroke:none"
           gcodetools="Gcodetools tool definition field value"><tspan
             id="tspan4362"
             sodipodi:role="line"
             y="110"
             x="150">100</tspan></text>
      </g>
      <g
         id="g4364"
         gcodetools="Gcodetools tool parameter">
        <text
           id="text4366"
           xml:space="preserve"
           y="125"
           x="0"
           style="font-style:normal;font-variant:normal;font-weight:normal;font-stretch:normal;font-size:10px;font-family:'DejaVu Sans';fill:#000000;fill-opacity:1;stroke:none"
           gcodetools="Gcodetools tool definition field name"><tspan
             id="tspan4368"
             sodipodi:role="line"
             y="125"
             x="0">depth step</tspan></text>
        <text
           id="text4370"
           xml:space="preserve"
           y="125"
           x="150"
           style="font-style:normal;font-variant:normal;font-weight:normal;font-stretch:normal;font-size:10px;font-family:'DejaVu Sans';fill:#000000;fill-opacity:1;stroke:none"
           gcodetools="Gcodetools tool definition field value"><tspan
             id="tspan4372"
             sodipodi:role="line"
             y="125"
             x="150">1.0</tspan></text>
      </g>
      <g
         id="g4374"
         gcodetools="Gcodetools tool parameter">
        <text
           id="text4376"
           xml:space="preserve"
           y="140"
           x="0"
           style="font-style:normal;font-variant:normal;font-weight:normal;font-stretch:normal;font-size:10px;font-family:'DejaVu Sans';fill:#000000;fill-opacity:1;stroke:none"
           gcodetools="Gcodetools tool definition field name"><tspan
             id="tspan4378"
             sodipodi:role="line"
             y="140"
             x="0">in trajectotry</tspan></text>
        <text
           id="text4380"
           xml:space="preserve"
           y="140"
           x="150"
           style="font-style:normal;font-variant:normal;font-weight:normal;font-stretch:normal;font-size:10px;font-family:'DejaVu Sans';fill:#000000;fill-opacity:1;stroke:none"
           gcodetools="Gcodetools tool definition field value"><tspan
             id="tspan4382"
             sodipodi:role="line"
             y="140"
             x="150">(None)</tspan></text>
      </g>
      <g
         id="g4384"
         gcodetools="Gcodetools tool parameter">
        <text
           id="text4386"
           xml:space="preserve"
           y="155"
           x="0"
           style="font-style:normal;font-variant:normal;font-weight:normal;font-stretch:normal;font-size:10px;font-family:'DejaVu Sans';fill:#000000;fill-opacity:1;stroke:none"
           gcodetools="Gcodetools tool definition field name"><tspan
             id="tspan4388"
             sodipodi:role="line"
             y="155"
             x="0">out trajectotry</tspan></text>
        <text
           id="text4390"
           xml:space="preserve"
           y="155"
           x="150"
           style="font-style:normal;font-variant:normal;font-weight:normal;font-stretch:normal;font-size:10px;font-family:'DejaVu Sans';fill:#000000;fill-opacity:1;stroke:none"
           gcodetools="Gcodetools tool definition field value"><tspan
             id="tspan4392"
             sodipodi:role="line"
             y="155"
             x="150">(None)</tspan></text>
      </g>
      <g
         id="g4394"
         gcodetools="Gcodetools tool parameter">
        <text
           id="text4396"
           xml:space="preserve"
           y="170"
           x="0"
           style="font-style:normal;font-variant:normal;font-weight:normal;font-stretch:normal;font-size:10px;font-family:'DejaVu Sans';fill:#000000;fill-opacity:1;stroke:none"
           gcodetools="Gcodetools tool definition field name"><tspan
             id="tspan4398"
             sodipodi:role="line"
             y="170"
             x="0">gcode before path</tspan></text>
        <text
           id="text4400"
           xml:space="preserve"
           y="170"
           x="150"
           style="font-style:normal;font-variant:normal;font-weight:normal;font-stretch:normal;font-size:10px;font-family:'DejaVu Sans';fill:#000000;fill-opacity:1;stroke:none"
           gcodetools="Gcodetools tool definition field value"><tspan
             id="tspan4402"
             sodipodi:role="line"
             y="170"
             x="150">M3</tspan></text>
      </g>
      <g
         id="g4404"
         gcodetools="Gcodetools tool parameter">
        <text
           id="text4406"
           xml:space="preserve"
           y="185"
           x="0"
           style="font-style:normal;font-variant:normal;font-weight:normal;font-stretch:normal;font-size:10px;font-family:'DejaVu Sans';fill:#000000;fill-opacity:1;stroke:none"
           gcodetools="Gcodetools tool definition field name"><tspan
             id="tspan4408"
             sodipodi:role="line"
             y="185"
             x="0">gcode after path</tspan></text>
        <text
           id="text4410"
           xml:space="preserve"
           y="185"
           x="150"
           style="font-style:normal;font-variant:normal;font-weight:normal;font-stretch:normal;font-size:10px;font-family:'DejaVu Sans';fill:#000000;fill-opacity:1;stroke:none"
           gcodetools="Gcodetools tool definition field value"><tspan
             id="tspan4412"
             sodipodi:role="line"
             y="185"
             x="150">M5</tspan></text>
      </g>
      <g
         id="g4414"
         gcodetools="Gcodetools tool parameter">
        <text
           id="text4416"
           xml:space="preserve"
           y="200"
           x="0"
           style="font-style:normal;font-variant:normal;font-weight:normal;font-stretch:normal;font-size:10px;font-family:'DejaVu Sans';fill:#000000;fill-opacity:1;stroke:none"
           gcodetools="Gcodetools tool definition field name"><tspan
             id="tspan4418"
             sodipodi:role="line"
             y="200"
             x="0">sog</tspan></text>
        <text
           id="text4420"
           xml:space="preserve"
           y="200"
           x="150"
           style="font-style:normal;font-variant:normal;font-weight:normal;font-stretch:normal;font-size:10px;font-family:'DejaVu Sans';fill:#000000;fill-opacity:1;stroke:none"
           gcodetools="Gcodetools tool definition field value"><tspan
             id="tspan4422"
             sodipodi:role="line"
             y="200"
             x="150">(None)</tspan></text>
      </g>
      <g
         id="g4424"
         gcodetools="Gcodetools tool parameter">
        <text
           id="text4426"
           xml:space="preserve"
           y="215"
           x="0"
           style="font-style:normal;font-variant:normal;font-weight:normal;font-stretch:normal;font-size:10px;font-family:'DejaVu Sans';fill:#000000;fill-opacity:1;stroke:none"
           gcodetools="Gcodetools tool definition field name"><tspan
             id="tspan4428"
             sodipodi:role="line"
             y="215"
             x="0">spinlde rpm</tspan></text>
        <text
           id="text4430"
           xml:space="preserve"
           y="215"
           x="150"
           style="font-style:normal;font-variant:normal;font-weight:normal;font-stretch:normal;font-size:10px;font-family:'DejaVu Sans';fill:#000000;fill-opacity:1;stroke:none"
           gcodetools="Gcodetools tool definition field value"><tspan
             id="tspan4432"
             sodipodi:role="line"
             y="215"
             x="150">(None)</tspan></text>
      </g>
      <g
         id="g4434"
         gcodetools="Gcodetools tool parameter">
        <text
           id="text4436"
           xml:space="preserve"
           y="230"
           x="0"
           style="font-style:normal;font-variant:normal;font-weight:normal;font-stretch:normal;font-size:10px;font-family:'DejaVu Sans';fill:#000000;fill-opacity:1;stroke:none"
           gcodetools="Gcodetools tool definition field name"><tspan
             id="tspan4438"
             sodipodi:role="line"
             y="230"
             x="0">CW or CCW</tspan></text>
        <text
           id="text4440"
           xml:space="preserve"
           y="230"
           x="150"
           style="font-style:normal;font-variant:normal;font-weight:normal;font-stretch:normal;font-size:10px;font-family:'DejaVu Sans';fill:#000000;fill-opacity:1;stroke:none"
           gcodetools="Gcodetools tool definition field value"><tspan
             id="tspan4442"
             sodipodi:role="line"
             y="230"
             x="150">(None)</tspan></text>
      </g>
      <g
         id="g4444"
         gcodetools="Gcodetools tool parameter">
        <text
           id="text4446"
           xml:space="preserve"
           y="245"
           x="0"
           style="font-style:normal;font-variant:normal;font-weight:normal;font-stretch:normal;font-size:10px;font-family:'DejaVu Sans';fill:#000000;fill-opacity:1;stroke:none"
           gcodetools="Gcodetools tool definition field name"><tspan
             id="tspan4448"
             sodipodi:role="line"
             y="245"
             x="0">tool change gcode</tspan></text>
        <text
           id="text4450"
           xml:space="preserve"
           y="245"
           x="150"
           style="font-style:normal;font-variant:normal;font-weight:normal;font-stretch:normal;font-size:10px;font-family:'DejaVu Sans';fill:#000000;fill-opacity:1;stroke:none"
           gcodetools="Gcodetools tool definition field value"><tspan
             id="tspan4452"
             sodipodi:role="line"
             y="245"
             x="150">(None)</tspan></text>
      </g>
      <g
         id="g4454"
         gcodetools="Gcodetools tool parameter">
        <text
           id="text4456"
           xml:space="preserve"
           y="260"
           x="0"
           style="font-style:normal;font-variant:normal;font-weight:normal;font-stretch:normal;font-size:10px;font-family:'DejaVu Sans';fill:#000000;fill-opacity:1;stroke:none"
           gcodetools="Gcodetools tool definition field name"><tspan
             id="tspan4458"
             sodipodi:role="line"
             y="260"
             x="0">4th axis meaning</tspan></text>
        <text
           id="text4460"
           xml:space="preserve"
           y="260"
           x="150"
           style="font-style:normal;font-variant:normal;font-weight:normal;font-stretch:normal;font-size:10px;font-family:'DejaVu Sans';fill:#000000;fill-opacity:1;stroke:none"
           gcodetools="Gcodetools tool definition field value"><tspan
             id="tspan4462"
             sodipodi:role="line"
             y="260"
             x="150">(None)</tspan></text>
      </g>
      <g
         id="g4464"
         gcodetools="Gcodetools tool parameter">
        <text
           id="text4466"
           xml:space="preserve"
           y="275"
           x="0"
           style="font-style:normal;font-variant:normal;font-weight:normal;font-stretch:normal;font-size:10px;font-family:'DejaVu Sans';fill:#000000;fill-opacity:1;stroke:none"
           gcodetools="Gcodetools tool definition field name"><tspan
             id="tspan4468"
             sodipodi:role="line"
             y="275"
             x="0">4th axis offset</tspan></text>
        <text
           id="text4470"
           xml:space="preserve"
           y="275"
           x="150"
           style="font-style:normal;font-variant:normal;font-weight:normal;font-stretch:normal;font-size:10px;font-family:'DejaVu Sans';fill:#000000;fill-opacity:1;stroke:none"
           gcodetools="Gcodetools tool definition field value"><tspan
             id="tspan4472"
             sodipodi:role="line"
             y="275"
             x="150">0.0</tspan></text>
      </g>
      <g
         id="g4474"
         gcodetools="Gcodetools tool parameter">
        <text
           id="text4476"
           xml:space="preserve"
           y="290"
           x="0"
           style="font-style:normal;font-variant:normal;font-weight:normal;font-stretch:normal;font-size:10px;font-family:'DejaVu Sans';fill:#000000;fill-opacity:1;stroke:none"
           gcodetools="Gcodetools tool definition field name"><tspan
             id="tspan4478"
             sodipodi:role="line"
             y="290"
             x="0">4th axis scale</tspan></text>
        <text
           id="text4480"
           xml:space="preserve"
           y="290"
           x="150"
           style="font-style:normal;font-variant:normal;font-weight:normal;font-stretch:normal;font-size:10px;font-family:'DejaVu Sans';fill:#000000;fill-opacity:1;stroke:none"
           gcodetools="Gcodetools tool definition field value"><tspan
             id="tspan4482"
             sodipodi:role="line"
             y="290"
             x="150">1.0</tspan></text>
      </g>
      <g
         id="g4484"
         gcodetools="Gcodetools tool parameter">
        <text
           id="text4486"
           xml:space="preserve"
           y="305"
           x="0"
           style="font-style:normal;font-variant:normal;font-weight:normal;font-stretch:normal;font-size:10px;font-family:'DejaVu Sans';fill:#000000;fill-opacity:1;stroke:none"
           gcodetools="Gcodetools tool definition field name"><tspan
             id="tspan4488"
             sodipodi:role="line"
             y="305"
             x="0">fine feed</tspan></text>
        <text
           id="text4490"
           xml:space="preserve"
           y="305"
           x="150"
           style="font-style:normal;font-variant:normal;font-weight:normal;font-stretch:normal;font-size:10px;font-family:'DejaVu Sans';fill:#000000;fill-opacity:1;stroke:none"
           gcodetools="Gcodetools tool definition field value"><tspan
             id="tspan4492"
             sodipodi:role="line"
             y="305"
             x="150">40</tspan></text>
      </g>
    </g>
    <g
       id="g4494" />
  </g>
  <defs
     id="defs5132">
    <marker
       style="overflow:visible"
       refY="-1.687441"
       refX="-4"
       orient="auto"
       id="CheckToolsAndOPMarker">
      <path
         id="path5135"
         style="fill:#000044; fill-rule:evenodd;stroke:none;"
         d="	m -4.588864,-1.687441 0.0,0.0 L -9.177728,0.0 c 0.73311,-0.996261 0.728882,-2.359329 0.0,-3.374882" />
    </marker>
  </defs>
  <defs
     id="defs5137">
    <marker
       style="overflow:visible"
       refY="-1.687441"
       refX="-4"
       orient="auto"
       id="DrawCurveMarker">
      <path
         id="path5140"
         style="fill:#000044; fill-rule:evenodd;stroke:none;"
         d="m -4.588864,-1.687441 0.0,0.0 L -9.177728,0.0 c 0.73311,-0.996261 0.728882,-2.359329 0.0,-3.374882" />
    </marker>
  </defs>
  <defs
     id="defs5142">
    <marker
       style="overflow:visible"
       refY="-1.687441"
       refX="4"
       orient="auto"
       id="DrawCurveMarker_r">
      <path
         id="path5145"
         style="fill:#000044; fill-rule:evenodd;stroke:none;"
         d="m 4.588864,-1.687441 0.0,0.0 L 9.177728,0.0 c -0.73311,-0.996261 -0.728882,-2.359329 0.0,-3.374882" />
    </marker>
  </defs>
  <defs
     id="defs5147">
    <marker
       style="overflow:visible"
       refY="-1.687441"
       refX="-4"
       orient="auto"
       id="InOutPathMarker">
      <path
         id="path5150"
         style="fill:#0072a7; fill-rule:evenodd;stroke:none;"
         d="m -4.588864,-1.687441 0.0,0.0 L -9.177728,0.0 c 0.73311,-0.996261 0.728882,-2.359329 0.0,-3.374882" />
    </marker>
  </defs>
</svg>
