<?xml version="1.0" encoding="UTF-8" standalone="no"?>
<!-- Created with Inkscape (http://www.inkscape.org/) -->

<svg
   xmlns:dc="http://purl.org/dc/elements/1.1/"
   xmlns:cc="http://creativecommons.org/ns#"
   xmlns:rdf="http://www.w3.org/1999/02/22-rdf-syntax-ns#"
   xmlns:svg="http://www.w3.org/2000/svg"
   xmlns="http://www.w3.org/2000/svg"
   xmlns:sodipodi="http://sodipodi.sourceforge.net/DTD/sodipodi-0.dtd"
   xmlns:inkscape="http://www.inkscape.org/namespaces/inkscape"
   id="svg5094"
   version="1.1"
   inkscape:version="0.91 r13725"
   width="210mm"
   height="297mm"
   viewBox="0 0 744.09447 1052.3622"
   sodipodi:docname="underpants.svg">
  <sodipodi:namedview
     pagecolor="#ffffff"
     bordercolor="#666666"
     borderopacity="1"
     objecttolerance="10"
     gridtolerance="10"
     guidetolerance="10"
     inkscape:pageopacity="0"
     inkscape:pageshadow="2"
     inkscape:window-width="1215"
     inkscape:window-height="776"
     id="namedview5096"
     showgrid="true"
     inkscape:document-units="mm"
     units="mm"
     inkscape:snap-bbox="true"
     inkscape:bbox-paths="true"
     inkscape:bbox-nodes="true"
     inkscape:object-paths="true"
     inkscape:snap-intersection-paths="true"
     inkscape:object-nodes="true"
     inkscape:snap-smooth-nodes="true"
     inkscape:snap-others="true"
     inkscape:zoom="0.88064313"
     inkscape:cx="495.74284"
     inkscape:cy="665.0794"
     inkscape:window-x="65"
     inkscape:window-y="24"
     inkscape:window-maximized="1"
     inkscape:current-layer="layer1">
    <inkscape:grid
       id="grid5104"
       type="xygrid" />
  </sodipodi:namedview>
  <metadata
     id="metadata5100">
    <rdf:RDF>
      <cc:Work
         rdf:about="">
        <dc:format>image/svg+xml</dc:format>
        <dc:type
           rdf:resource="http://purl.org/dc/dcmitype/StillImage" />
        <dc:title></dc:title>
      </cc:Work>
    </rdf:RDF>
  </metadata>
  <defs
     id="defs5098" />
  <g
     style="display:inline"
     inkscape:label="Layer 1"
     id="layer1"
     inkscape:groupmode="layer">
    <path
       inkscape:connector-curvature="0"
       id="path5120"
       d="m 269.46443,175.21907 c -9.90337,-5.41661 -20.30148,-15.23046 -30.35794,-28.65213 l -6.1935,-8.26602 0,-18.098 c 0,-17.04044 0.0942,-18.14839 1.61122,-18.9603 2.22548,-1.19105 104.50641,-1.19105 106.73189,0 1.51709,0.81192 1.61122,1.91992 1.61122,18.96589 l 0,18.10358 -5.89494,7.89796 c -9.86285,13.21411 -22.23805,24.8255 -31.4478,29.50682 -2.25216,1.14478 -5.52314,1.43857 -17.39429,1.56234 -14.38943,0.15003 -14.68448,0.11746 -18.66586,-2.06014 z"
       style="fill:none;stroke:#000000;stroke-width:0.66638982;stroke-opacity:1" />
    <path
       inkscape:connector-curvature="0"
       id="path5118"
       d="m 299.54417,166.01976 c 0.80724,-2.6114 2.63862,-6.82274 4.06974,-9.35855 l 2.60203,-4.61054 -2.42996,-3.96926 c -3.38878,-5.53547 -5.87078,-13.42863 -6.93145,-22.04323 l -0.90276,-7.33214 -17.22447,0 0,4.20875 c 0,8.03202 -3.61262,20.32384 -7.63245,25.96918 l -1.7787,2.49796 2.94299,5.52797 c 1.61866,3.04039 3.3898,7.02736 3.93587,8.85993 0.54607,1.83257 1.14449,3.81209 1.32982,4.39895 0.25503,0.80756 2.79455,1.0101 10.4443,0.83299 l 10.10732,-0.23402 z"
       style="fill:none;stroke:#000000;stroke-width:0.66638982;stroke-opacity:1" />
    <path
       inkscape:connector-curvature="0"
       id="path5116"
       d="m 269.49247,165.56158 c -3.53708,-9.38087 -12.25843,-17.92001 -22.79728,-22.32101 -3.84838,-1.60708 -4.21017,-2.26776 4.52169,8.25713 5.01685,6.04704 16.59864,16.3546 18.37636,16.3546 0.43752,0 0.39453,-0.9771 -0.10077,-2.29072 z"
       style="fill:none;stroke:#000000;stroke-width:0.66638982;stroke-opacity:1" />
    <path
       inkscape:connector-curvature="0"
       id="path5114"
       d="m 313.0386,162.95129 c 5.05429,-4.06846 11.83459,-11.37002 18.15083,-19.54623 1.15012,-1.4888 1.08006,-1.49427 -2.10431,-0.16449 -8.43008,3.52039 -15.94879,9.77536 -19.91071,16.56414 -2.64852,4.53826 -3.95121,8.04759 -2.98733,8.04759 0.41962,0 3.50282,-2.20546 6.85152,-4.90101 z"
       style="fill:none;stroke:#000000;stroke-width:0.66638982;stroke-opacity:1" />
    <path
       inkscape:connector-curvature="0"
       id="path5112"
       d="m 267.32345,142.65443 c 2.63285,-5.24227 4.56092,-12.69173 4.90475,-18.95046 l 0.25169,-4.58143 -32.903,-0.45171 0,15.67656 2.8818,0.54063 c 3.90528,0.73264 15.1875,6.48038 18.77587,9.5654 1.6035,1.37856 3.1353,2.52172 3.40399,2.54034 0.2687,0.0187 1.4769,-1.93408 2.6849,-4.33933 z"
       style="fill:none;stroke:#000000;stroke-width:0.66638982;stroke-opacity:1" />
    <path
       inkscape:connector-curvature="0"
       id="path5110"
       d="m 315.16329,143.98948 c 4.60595,-3.53023 14.33796,-8.38475 18.29884,-9.12781 l 2.74129,-0.51428 0,-15.64135 -33.56395,0 0.52751,6.24039 c 0.56699,6.70749 3.00219,15.00403 5.68666,19.37397 0.91468,1.48897 1.81666,2.70721 2.0044,2.70721 0.18774,0 2.1251,-1.36716 4.30525,-3.03813 z"
       style="fill:none;stroke:#000000;stroke-width:0.66638982;stroke-opacity:1" />
    <path
       inkscape:connector-curvature="0"
       id="path5106"
       d="m 336.20342,107.04422 -96.62653,0 0,5.83091 96.62653,0 z"
       style="fill:none;stroke:#000000;stroke-width:0.66638982;stroke-opacity:1" />
    <g
       style="font-style:normal;font-weight:normal;font-size:90.82190704px;line-height:125%;font-family:Sans;letter-spacing:0px;word-spacing:0px;fill:none;fill-opacity:1;stroke:#000000;stroke-width:1px;stroke-linecap:butt;stroke-linejoin:miter;stroke-opacity:1"
       id="text7523">
      <path
         d="m 463.13098,122.37872 6.23779,-15.07324 -10.40771,0 0,-9.826659 5.65674,0 0,5.759279 11.27929,0.0171 0,2.73437 -6.92138,16.38916 -5.84473,0 z"
         style="font-style:normal;font-variant:normal;font-weight:bold;font-stretch:normal;font-size:35px;font-family:Sans;-inkscape-font-specification:'Sans Bold';text-align:end;text-anchor:end;fill:none;stroke:#000000;stroke-opacity:1"
         id="path8436" />
      <path
         d="m 448.53625,108.55304 0,-5.31494 5.74219,0 0,5.31494 q 0,1.91406 -0.1709,3.3667 -0.1538,1.43555 -0.58105,2.87109 -0.41016,1.43555 -1.16211,2.54639 -0.73486,1.11084 -1.87988,2.15332 -1.14502,1.04248 -2.80274,1.93115 -1.64062,0.88867 -3.82812,1.67481 l -7.77588,2.81982 0,-4.56299 4.32373,-1.55517 -4.75098,-16.56006 5.84473,0 4.0332,14.44092 q 1.65772,-1.12793 2.32422,-3.14454 0.68359,-2.0166 0.68359,-5.98144 z"
         style="font-style:normal;font-variant:normal;font-weight:bold;font-stretch:normal;font-size:35px;font-family:Sans;-inkscape-font-specification:'Sans Bold';text-align:end;text-anchor:end;fill:none;stroke:#000000;stroke-opacity:1"
         id="path8438" />
      <path
         d="m 425.31116,118.31134 0,-7.62207 q 0,-2.27295 -0.70069,-2.81982 -0.70068,-0.56397 -1.81152,-0.56397 l -2.61475,0 0,-4.06738 2.61475,0 q 4.92188,0 6.54541,1.94824 1.62354,1.94824 1.62354,5.12695 l 0,12.06543 -11.17676,0 0,-4.06738 5.52002,0 z"
         style="font-style:normal;font-variant:normal;font-weight:bold;font-stretch:normal;font-size:35px;font-family:Sans;-inkscape-font-specification:'Sans Bold';text-align:end;text-anchor:end;fill:none;stroke:#000000;stroke-opacity:1"
         id="path8440" />
      <path
         d="m 415.09143,112.09064 0,10.28808 -5.65674,0 0,-10.30517 q 0,-3.00782 -0.85449,-3.91358 -0.78613,-0.85449 -2.40967,-0.85449 l -2.40967,0 0,7.89551 q 0,4.32373 -1.52099,5.91308 -1.3501,1.41846 -3.91358,1.41846 -2.56347,0 -3.62304,-0.35888 l 0,-3.84522 q 1.6748,0.22217 1.87988,0.22217 0.85449,0 1.1792,-0.66651 0.3418,-0.68359 0.3418,-2.6831 l 0,-7.89551 -3.33252,0 0,-4.06738 11.39892,0 q 6.01563,0 7.81006,3.31543 1.11084,2.05078 1.11084,5.53711 z"
         style="font-style:normal;font-variant:normal;font-weight:bold;font-stretch:normal;font-size:35px;font-family:Sans;-inkscape-font-specification:'Sans Bold';text-align:end;text-anchor:end;fill:none;stroke:#000000;stroke-opacity:1"
         id="path8442" />
      <path
         d="m 468.94153,162.06134 0,-6.2207 q 0,-0.97412 -0.0684,-1.60645 -0.0513,-0.64941 -0.27344,-1.29883 -0.20508,-0.64941 -0.59814,-1.02539 -0.37598,-0.37597 -1.05957,-0.61523 -0.66651,-0.23926 -1.64063,-0.23926 l -6.47705,0 0,-4.06738 6.47705,0 q 2.22168,0 3.82813,0.39306 1.62353,0.39307 2.66601,1.12793 1.05957,0.73487 1.67481,1.93116 0.63232,1.1792 0.87158,2.59765 0.25635,1.41846 0.25635,3.3667 l 0,5.65674 2.56347,0 0,4.06738 -18.3374,0 0,-4.06738 10.11719,0 z"
         style="font-style:normal;font-variant:normal;font-weight:bold;font-stretch:normal;font-size:35px;font-family:Sans;-inkscape-font-specification:'Sans Bold';text-align:end;text-anchor:end;fill:none;stroke:#000000;stroke-opacity:1"
         id="path8444" />
      <path
         d="m 449.23694,158.69464 5.12695,7.43408 -6.35742,0 -5.98145,-8.61328 q -0.93994,1.09375 -0.93994,3.55469 l 0,5.05859 -5.60547,0 0,-3.77685 q 0,-1.57227 0.27344,-2.83692 0.29053,-1.26464 0.66651,-2.03369 0.39306,-0.76904 1.04248,-1.41845 0.6665,-0.64942 1.14502,-0.95704 0.4956,-0.3247 1.24755,-0.70068 l -5.09277,-7.41699 6.34033,0 5.98145,8.61328 q 0.93994,-1.09375 0.93994,-3.55469 l 0,-5.05859 5.62256,0 0,3.77685 q 0,1.14502 -0.15381,2.11914 -0.13672,0.97413 -0.35889,1.67481 -0.22217,0.70068 -0.59814,1.31592 -0.37598,0.61523 -0.71778,1.0083 -0.3247,0.37597 -0.8374,0.75195 -0.51269,0.37598 -0.87158,0.58106 -0.3418,0.20507 -0.87158,0.47851 z"
         style="font-style:normal;font-variant:normal;font-weight:bold;font-stretch:normal;font-size:35px;font-family:Sans;-inkscape-font-specification:'Sans Bold';text-align:end;text-anchor:end;fill:none;stroke:#000000;stroke-opacity:1"
         id="path8446" />
      <path
         d="m 416.90295,153.78986 0,12.33886 -5.63964,0 0,-10.01465 5.63964,-2.32421 z m 11.72364,2.61474 0,9.72412 -5.63965,0 0,-10.30517 q 0,-2.78565 -0.71777,-3.77686 -0.70069,-0.99121 -2.75147,-0.99121 l -8.5791,0 0,-4.06738 8.54492,0 q 2.58057,0 4.30664,0.51269 1.72608,0.5127 2.80274,1.67481 1.09375,1.14502 1.55517,2.88818 0.47852,1.74317 0.47852,4.34082 z"
         style="font-style:normal;font-variant:normal;font-weight:bold;font-stretch:normal;font-size:35px;font-family:Sans;-inkscape-font-specification:'Sans Bold';text-align:end;text-anchor:end;fill:none;stroke:#000000;stroke-opacity:1"
         id="path8448" />
      <path
         d="m 398.05286,162.06134 0,-6.2207 q 0,-0.97412 -0.0684,-1.60645 -0.0513,-0.64941 -0.27344,-1.29883 -0.20508,-0.64941 -0.59814,-1.02539 -0.37598,-0.37597 -1.05958,-0.61523 -0.6665,-0.23926 -1.64062,-0.23926 l -6.47705,0 0,-4.06738 6.47705,0 q 2.22168,0 3.82812,0.39306 1.62354,0.39307 2.66602,1.12793 1.05957,0.73487 1.67481,1.93116 0.63232,1.1792 0.87158,2.59765 0.25634,1.41846 0.25634,3.3667 l 0,5.65674 2.56348,0 0,4.06738 -18.3374,0 0,-4.06738 10.11719,0 z"
         style="font-style:normal;font-variant:normal;font-weight:bold;font-stretch:normal;font-size:35px;font-family:Sans;-inkscape-font-specification:'Sans Bold';text-align:end;text-anchor:end;fill:none;stroke:#000000;stroke-opacity:1"
         id="path8450" />
      <path
         d="m 371.51233,153.78986 0,12.33886 -5.63965,0 0,-10.01465 5.63965,-2.32421 z m 11.72363,2.61474 0,9.72412 -5.63965,0 0,-10.30517 q 0,-2.78565 -0.71777,-3.77686 -0.70068,-0.99121 -2.75146,-0.99121 l -8.57911,0 0,-4.06738 8.54493,0 q 2.58056,0 4.30664,0.51269 1.72607,0.5127 2.80273,1.67481 1.09375,1.14502 1.55518,2.88818 0.47851,1.74317 0.47851,4.34082 z"
         style="font-style:normal;font-variant:normal;font-weight:bold;font-stretch:normal;font-size:35px;font-family:Sans;-inkscape-font-specification:'Sans Bold';text-align:end;text-anchor:end;fill:none;stroke:#000000;stroke-opacity:1"
         id="path8452" />
      <path
         d="m 454.79114,190.7381 5.8789,0 q 0.22217,0.13672 0.71778,1.81152 0.51269,1.65772 0.51269,2.39258 0.52979,-1.86279 2.29004,-3.14453 1.76026,-1.29883 3.65723,-1.29883 7.58789,0 7.58789,9.0918 l 0,10.28808 -9.84375,0 0,-4.05029 4.18701,0 0,-6.23779 q 0,-2.81983 -0.46143,-3.8794 -0.44433,-1.07666 -1.86279,-1.07666 -0.52978,0 -0.97412,0.22217 -0.44434,0.20508 -0.78613,0.5127 -0.32471,0.30761 -0.63233,0.88867 -0.29052,0.56396 -0.4956,1.05957 -0.18799,0.4956 -0.39307,1.31592 -0.20508,0.80322 -0.32471,1.36718 -0.11962,0.56397 -0.30761,1.50391 l -1.65772,8.37402 -5.63965,0 1.57227,-8.28857 q 0.23926,-1.28174 0.27344,-2.29004 0,-1.91406 -0.61524,-3.64014 -0.61523,-1.74316 -2.6831,-4.92187 z"
         style="font-style:normal;font-variant:normal;font-weight:bold;font-stretch:normal;font-size:35px;font-family:Sans;-inkscape-font-specification:'Sans Bold';text-align:end;text-anchor:end;fill:none;stroke:#000000;stroke-opacity:1"
         id="path8454" />
      <path
         d="m 443.5802,205.81134 0,-6.2207 q 0,-0.97412 -0.0684,-1.60645 -0.0513,-0.64941 -0.27344,-1.29883 -0.20507,-0.64941 -0.59814,-1.02539 -0.37598,-0.37597 -1.05957,-0.61523 -0.66651,-0.23926 -1.64063,-0.23926 l -6.47705,0 0,-4.06738 6.47705,0 q 2.22168,0 3.82813,0.39306 1.62353,0.39307 2.66601,1.12793 1.05957,0.73487 1.67481,1.93116 0.63232,1.1792 0.87158,2.59765 0.25635,1.41846 0.25635,3.3667 l 0,5.65674 2.56348,0 0,4.06738 -18.33741,0 0,-4.06738 10.11719,0 z"
         style="font-style:normal;font-variant:normal;font-weight:bold;font-stretch:normal;font-size:35px;font-family:Sans;-inkscape-font-specification:'Sans Bold';text-align:end;text-anchor:end;fill:none;stroke:#000000;stroke-opacity:1"
         id="path8456" />
      <path
         d="m 429.6178,190.7381 0,11.09131 -5.65674,2.30713 0,-13.39844 5.65674,0 z"
         style="font-style:normal;font-variant:normal;font-weight:bold;font-stretch:normal;font-size:35px;font-family:Sans;-inkscape-font-specification:'Sans Bold';text-align:end;text-anchor:end;fill:none;stroke:#000000;stroke-opacity:1"
         id="path8458" />
      <path
         d="m 418.44104,199.59064 0,10.28808 -5.65674,0 0,-10.30517 q 0,-3.00782 -0.85449,-3.91358 -0.78613,-0.85449 -2.40967,-0.85449 l -2.40967,0 0,7.89551 q 0,4.32373 -1.52099,5.91308 -1.3501,1.41846 -3.91358,1.41846 -2.56347,0 -3.62304,-0.35888 l 0,-3.84522 q 1.6748,0.22217 1.87988,0.22217 0.85449,0 1.1792,-0.66651 0.3418,-0.68359 0.3418,-2.6831 l 0,-7.89551 -3.33252,0 0,-4.06738 11.39892,0 q 6.01563,0 7.81006,3.31543 1.11084,2.05078 1.11084,5.53711 z"
         style="font-style:normal;font-variant:normal;font-weight:bold;font-stretch:normal;font-size:35px;font-family:Sans;-inkscape-font-specification:'Sans Bold';text-align:end;text-anchor:end;fill:none;stroke:#000000;stroke-opacity:1"
         id="path8460" />
      <path
         d="m 370.62366,197.53986 0,12.33886 -5.63965,0 0,-10.01465 5.63965,-2.32421 z m 11.72363,2.61474 0,9.72412 -5.63965,0 0,-10.30517 q 0,-2.78565 -0.71777,-3.77686 -0.70069,-0.99121 -2.75147,-0.99121 l -8.5791,0 0,-4.06738 8.54492,0 q 2.58057,0 4.30664,0.51269 1.72608,0.5127 2.80274,1.67481 1.09375,1.14502 1.55517,2.88818 0.47852,1.74317 0.47852,4.34082 z"
         style="font-style:normal;font-variant:normal;font-weight:bold;font-stretch:normal;font-size:35px;font-family:Sans;-inkscape-font-specification:'Sans Bold';text-align:end;text-anchor:end;fill:none;stroke:#000000;stroke-opacity:1"
         id="path8462" />
      <path
         d="m 358.28479,199.59064 0,10.28808 -5.65674,0 0,-10.30517 q 0,-3.00782 -0.85449,-3.91358 -0.78613,-0.85449 -2.40967,-0.85449 l -2.40967,0 0,7.89551 q 0,4.32373 -1.52099,5.91308 -1.3501,1.41846 -3.91358,1.41846 -2.56347,0 -3.62304,-0.35888 l 0,-3.84522 q 1.6748,0.22217 1.87988,0.22217 0.85449,0 1.1792,-0.66651 0.3418,-0.68359 0.3418,-2.6831 l 0,-7.89551 -3.33252,0 0,-4.06738 11.39892,0 q 6.01563,0 7.81006,3.31543 1.11084,2.05078 1.11084,5.53711 z"
         style="font-style:normal;font-variant:normal;font-weight:bold;font-stretch:normal;font-size:35px;font-family:Sans;-inkscape-font-specification:'Sans Bold';text-align:end;text-anchor:end;fill:none;stroke:#000000;stroke-opacity:1"
         id="path8464" />
      <path
         d="m 334.35901,199.59064 0,10.28808 -5.63965,0 0,-10.69824 q 0,-2.51221 -0.71777,-3.43506 -0.71778,-0.93994 -2.75147,-0.93994 l -2.93945,0 0,15.07324 -5.63965,0 0,-19.14062 8.54492,0 q 5.02442,0 7.0752,2.06787 2.06787,2.05078 2.06787,6.78467 z"
         style="font-style:normal;font-variant:normal;font-weight:bold;font-stretch:normal;font-size:35px;font-family:Sans;-inkscape-font-specification:'Sans Bold';text-align:end;text-anchor:end;fill:none;stroke:#000000;stroke-opacity:1"
         id="path8466" />
      <path
         d="m 310.29651,199.59064 0,10.28808 -5.65674,0 0,-10.30517 q 0,-3.00782 -0.85449,-3.91358 -0.78613,-0.85449 -2.40967,-0.85449 l -2.40967,0 0,7.89551 q 0,4.32373 -1.52099,5.91308 -1.3501,1.41846 -3.91358,1.41846 -2.56347,0 -3.62304,-0.35888 l 0,-3.84522 q 1.6748,0.22217 1.87988,0.22217 0.85449,0 1.1792,-0.66651 0.34179,-0.68359 0.34179,-2.6831 l 0,-7.89551 -3.33252,0 0,-4.06738 11.39893,0 q 6.01563,0 7.81006,3.31543 1.11084,2.05078 1.11084,5.53711 z"
         style="font-style:normal;font-variant:normal;font-weight:bold;font-stretch:normal;font-size:35px;font-family:Sans;-inkscape-font-specification:'Sans Bold';text-align:end;text-anchor:end;fill:none;stroke:#000000;stroke-opacity:1"
         id="path8468" />
      <path
         d="m 286.37073,190.7381 0,19.14062 -5.65674,0 0,-19.14062 5.65674,0 z"
         style="font-style:normal;font-variant:normal;font-weight:bold;font-stretch:normal;font-size:35px;font-family:Sans;-inkscape-font-specification:'Sans Bold';text-align:end;text-anchor:end;fill:none;stroke:#000000;stroke-opacity:1"
         id="path8470" />
      <path
         d="m 268.69983,205.81134 0,-7.62207 q 0,-2.27295 -0.70068,-2.81982 -0.70069,-0.56397 -1.81153,-0.56397 l -2.61474,0 0,-4.06738 2.61474,0 q 4.92188,0 6.54541,1.94824 1.62354,1.94824 1.62354,5.12695 l 0,12.06543 -11.17676,0 0,-4.06738 5.52002,0 z"
         style="font-style:normal;font-variant:normal;font-weight:bold;font-stretch:normal;font-size:35px;font-family:Sans;-inkscape-font-specification:'Sans Bold';text-align:end;text-anchor:end;fill:none;stroke:#000000;stroke-opacity:1"
         id="path8472" />
      <path
         d="m 259.33459,190.7381 0,11.09131 -5.65673,2.30713 0,-13.39844 5.65673,0 z"
         style="font-style:normal;font-variant:normal;font-weight:bold;font-stretch:normal;font-size:35px;font-family:Sans;-inkscape-font-specification:'Sans Bold';text-align:end;text-anchor:end;fill:none;stroke:#000000;stroke-opacity:1"
         id="path8474" />
      <path
         d="m 248.14075,209.87872 -18.0127,0 0,-19.14062 8.83545,0 q 5.0415,0 7.10938,2.06787 2.06787,2.05078 2.06787,6.78467 l 0,10.28808 z m -12.37305,-15.07324 0,11.00586 6.71631,0 0,-6.63086 q 0,-2.51221 -0.71777,-3.43506 -0.71778,-0.93994 -2.75147,-0.93994 l -3.24707,0 z"
         style="font-style:normal;font-variant:normal;font-weight:bold;font-stretch:normal;font-size:35px;font-family:Sans;-inkscape-font-specification:'Sans Bold';text-align:end;text-anchor:end;fill:none;stroke:#000000;stroke-opacity:1"
         id="path8476" />
    </g>
    <g
       id="g7046" />
    <path
       style="fill:none;fill-rule:evenodd;stroke:#000000;stroke-width:1px;stroke-linecap:butt;stroke-linejoin:miter;stroke-opacity:1"
       d="m 52.649313,78.452756 -35.433071,85.039364 177.165098,7e-5 2.7e-4,-85.039434 -102.401857,0 -17.71653,42.519524 -3.89724,0 17.7168,-42.519524 z"
       id="path3338"
       inkscape:connector-curvature="0"
       sodipodi:nodetypes="ccccccccc" />
    <path
       style="fill:none;fill-rule:evenodd;stroke:#000000;stroke-width:1px;stroke-linecap:butt;stroke-linejoin:miter;stroke-opacity:1"
       d="m 212.09815,78.452756 0,223.228324 53.15039,0 0,-35.43359 3.54297,0 0,35.43359 170.08008,0 0,-35.43359 3.54297,0 0,35.43359 53.14843,0 -2.7e-4,-223.228324 z"
       id="path3343"
       inkscape:connector-curvature="0"
       sodipodi:nodetypes="ccccccccccccc" />
    <path
       style="fill:none;fill-rule:evenodd;stroke:#000000;stroke-width:1px;stroke-linecap:butt;stroke-linejoin:miter;stroke-opacity:1"
       d="m 52.649313,184.75196 -35.433071,85.03936 177.165098,7e-5 2.7e-4,-85.03943 -102.401857,0 -17.71653,42.51952 -3.89724,0 17.7168,-42.51952 z"
       id="path3338-3"
       inkscape:connector-curvature="0"
       sodipodi:nodetypes="ccccccccc" />
    <g
       transform="translate(513.77953,-992.12598)"
       gcodetools="Gcodetools orientation group"
       id="g4316">
      <g
         gcodetools="Gcodetools orientation point (2 points)"
         id="g4318">
        <path
           inkscape:connector-curvature="0"
           d="m 0,1052.3622 2.9375,-6.3437 0.8125,1.9062 6.843749,-6.8437 0,0 0.6875,0.6875 -6.8437504,6.8437 1.90625,0.8125 z"
           gcodetools="Gcodetools orientation point arrow"
           style="fill:#000000;stroke:none"
           id="path4320" />
        <text
           gcodetools="Gcodetools orientation point text"
           style="font-style:normal;font-variant:normal;font-weight:normal;font-stretch:normal;font-size:10px;font-family:'DejaVu Sans';fill:#000000;fill-opacity:1;stroke:none"
           x="10"
           y="1042.3622"
           xml:space="preserve"
           id="text4322"><tspan
             x="10"
             y="1042.3622"
             sodipodi:role="line"
             id="tspan4324">(0.0; 0.0; 0.0)</tspan></text>
      </g>
      <g
         gcodetools="Gcodetools orientation point (2 points)"
         id="g4326">
        <path
           inkscape:connector-curvature="0"
           d="m 354.33071,1052.3622 2.9375,-6.3437 0.8125,1.9062 6.84375,-6.8437 0,0 0.6875,0.6875 -6.84375,6.8437 1.90625,0.8125 z"
           gcodetools="Gcodetools orientation point arrow"
           style="fill:#000000;stroke:none"
           id="path4328" />
        <text
           gcodetools="Gcodetools orientation point text"
           style="font-style:normal;font-variant:normal;font-weight:normal;font-stretch:normal;font-size:10px;font-family:'DejaVu Sans';fill:#000000;fill-opacity:1;stroke:none"
           x="364.33072"
           y="1042.3622"
           xml:space="preserve"
           id="text4330"><tspan
             x="364.33072"
             y="1042.3622"
             sodipodi:role="line"
             id="tspan4332">(100.0; 0.0; -0.125)</tspan></text>
      </g>
    </g>
    <g
       gcodetools="Gcodetools tool definition"
       transform="translate(133.77953,381.4173)"
       id="g4334">
      <path
         inkscape:connector-curvature="0"
         gcodetools="Gcodetools tool background"
         style="fill:#00ff00;fill-opacity:0.5;stroke:#444444;stroke-width:1px"
         d="m -20,-20 400,0 0,370 -400,0 z"
         id="path4336" />
      <g
         gcodetools="Gcodetools tool parameter"
         id="g4338">
        <text
           gcodetools="Gcodetools tool definition field name"
           style="font-style:normal;font-variant:normal;font-weight:normal;font-stretch:normal;font-size:20px;font-family:'DejaVu Sans';fill:#000000;fill-opacity:1;stroke:none"
           x="0"
           y="0"
           xml:space="preserve"
           id="text4340"><tspan
             x="0"
             y="0"
             sodipodi:role="line"
             id="tspan4342">name</tspan></text>
        <text
           gcodetools="Gcodetools tool definition field value"
           style="font-style:normal;font-variant:normal;font-weight:normal;font-stretch:normal;font-size:20px;font-family:'DejaVu Sans';fill:#000000;fill-opacity:1;stroke:none"
           x="150"
           y="0"
           xml:space="preserve"
           id="text4344"><tspan
             x="150"
             y="0"
             sodipodi:role="line"
             id="tspan4346">Default tool</tspan></text>
      </g>
      <g
         gcodetools="Gcodetools tool parameter"
         id="g4348">
        <text
           gcodetools="Gcodetools tool definition field name"
           style="font-style:normal;font-variant:normal;font-weight:normal;font-stretch:normal;font-size:10px;font-family:'DejaVu Sans';fill:#000000;fill-opacity:1;stroke:none"
           x="0"
           y="20"
           xml:space="preserve"
           id="text4350"><tspan
             x="0"
             y="20"
             sodipodi:role="line"
             id="tspan4352">id</tspan></text>
        <text
           gcodetools="Gcodetools tool definition field value"
           style="font-style:normal;font-variant:normal;font-weight:normal;font-stretch:normal;font-size:10px;font-family:'DejaVu Sans';fill:#000000;fill-opacity:1;stroke:none"
           x="150"
           y="20"
           xml:space="preserve"
           id="text4354"><tspan
             x="150"
             y="20"
             sodipodi:role="line"
             id="tspan4356">default tool</tspan></text>
      </g>
      <g
         gcodetools="Gcodetools tool parameter"
         id="g4358">
        <text
           gcodetools="Gcodetools tool definition field name"
           style="font-style:normal;font-variant:normal;font-weight:normal;font-stretch:normal;font-size:10px;font-family:'DejaVu Sans';fill:#000000;fill-opacity:1;stroke:none"
           x="0"
           y="35"
           xml:space="preserve"
           id="text4360"><tspan
             x="0"
             y="35"
             sodipodi:role="line"
             id="tspan4362">diameter</tspan></text>
        <text
           gcodetools="Gcodetools tool definition field value"
           style="font-style:normal;font-variant:normal;font-weight:normal;font-stretch:normal;font-size:10px;font-family:'DejaVu Sans';fill:#000000;fill-opacity:1;stroke:none"
           x="150"
           y="35"
           xml:space="preserve"
           id="text4364"><tspan
             id="tspan13072"
             x="150"
             y="35"
             sodipodi:role="line">0.5</tspan></text>
      </g>
      <g
         gcodetools="Gcodetools tool parameter"
         id="g4368">
        <text
           gcodetools="Gcodetools tool definition field name"
           style="font-style:normal;font-variant:normal;font-weight:normal;font-stretch:normal;font-size:10px;font-family:'DejaVu Sans';fill:#000000;fill-opacity:1;stroke:none"
           x="0"
           y="50"
           xml:space="preserve"
           id="text4370"><tspan
             x="0"
             y="50"
             sodipodi:role="line"
             id="tspan4372">feed</tspan></text>
        <text
           gcodetools="Gcodetools tool definition field value"
           style="font-style:normal;font-variant:normal;font-weight:normal;font-stretch:normal;font-size:10px;font-family:'DejaVu Sans';fill:#000000;fill-opacity:1;stroke:none"
           x="150"
           y="50"
           xml:space="preserve"
           id="text4374"><tspan
             x="150"
             y="50"
             sodipodi:role="line"
             id="tspan4376">50.0</tspan></text>
      </g>
      <g
         gcodetools="Gcodetools tool parameter"
         id="g4378">
        <text
           gcodetools="Gcodetools tool definition field name"
           style="font-style:normal;font-variant:normal;font-weight:normal;font-stretch:normal;font-size:10px;font-family:'DejaVu Sans';fill:#000000;fill-opacity:1;stroke:none"
           x="0"
           y="65"
           xml:space="preserve"
           id="text4380"><tspan
             x="0"
             y="65"
             sodipodi:role="line"
             id="tspan4382">shape</tspan></text>
        <text
           gcodetools="Gcodetools tool definition field value"
           style="font-style:normal;font-variant:normal;font-weight:normal;font-stretch:normal;font-size:10px;font-family:'DejaVu Sans';fill:#000000;fill-opacity:1;stroke:none"
           x="150"
           y="65"
           xml:space="preserve"
           id="text4384"><tspan
             x="150"
             y="65"
             sodipodi:role="line"
             id="tspan4386">10</tspan></text>
      </g>
      <g
         gcodetools="Gcodetools tool parameter"
         id="g4388">
        <text
           gcodetools="Gcodetools tool definition field name"
           style="font-style:normal;font-variant:normal;font-weight:normal;font-stretch:normal;font-size:10px;font-family:'DejaVu Sans';fill:#000000;fill-opacity:1;stroke:none"
           x="0"
           y="80"
           xml:space="preserve"
           id="text4390"><tspan
             x="0"
             y="80"
             sodipodi:role="line"
             id="tspan4392">penetration angle</tspan></text>
        <text
           gcodetools="Gcodetools tool definition field value"
           style="font-style:normal;font-variant:normal;font-weight:normal;font-stretch:normal;font-size:10px;font-family:'DejaVu Sans';fill:#000000;fill-opacity:1;stroke:none"
           x="150"
           y="80"
           xml:space="preserve"
           id="text4394"><tspan
             x="150"
             y="80"
             sodipodi:role="line"
             id="tspan4396">90.0</tspan></text>
      </g>
      <g
         gcodetools="Gcodetools tool parameter"
         id="g4398">
        <text
           gcodetools="Gcodetools tool definition field name"
           style="font-style:normal;font-variant:normal;font-weight:normal;font-stretch:normal;font-size:10px;font-family:'DejaVu Sans';fill:#000000;fill-opacity:1;stroke:none"
           x="0"
           y="95"
           xml:space="preserve"
           id="text4400"><tspan
             x="0"
             y="95"
             sodipodi:role="line"
             id="tspan4402">penetration feed</tspan></text>
        <text
           gcodetools="Gcodetools tool definition field value"
           style="font-style:normal;font-variant:normal;font-weight:normal;font-stretch:normal;font-size:10px;font-family:'DejaVu Sans';fill:#000000;fill-opacity:1;stroke:none"
           x="150"
           y="95"
           xml:space="preserve"
           id="text4404"><tspan
             x="150"
             y="95"
             sodipodi:role="line"
             id="tspan4406">1000.0</tspan></text>
      </g>
      <g
         gcodetools="Gcodetools tool parameter"
         id="g4408">
        <text
           gcodetools="Gcodetools tool definition field name"
           style="font-style:normal;font-variant:normal;font-weight:normal;font-stretch:normal;font-size:10px;font-family:'DejaVu Sans';fill:#000000;fill-opacity:1;stroke:none"
           x="0"
           y="110"
           xml:space="preserve"
           id="text4410"><tspan
             x="0"
             y="110"
             sodipodi:role="line"
             id="tspan4412">passing feed</tspan></text>
        <text
           gcodetools="Gcodetools tool definition field value"
           style="font-style:normal;font-variant:normal;font-weight:normal;font-stretch:normal;font-size:10px;font-family:'DejaVu Sans';fill:#000000;fill-opacity:1;stroke:none"
           x="150"
           y="110"
           xml:space="preserve"
           id="text4414"><tspan
             x="150"
             y="110"
             sodipodi:role="line"
             id="tspan4416">100</tspan></text>
      </g>
      <g
         gcodetools="Gcodetools tool parameter"
         id="g4418">
        <text
           gcodetools="Gcodetools tool definition field name"
           style="font-style:normal;font-variant:normal;font-weight:normal;font-stretch:normal;font-size:10px;font-family:'DejaVu Sans';fill:#000000;fill-opacity:1;stroke:none"
           x="0"
           y="125"
           xml:space="preserve"
           id="text4420"><tspan
             x="0"
             y="125"
             sodipodi:role="line"
             id="tspan4422">depth step</tspan></text>
        <text
           gcodetools="Gcodetools tool definition field value"
           style="font-style:normal;font-variant:normal;font-weight:normal;font-stretch:normal;font-size:10px;font-family:'DejaVu Sans';fill:#000000;fill-opacity:1;stroke:none"
           x="150"
           y="125"
           xml:space="preserve"
           id="text4424"><tspan
             x="150"
             y="125"
             sodipodi:role="line"
             id="tspan4426">1.0</tspan></text>
      </g>
      <g
         gcodetools="Gcodetools tool parameter"
         id="g4428">
        <text
           gcodetools="Gcodetools tool definition field name"
           style="font-style:normal;font-variant:normal;font-weight:normal;font-stretch:normal;font-size:10px;font-family:'DejaVu Sans';fill:#000000;fill-opacity:1;stroke:none"
           x="0"
           y="140"
           xml:space="preserve"
           id="text4430"><tspan
             x="0"
             y="140"
             sodipodi:role="line"
             id="tspan4432">in trajectotry</tspan></text>
        <text
           gcodetools="Gcodetools tool definition field value"
           style="font-style:normal;font-variant:normal;font-weight:normal;font-stretch:normal;font-size:10px;font-family:'DejaVu Sans';fill:#000000;fill-opacity:1;stroke:none"
           x="150"
           y="140"
           xml:space="preserve"
           id="text4434"><tspan
             x="150"
             y="140"
             sodipodi:role="line"
             id="tspan4436">(None)</tspan></text>
      </g>
      <g
         gcodetools="Gcodetools tool parameter"
         id="g4438">
        <text
           gcodetools="Gcodetools tool definition field name"
           style="font-style:normal;font-variant:normal;font-weight:normal;font-stretch:normal;font-size:10px;font-family:'DejaVu Sans';fill:#000000;fill-opacity:1;stroke:none"
           x="0"
           y="155"
           xml:space="preserve"
           id="text4440"><tspan
             x="0"
             y="155"
             sodipodi:role="line"
             id="tspan4442">out trajectotry</tspan></text>
        <text
           gcodetools="Gcodetools tool definition field value"
           style="font-style:normal;font-variant:normal;font-weight:normal;font-stretch:normal;font-size:10px;font-family:'DejaVu Sans';fill:#000000;fill-opacity:1;stroke:none"
           x="150"
           y="155"
           xml:space="preserve"
           id="text4444"><tspan
             x="150"
             y="155"
             sodipodi:role="line"
             id="tspan4446">(None)</tspan></text>
      </g>
      <g
         gcodetools="Gcodetools tool parameter"
         id="g4448">
        <text
           gcodetools="Gcodetools tool definition field name"
           style="font-style:normal;font-variant:normal;font-weight:normal;font-stretch:normal;font-size:10px;font-family:'DejaVu Sans';fill:#000000;fill-opacity:1;stroke:none"
           x="0"
           y="170"
           xml:space="preserve"
           id="text4450"><tspan
             x="0"
             y="170"
             sodipodi:role="line"
             id="tspan4452">gcode before path</tspan></text>
        <text
           gcodetools="Gcodetools tool definition field value"
           style="font-style:normal;font-variant:normal;font-weight:normal;font-stretch:normal;font-size:10px;font-family:'DejaVu Sans';fill:#000000;fill-opacity:1;stroke:none"
           x="150"
           y="170"
           xml:space="preserve"
           id="text4454"><tspan
             x="150"
             y="170"
             sodipodi:role="line"
             id="tspan4456">M3</tspan></text>
      </g>
      <g
         gcodetools="Gcodetools tool parameter"
         id="g4458">
        <text
           gcodetools="Gcodetools tool definition field name"
           style="font-style:normal;font-variant:normal;font-weight:normal;font-stretch:normal;font-size:10px;font-family:'DejaVu Sans';fill:#000000;fill-opacity:1;stroke:none"
           x="0"
           y="185"
           xml:space="preserve"
           id="text4460"><tspan
             x="0"
             y="185"
             sodipodi:role="line"
             id="tspan4462">gcode after path</tspan></text>
        <text
           gcodetools="Gcodetools tool definition field value"
           style="font-style:normal;font-variant:normal;font-weight:normal;font-stretch:normal;font-size:10px;font-family:'DejaVu Sans';fill:#000000;fill-opacity:1;stroke:none"
           x="150"
           y="185"
           xml:space="preserve"
           id="text4464"><tspan
             x="150"
             y="185"
             sodipodi:role="line"
             id="tspan4466">M5</tspan></text>
      </g>
      <g
         gcodetools="Gcodetools tool parameter"
         id="g4468">
        <text
           gcodetools="Gcodetools tool definition field name"
           style="font-style:normal;font-variant:normal;font-weight:normal;font-stretch:normal;font-size:10px;font-family:'DejaVu Sans';fill:#000000;fill-opacity:1;stroke:none"
           x="0"
           y="200"
           xml:space="preserve"
           id="text4470"><tspan
             x="0"
             y="200"
             sodipodi:role="line"
             id="tspan4472">sog</tspan></text>
        <text
           gcodetools="Gcodetools tool definition field value"
           style="font-style:normal;font-variant:normal;font-weight:normal;font-stretch:normal;font-size:10px;font-family:'DejaVu Sans';fill:#000000;fill-opacity:1;stroke:none"
           x="150"
           y="200"
           xml:space="preserve"
           id="text4474"><tspan
             x="150"
             y="200"
             sodipodi:role="line"
             id="tspan4476">(None)</tspan></text>
      </g>
      <g
         gcodetools="Gcodetools tool parameter"
         id="g4478">
        <text
           gcodetools="Gcodetools tool definition field name"
           style="font-style:normal;font-variant:normal;font-weight:normal;font-stretch:normal;font-size:10px;font-family:'DejaVu Sans';fill:#000000;fill-opacity:1;stroke:none"
           x="0"
           y="215"
           xml:space="preserve"
           id="text4480"><tspan
             x="0"
             y="215"
             sodipodi:role="line"
             id="tspan4482">spinlde rpm</tspan></text>
        <text
           gcodetools="Gcodetools tool definition field value"
           style="font-style:normal;font-variant:normal;font-weight:normal;font-stretch:normal;font-size:10px;font-family:'DejaVu Sans';fill:#000000;fill-opacity:1;stroke:none"
           x="150"
           y="215"
           xml:space="preserve"
           id="text4484"><tspan
             x="150"
             y="215"
             sodipodi:role="line"
             id="tspan4486">(None)</tspan></text>
      </g>
      <g
         gcodetools="Gcodetools tool parameter"
         id="g4488">
        <text
           gcodetools="Gcodetools tool definition field name"
           style="font-style:normal;font-variant:normal;font-weight:normal;font-stretch:normal;font-size:10px;font-family:'DejaVu Sans';fill:#000000;fill-opacity:1;stroke:none"
           x="0"
           y="230"
           xml:space="preserve"
           id="text4490"><tspan
             x="0"
             y="230"
             sodipodi:role="line"
             id="tspan4492">CW or CCW</tspan></text>
        <text
           gcodetools="Gcodetools tool definition field value"
           style="font-style:normal;font-variant:normal;font-weight:normal;font-stretch:normal;font-size:10px;font-family:'DejaVu Sans';fill:#000000;fill-opacity:1;stroke:none"
           x="150"
           y="230"
           xml:space="preserve"
           id="text4494"><tspan
             x="150"
             y="230"
             sodipodi:role="line"
             id="tspan4496">(None)</tspan></text>
      </g>
      <g
         gcodetools="Gcodetools tool parameter"
         id="g4498">
        <text
           gcodetools="Gcodetools tool definition field name"
           style="font-style:normal;font-variant:normal;font-weight:normal;font-stretch:normal;font-size:10px;font-family:'DejaVu Sans';fill:#000000;fill-opacity:1;stroke:none"
           x="0"
           y="245"
           xml:space="preserve"
           id="text4500"><tspan
             x="0"
             y="245"
             sodipodi:role="line"
             id="tspan4502">tool change gcode</tspan></text>
        <text
           gcodetools="Gcodetools tool definition field value"
           style="font-style:normal;font-variant:normal;font-weight:normal;font-stretch:normal;font-size:10px;font-family:'DejaVu Sans';fill:#000000;fill-opacity:1;stroke:none"
           x="150"
           y="245"
           xml:space="preserve"
           id="text4504"><tspan
             x="150"
             y="245"
             sodipodi:role="line"
             id="tspan4506">(None)</tspan></text>
      </g>
      <g
         gcodetools="Gcodetools tool parameter"
         id="g4508">
        <text
           gcodetools="Gcodetools tool definition field name"
           style="font-style:normal;font-variant:normal;font-weight:normal;font-stretch:normal;font-size:10px;font-family:'DejaVu Sans';fill:#000000;fill-opacity:1;stroke:none"
           x="0"
           y="260"
           xml:space="preserve"
           id="text4510"><tspan
             x="0"
             y="260"
             sodipodi:role="line"
             id="tspan4512">4th axis meaning</tspan></text>
        <text
           gcodetools="Gcodetools tool definition field value"
           style="font-style:normal;font-variant:normal;font-weight:normal;font-stretch:normal;font-size:10px;font-family:'DejaVu Sans';fill:#000000;fill-opacity:1;stroke:none"
           x="150"
           y="260"
           xml:space="preserve"
           id="text4514"><tspan
             x="150"
             y="260"
             sodipodi:role="line"
             id="tspan4516">(None)</tspan></text>
      </g>
      <g
         gcodetools="Gcodetools tool parameter"
         id="g4518">
        <text
           gcodetools="Gcodetools tool definition field name"
           style="font-style:normal;font-variant:normal;font-weight:normal;font-stretch:normal;font-size:10px;font-family:'DejaVu Sans';fill:#000000;fill-opacity:1;stroke:none"
           x="0"
           y="275"
           xml:space="preserve"
           id="text4520"><tspan
             x="0"
             y="275"
             sodipodi:role="line"
             id="tspan4522">4th axis offset</tspan></text>
        <text
           gcodetools="Gcodetools tool definition field value"
           style="font-style:normal;font-variant:normal;font-weight:normal;font-stretch:normal;font-size:10px;font-family:'DejaVu Sans';fill:#000000;fill-opacity:1;stroke:none"
           x="150"
           y="275"
           xml:space="preserve"
           id="text4524"><tspan
             x="150"
             y="275"
             sodipodi:role="line"
             id="tspan4526">0.0</tspan></text>
      </g>
      <g
         gcodetools="Gcodetools tool parameter"
         id="g4528">
        <text
           gcodetools="Gcodetools tool definition field name"
           style="font-style:normal;font-variant:normal;font-weight:normal;font-stretch:normal;font-size:10px;font-family:'DejaVu Sans';fill:#000000;fill-opacity:1;stroke:none"
           x="0"
           y="290"
           xml:space="preserve"
           id="text4530"><tspan
             x="0"
             y="290"
             sodipodi:role="line"
             id="tspan4532">4th axis scale</tspan></text>
        <text
           gcodetools="Gcodetools tool definition field value"
           style="font-style:normal;font-variant:normal;font-weight:normal;font-stretch:normal;font-size:10px;font-family:'DejaVu Sans';fill:#000000;fill-opacity:1;stroke:none"
           x="150"
           y="290"
           xml:space="preserve"
           id="text4534"><tspan
             x="150"
             y="290"
             sodipodi:role="line"
             id="tspan4536">1.0</tspan></text>
      </g>
      <g
         gcodetools="Gcodetools tool parameter"
         id="g4538">
        <text
           gcodetools="Gcodetools tool definition field name"
           style="font-style:normal;font-variant:normal;font-weight:normal;font-stretch:normal;font-size:10px;font-family:'DejaVu Sans';fill:#000000;fill-opacity:1;stroke:none"
           x="0"
           y="305"
           xml:space="preserve"
           id="text4540"><tspan
             x="0"
             y="305"
             sodipodi:role="line"
             id="tspan4542">fine feed</tspan></text>
        <text
           gcodetools="Gcodetools tool definition field value"
           style="font-style:normal;font-variant:normal;font-weight:normal;font-stretch:normal;font-size:10px;font-family:'DejaVu Sans';fill:#000000;fill-opacity:1;stroke:none"
           x="150"
           y="305"
           xml:space="preserve"
           id="text4544"><tspan
             x="150"
             y="305"
             sodipodi:role="line"
             id="tspan4546">50</tspan></text>
      </g>
    </g>
    <g
       id="g8633" />
    <g
       id="g10703" />
  </g>
  <defs
     id="defs7234">
    <marker
       style="overflow:visible"
       refY="-1.687441"
       refX="-4"
       orient="auto"
       id="CheckToolsAndOPMarker">
      <path
         id="path7237"
         style="fill:#000044; fill-rule:evenodd;stroke:none;"
         d=" m -4.588864,-1.687441 0.0,0.0 L -9.177728,0.0 c 0.73311,-0.996261 0.728882,-2.359329 0.0,-3.374882" />
    </marker>
  </defs>
  <defs
     id="defs7239">
    <marker
       style="overflow:visible"
       refY="-1.687441"
       refX="-4"
       orient="auto"
       id="DrawCurveMarker">
      <path
         id="path7242"
         style="fill:#000044; fill-rule:evenodd;stroke:none;"
         d="m -4.588864,-1.687441 0.0,0.0 L -9.177728,0.0 c 0.73311,-0.996261 0.728882,-2.359329 0.0,-3.374882" />
    </marker>
  </defs>
  <defs
     id="defs7244">
    <marker
       style="overflow:visible"
       refY="-1.687441"
       refX="4"
       orient="auto"
       id="DrawCurveMarker_r">
      <path
         id="path7247"
         style="fill:#000044; fill-rule:evenodd;stroke:none;"
         d="m 4.588864,-1.687441 0.0,0.0 L 9.177728,0.0 c -0.73311,-0.996261 -0.728882,-2.359329 0.0,-3.374882" />
    </marker>
  </defs>
  <defs
     id="defs7249">
    <marker
       style="overflow:visible"
       refY="-1.687441"
       refX="-4"
       orient="auto"
       id="InOutPathMarker">
      <path
         id="path7252"
         style="fill:#0072a7; fill-rule:evenodd;stroke:none;"
         d="m -4.588864,-1.687441 0.0,0.0 L -9.177728,0.0 c 0.73311,-0.996261 0.728882,-2.359329 0.0,-3.374882" />
    </marker>
  </defs>
</svg>
